G04 #@! TF.GenerationSoftware,KiCad,Pcbnew,(5.1.4)-1*
G04 #@! TF.CreationDate,2024-07-18T00:41:49-04:00*
G04 #@! TF.ProjectId,ai03-pcb-guide,61693033-2d70-4636-922d-67756964652e,rev?*
G04 #@! TF.SameCoordinates,Original*
G04 #@! TF.FileFunction,Legend,Top*
G04 #@! TF.FilePolarity,Positive*
%FSLAX46Y46*%
G04 Gerber Fmt 4.6, Leading zero omitted, Abs format (unit mm)*
G04 Created by KiCad (PCBNEW (5.1.4)-1) date 2024-07-18 00:41:49*
%MOMM*%
%LPD*%
G04 APERTURE LIST*
%ADD10C,0.150000*%
%ADD11C,4.089800*%
%ADD12C,1.852000*%
%ADD13O,1.802000X2.802000*%
G04 APERTURE END LIST*
%LPC*%
D10*
X50603062Y-57999380D02*
X51174491Y-57999380D01*
X50763776Y-58999380D02*
X50888776Y-57999380D01*
X51370919Y-58332714D02*
X51525681Y-58999380D01*
X51847110Y-58332714D02*
X51525681Y-58999380D01*
X51400681Y-59237476D01*
X51347110Y-59285095D01*
X51245919Y-59332714D01*
X52144729Y-58999380D02*
X52269729Y-57999380D01*
X52716157Y-58999380D02*
X52359014Y-58427952D01*
X52841157Y-57999380D02*
X52198300Y-58570809D01*
X53531633Y-58951761D02*
X53430443Y-58999380D01*
X53239967Y-58999380D01*
X53150681Y-58951761D01*
X53114967Y-58856523D01*
X53162586Y-58475571D01*
X53222110Y-58380333D01*
X53323300Y-58332714D01*
X53513776Y-58332714D01*
X53603062Y-58380333D01*
X53638776Y-58475571D01*
X53626872Y-58570809D01*
X53138776Y-58666047D01*
X53989967Y-58332714D02*
X54144729Y-58999380D01*
X54466157Y-58332714D02*
X54144729Y-58999380D01*
X54019729Y-59237476D01*
X53966157Y-59285095D01*
X53864967Y-59332714D01*
X54722110Y-58951761D02*
X54811395Y-58999380D01*
X55001872Y-58999380D01*
X55103062Y-58951761D01*
X55162586Y-58856523D01*
X55168538Y-58808904D01*
X55132824Y-58713666D01*
X55043538Y-58666047D01*
X54900681Y-58666047D01*
X54811395Y-58618428D01*
X54775681Y-58523190D01*
X54781633Y-58475571D01*
X54841157Y-58380333D01*
X54942348Y-58332714D01*
X55085205Y-58332714D01*
X55174491Y-58380333D01*
D11*
X123825000Y-33337500D03*
D12*
X118745000Y-33337500D03*
X128905000Y-33337500D03*
D13*
X57787500Y-30027000D03*
X65087500Y-30027000D03*
X65087500Y-25527000D03*
X57787500Y-25527000D03*
D11*
X123825000Y-52387500D03*
D12*
X118745000Y-52387500D03*
X128905000Y-52387500D03*
D11*
X104775000Y-52387500D03*
D12*
X99695000Y-52387500D03*
X109855000Y-52387500D03*
D11*
X104775000Y-33337500D03*
D12*
X99695000Y-33337500D03*
X109855000Y-33337500D03*
M02*
