G04 #@! TF.GenerationSoftware,KiCad,Pcbnew,(5.1.4)-1*
G04 #@! TF.CreationDate,2024-07-18T00:41:49-04:00*
G04 #@! TF.ProjectId,ai03-pcb-guide,61693033-2d70-4636-922d-67756964652e,rev?*
G04 #@! TF.SameCoordinates,Original*
G04 #@! TF.FileFunction,Copper,L2,Bot*
G04 #@! TF.FilePolarity,Positive*
%FSLAX46Y46*%
G04 Gerber Fmt 4.6, Leading zero omitted, Abs format (unit mm)*
G04 Created by KiCad (PCBNEW (5.1.4)-1) date 2024-07-18 00:41:49*
%MOMM*%
%LPD*%
G04 APERTURE LIST*
%ADD10C,2.250000*%
%ADD11C,1.905000*%
%ADD12R,1.905000X1.905000*%
%ADD13R,1.400000X1.200000*%
%ADD14R,0.500000X2.250000*%
%ADD15O,1.700000X2.700000*%
%ADD16R,0.550000X1.500000*%
%ADD17R,1.500000X0.550000*%
%ADD18R,1.800000X1.100000*%
%ADD19C,0.100000*%
%ADD20C,0.975000*%
%ADD21C,1.250000*%
%ADD22R,1.200000X0.900000*%
%ADD23C,0.800000*%
%ADD24C,0.381000*%
%ADD25C,0.254000*%
G04 APERTURE END LIST*
D10*
X126365000Y-28257500D03*
X120015000Y-30797500D03*
D11*
X122555000Y-38417500D03*
D12*
X125095000Y-38417500D03*
D13*
X85004000Y-30783000D03*
X82804000Y-30783000D03*
X82804000Y-29083000D03*
X85004000Y-29083000D03*
D14*
X63037500Y-30027000D03*
X62237500Y-30027000D03*
X61437500Y-30027000D03*
X60637500Y-30027000D03*
X59837500Y-30027000D03*
D15*
X57787500Y-30027000D03*
X65087500Y-30027000D03*
X65087500Y-25527000D03*
X57787500Y-25527000D03*
D16*
X79343750Y-50150000D03*
X80143750Y-50150000D03*
X80943750Y-50150000D03*
X81743750Y-50150000D03*
X82543750Y-50150000D03*
X83343750Y-50150000D03*
X84143750Y-50150000D03*
X84943750Y-50150000D03*
X85743750Y-50150000D03*
X86543750Y-50150000D03*
X87343750Y-50150000D03*
D17*
X89043750Y-48450000D03*
X89043750Y-47650000D03*
X89043750Y-46850000D03*
X89043750Y-46050000D03*
X89043750Y-45250000D03*
X89043750Y-44450000D03*
X89043750Y-43650000D03*
X89043750Y-42850000D03*
X89043750Y-42050000D03*
X89043750Y-41250000D03*
X89043750Y-40450000D03*
D16*
X87343750Y-38750000D03*
X86543750Y-38750000D03*
X85743750Y-38750000D03*
X84943750Y-38750000D03*
X84143750Y-38750000D03*
X83343750Y-38750000D03*
X82543750Y-38750000D03*
X81743750Y-38750000D03*
X80943750Y-38750000D03*
X80143750Y-38750000D03*
X79343750Y-38750000D03*
D17*
X77643750Y-40450000D03*
X77643750Y-41250000D03*
X77643750Y-42050000D03*
X77643750Y-42850000D03*
X77643750Y-43650000D03*
X77643750Y-44450000D03*
X77643750Y-45250000D03*
X77643750Y-46050000D03*
X77643750Y-46850000D03*
X77643750Y-47650000D03*
X77643750Y-48450000D03*
D18*
X57554000Y-53611000D03*
X63754000Y-49911000D03*
X57554000Y-49911000D03*
X63754000Y-53611000D03*
D19*
G36*
X93348892Y-47644924D02*
G01*
X93372553Y-47648434D01*
X93395757Y-47654246D01*
X93418279Y-47662304D01*
X93439903Y-47672532D01*
X93460420Y-47684829D01*
X93479633Y-47699079D01*
X93497357Y-47715143D01*
X93513421Y-47732867D01*
X93527671Y-47752080D01*
X93539968Y-47772597D01*
X93550196Y-47794221D01*
X93558254Y-47816743D01*
X93564066Y-47839947D01*
X93567576Y-47863608D01*
X93568750Y-47887500D01*
X93568750Y-48375000D01*
X93567576Y-48398892D01*
X93564066Y-48422553D01*
X93558254Y-48445757D01*
X93550196Y-48468279D01*
X93539968Y-48489903D01*
X93527671Y-48510420D01*
X93513421Y-48529633D01*
X93497357Y-48547357D01*
X93479633Y-48563421D01*
X93460420Y-48577671D01*
X93439903Y-48589968D01*
X93418279Y-48600196D01*
X93395757Y-48608254D01*
X93372553Y-48614066D01*
X93348892Y-48617576D01*
X93325000Y-48618750D01*
X92412500Y-48618750D01*
X92388608Y-48617576D01*
X92364947Y-48614066D01*
X92341743Y-48608254D01*
X92319221Y-48600196D01*
X92297597Y-48589968D01*
X92277080Y-48577671D01*
X92257867Y-48563421D01*
X92240143Y-48547357D01*
X92224079Y-48529633D01*
X92209829Y-48510420D01*
X92197532Y-48489903D01*
X92187304Y-48468279D01*
X92179246Y-48445757D01*
X92173434Y-48422553D01*
X92169924Y-48398892D01*
X92168750Y-48375000D01*
X92168750Y-47887500D01*
X92169924Y-47863608D01*
X92173434Y-47839947D01*
X92179246Y-47816743D01*
X92187304Y-47794221D01*
X92197532Y-47772597D01*
X92209829Y-47752080D01*
X92224079Y-47732867D01*
X92240143Y-47715143D01*
X92257867Y-47699079D01*
X92277080Y-47684829D01*
X92297597Y-47672532D01*
X92319221Y-47662304D01*
X92341743Y-47654246D01*
X92364947Y-47648434D01*
X92388608Y-47644924D01*
X92412500Y-47643750D01*
X93325000Y-47643750D01*
X93348892Y-47644924D01*
X93348892Y-47644924D01*
G37*
D20*
X92868750Y-48131250D03*
D19*
G36*
X93348892Y-49519924D02*
G01*
X93372553Y-49523434D01*
X93395757Y-49529246D01*
X93418279Y-49537304D01*
X93439903Y-49547532D01*
X93460420Y-49559829D01*
X93479633Y-49574079D01*
X93497357Y-49590143D01*
X93513421Y-49607867D01*
X93527671Y-49627080D01*
X93539968Y-49647597D01*
X93550196Y-49669221D01*
X93558254Y-49691743D01*
X93564066Y-49714947D01*
X93567576Y-49738608D01*
X93568750Y-49762500D01*
X93568750Y-50250000D01*
X93567576Y-50273892D01*
X93564066Y-50297553D01*
X93558254Y-50320757D01*
X93550196Y-50343279D01*
X93539968Y-50364903D01*
X93527671Y-50385420D01*
X93513421Y-50404633D01*
X93497357Y-50422357D01*
X93479633Y-50438421D01*
X93460420Y-50452671D01*
X93439903Y-50464968D01*
X93418279Y-50475196D01*
X93395757Y-50483254D01*
X93372553Y-50489066D01*
X93348892Y-50492576D01*
X93325000Y-50493750D01*
X92412500Y-50493750D01*
X92388608Y-50492576D01*
X92364947Y-50489066D01*
X92341743Y-50483254D01*
X92319221Y-50475196D01*
X92297597Y-50464968D01*
X92277080Y-50452671D01*
X92257867Y-50438421D01*
X92240143Y-50422357D01*
X92224079Y-50404633D01*
X92209829Y-50385420D01*
X92197532Y-50364903D01*
X92187304Y-50343279D01*
X92179246Y-50320757D01*
X92173434Y-50297553D01*
X92169924Y-50273892D01*
X92168750Y-50250000D01*
X92168750Y-49762500D01*
X92169924Y-49738608D01*
X92173434Y-49714947D01*
X92179246Y-49691743D01*
X92187304Y-49669221D01*
X92197532Y-49647597D01*
X92209829Y-49627080D01*
X92224079Y-49607867D01*
X92240143Y-49590143D01*
X92257867Y-49574079D01*
X92277080Y-49559829D01*
X92297597Y-49547532D01*
X92319221Y-49537304D01*
X92341743Y-49529246D01*
X92364947Y-49523434D01*
X92388608Y-49519924D01*
X92412500Y-49518750D01*
X93325000Y-49518750D01*
X93348892Y-49519924D01*
X93348892Y-49519924D01*
G37*
D20*
X92868750Y-50006250D03*
D19*
G36*
X60170142Y-33706674D02*
G01*
X60193803Y-33710184D01*
X60217007Y-33715996D01*
X60239529Y-33724054D01*
X60261153Y-33734282D01*
X60281670Y-33746579D01*
X60300883Y-33760829D01*
X60318607Y-33776893D01*
X60334671Y-33794617D01*
X60348921Y-33813830D01*
X60361218Y-33834347D01*
X60371446Y-33855971D01*
X60379504Y-33878493D01*
X60385316Y-33901697D01*
X60388826Y-33925358D01*
X60390000Y-33949250D01*
X60390000Y-34436750D01*
X60388826Y-34460642D01*
X60385316Y-34484303D01*
X60379504Y-34507507D01*
X60371446Y-34530029D01*
X60361218Y-34551653D01*
X60348921Y-34572170D01*
X60334671Y-34591383D01*
X60318607Y-34609107D01*
X60300883Y-34625171D01*
X60281670Y-34639421D01*
X60261153Y-34651718D01*
X60239529Y-34661946D01*
X60217007Y-34670004D01*
X60193803Y-34675816D01*
X60170142Y-34679326D01*
X60146250Y-34680500D01*
X59233750Y-34680500D01*
X59209858Y-34679326D01*
X59186197Y-34675816D01*
X59162993Y-34670004D01*
X59140471Y-34661946D01*
X59118847Y-34651718D01*
X59098330Y-34639421D01*
X59079117Y-34625171D01*
X59061393Y-34609107D01*
X59045329Y-34591383D01*
X59031079Y-34572170D01*
X59018782Y-34551653D01*
X59008554Y-34530029D01*
X59000496Y-34507507D01*
X58994684Y-34484303D01*
X58991174Y-34460642D01*
X58990000Y-34436750D01*
X58990000Y-33949250D01*
X58991174Y-33925358D01*
X58994684Y-33901697D01*
X59000496Y-33878493D01*
X59008554Y-33855971D01*
X59018782Y-33834347D01*
X59031079Y-33813830D01*
X59045329Y-33794617D01*
X59061393Y-33776893D01*
X59079117Y-33760829D01*
X59098330Y-33746579D01*
X59118847Y-33734282D01*
X59140471Y-33724054D01*
X59162993Y-33715996D01*
X59186197Y-33710184D01*
X59209858Y-33706674D01*
X59233750Y-33705500D01*
X60146250Y-33705500D01*
X60170142Y-33706674D01*
X60170142Y-33706674D01*
G37*
D20*
X59690000Y-34193000D03*
D19*
G36*
X60170142Y-35581674D02*
G01*
X60193803Y-35585184D01*
X60217007Y-35590996D01*
X60239529Y-35599054D01*
X60261153Y-35609282D01*
X60281670Y-35621579D01*
X60300883Y-35635829D01*
X60318607Y-35651893D01*
X60334671Y-35669617D01*
X60348921Y-35688830D01*
X60361218Y-35709347D01*
X60371446Y-35730971D01*
X60379504Y-35753493D01*
X60385316Y-35776697D01*
X60388826Y-35800358D01*
X60390000Y-35824250D01*
X60390000Y-36311750D01*
X60388826Y-36335642D01*
X60385316Y-36359303D01*
X60379504Y-36382507D01*
X60371446Y-36405029D01*
X60361218Y-36426653D01*
X60348921Y-36447170D01*
X60334671Y-36466383D01*
X60318607Y-36484107D01*
X60300883Y-36500171D01*
X60281670Y-36514421D01*
X60261153Y-36526718D01*
X60239529Y-36536946D01*
X60217007Y-36545004D01*
X60193803Y-36550816D01*
X60170142Y-36554326D01*
X60146250Y-36555500D01*
X59233750Y-36555500D01*
X59209858Y-36554326D01*
X59186197Y-36550816D01*
X59162993Y-36545004D01*
X59140471Y-36536946D01*
X59118847Y-36526718D01*
X59098330Y-36514421D01*
X59079117Y-36500171D01*
X59061393Y-36484107D01*
X59045329Y-36466383D01*
X59031079Y-36447170D01*
X59018782Y-36426653D01*
X59008554Y-36405029D01*
X59000496Y-36382507D01*
X58994684Y-36359303D01*
X58991174Y-36335642D01*
X58990000Y-36311750D01*
X58990000Y-35824250D01*
X58991174Y-35800358D01*
X58994684Y-35776697D01*
X59000496Y-35753493D01*
X59008554Y-35730971D01*
X59018782Y-35709347D01*
X59031079Y-35688830D01*
X59045329Y-35669617D01*
X59061393Y-35651893D01*
X59079117Y-35635829D01*
X59098330Y-35621579D01*
X59118847Y-35609282D01*
X59140471Y-35599054D01*
X59162993Y-35590996D01*
X59186197Y-35585184D01*
X59209858Y-35581674D01*
X59233750Y-35580500D01*
X60146250Y-35580500D01*
X60170142Y-35581674D01*
X60170142Y-35581674D01*
G37*
D20*
X59690000Y-36068000D03*
D19*
G36*
X62964142Y-33676674D02*
G01*
X62987803Y-33680184D01*
X63011007Y-33685996D01*
X63033529Y-33694054D01*
X63055153Y-33704282D01*
X63075670Y-33716579D01*
X63094883Y-33730829D01*
X63112607Y-33746893D01*
X63128671Y-33764617D01*
X63142921Y-33783830D01*
X63155218Y-33804347D01*
X63165446Y-33825971D01*
X63173504Y-33848493D01*
X63179316Y-33871697D01*
X63182826Y-33895358D01*
X63184000Y-33919250D01*
X63184000Y-34406750D01*
X63182826Y-34430642D01*
X63179316Y-34454303D01*
X63173504Y-34477507D01*
X63165446Y-34500029D01*
X63155218Y-34521653D01*
X63142921Y-34542170D01*
X63128671Y-34561383D01*
X63112607Y-34579107D01*
X63094883Y-34595171D01*
X63075670Y-34609421D01*
X63055153Y-34621718D01*
X63033529Y-34631946D01*
X63011007Y-34640004D01*
X62987803Y-34645816D01*
X62964142Y-34649326D01*
X62940250Y-34650500D01*
X62027750Y-34650500D01*
X62003858Y-34649326D01*
X61980197Y-34645816D01*
X61956993Y-34640004D01*
X61934471Y-34631946D01*
X61912847Y-34621718D01*
X61892330Y-34609421D01*
X61873117Y-34595171D01*
X61855393Y-34579107D01*
X61839329Y-34561383D01*
X61825079Y-34542170D01*
X61812782Y-34521653D01*
X61802554Y-34500029D01*
X61794496Y-34477507D01*
X61788684Y-34454303D01*
X61785174Y-34430642D01*
X61784000Y-34406750D01*
X61784000Y-33919250D01*
X61785174Y-33895358D01*
X61788684Y-33871697D01*
X61794496Y-33848493D01*
X61802554Y-33825971D01*
X61812782Y-33804347D01*
X61825079Y-33783830D01*
X61839329Y-33764617D01*
X61855393Y-33746893D01*
X61873117Y-33730829D01*
X61892330Y-33716579D01*
X61912847Y-33704282D01*
X61934471Y-33694054D01*
X61956993Y-33685996D01*
X61980197Y-33680184D01*
X62003858Y-33676674D01*
X62027750Y-33675500D01*
X62940250Y-33675500D01*
X62964142Y-33676674D01*
X62964142Y-33676674D01*
G37*
D20*
X62484000Y-34163000D03*
D19*
G36*
X62964142Y-35551674D02*
G01*
X62987803Y-35555184D01*
X63011007Y-35560996D01*
X63033529Y-35569054D01*
X63055153Y-35579282D01*
X63075670Y-35591579D01*
X63094883Y-35605829D01*
X63112607Y-35621893D01*
X63128671Y-35639617D01*
X63142921Y-35658830D01*
X63155218Y-35679347D01*
X63165446Y-35700971D01*
X63173504Y-35723493D01*
X63179316Y-35746697D01*
X63182826Y-35770358D01*
X63184000Y-35794250D01*
X63184000Y-36281750D01*
X63182826Y-36305642D01*
X63179316Y-36329303D01*
X63173504Y-36352507D01*
X63165446Y-36375029D01*
X63155218Y-36396653D01*
X63142921Y-36417170D01*
X63128671Y-36436383D01*
X63112607Y-36454107D01*
X63094883Y-36470171D01*
X63075670Y-36484421D01*
X63055153Y-36496718D01*
X63033529Y-36506946D01*
X63011007Y-36515004D01*
X62987803Y-36520816D01*
X62964142Y-36524326D01*
X62940250Y-36525500D01*
X62027750Y-36525500D01*
X62003858Y-36524326D01*
X61980197Y-36520816D01*
X61956993Y-36515004D01*
X61934471Y-36506946D01*
X61912847Y-36496718D01*
X61892330Y-36484421D01*
X61873117Y-36470171D01*
X61855393Y-36454107D01*
X61839329Y-36436383D01*
X61825079Y-36417170D01*
X61812782Y-36396653D01*
X61802554Y-36375029D01*
X61794496Y-36352507D01*
X61788684Y-36329303D01*
X61785174Y-36305642D01*
X61784000Y-36281750D01*
X61784000Y-35794250D01*
X61785174Y-35770358D01*
X61788684Y-35746697D01*
X61794496Y-35723493D01*
X61802554Y-35700971D01*
X61812782Y-35679347D01*
X61825079Y-35658830D01*
X61839329Y-35639617D01*
X61855393Y-35621893D01*
X61873117Y-35605829D01*
X61892330Y-35591579D01*
X61912847Y-35579282D01*
X61934471Y-35569054D01*
X61956993Y-35560996D01*
X61980197Y-35555184D01*
X62003858Y-35551674D01*
X62027750Y-35550500D01*
X62940250Y-35550500D01*
X62964142Y-35551674D01*
X62964142Y-35551674D01*
G37*
D20*
X62484000Y-36038000D03*
D19*
G36*
X74394142Y-31166674D02*
G01*
X74417803Y-31170184D01*
X74441007Y-31175996D01*
X74463529Y-31184054D01*
X74485153Y-31194282D01*
X74505670Y-31206579D01*
X74524883Y-31220829D01*
X74542607Y-31236893D01*
X74558671Y-31254617D01*
X74572921Y-31273830D01*
X74585218Y-31294347D01*
X74595446Y-31315971D01*
X74603504Y-31338493D01*
X74609316Y-31361697D01*
X74612826Y-31385358D01*
X74614000Y-31409250D01*
X74614000Y-31896750D01*
X74612826Y-31920642D01*
X74609316Y-31944303D01*
X74603504Y-31967507D01*
X74595446Y-31990029D01*
X74585218Y-32011653D01*
X74572921Y-32032170D01*
X74558671Y-32051383D01*
X74542607Y-32069107D01*
X74524883Y-32085171D01*
X74505670Y-32099421D01*
X74485153Y-32111718D01*
X74463529Y-32121946D01*
X74441007Y-32130004D01*
X74417803Y-32135816D01*
X74394142Y-32139326D01*
X74370250Y-32140500D01*
X73457750Y-32140500D01*
X73433858Y-32139326D01*
X73410197Y-32135816D01*
X73386993Y-32130004D01*
X73364471Y-32121946D01*
X73342847Y-32111718D01*
X73322330Y-32099421D01*
X73303117Y-32085171D01*
X73285393Y-32069107D01*
X73269329Y-32051383D01*
X73255079Y-32032170D01*
X73242782Y-32011653D01*
X73232554Y-31990029D01*
X73224496Y-31967507D01*
X73218684Y-31944303D01*
X73215174Y-31920642D01*
X73214000Y-31896750D01*
X73214000Y-31409250D01*
X73215174Y-31385358D01*
X73218684Y-31361697D01*
X73224496Y-31338493D01*
X73232554Y-31315971D01*
X73242782Y-31294347D01*
X73255079Y-31273830D01*
X73269329Y-31254617D01*
X73285393Y-31236893D01*
X73303117Y-31220829D01*
X73322330Y-31206579D01*
X73342847Y-31194282D01*
X73364471Y-31184054D01*
X73386993Y-31175996D01*
X73410197Y-31170184D01*
X73433858Y-31166674D01*
X73457750Y-31165500D01*
X74370250Y-31165500D01*
X74394142Y-31166674D01*
X74394142Y-31166674D01*
G37*
D20*
X73914000Y-31653000D03*
D19*
G36*
X74394142Y-33041674D02*
G01*
X74417803Y-33045184D01*
X74441007Y-33050996D01*
X74463529Y-33059054D01*
X74485153Y-33069282D01*
X74505670Y-33081579D01*
X74524883Y-33095829D01*
X74542607Y-33111893D01*
X74558671Y-33129617D01*
X74572921Y-33148830D01*
X74585218Y-33169347D01*
X74595446Y-33190971D01*
X74603504Y-33213493D01*
X74609316Y-33236697D01*
X74612826Y-33260358D01*
X74614000Y-33284250D01*
X74614000Y-33771750D01*
X74612826Y-33795642D01*
X74609316Y-33819303D01*
X74603504Y-33842507D01*
X74595446Y-33865029D01*
X74585218Y-33886653D01*
X74572921Y-33907170D01*
X74558671Y-33926383D01*
X74542607Y-33944107D01*
X74524883Y-33960171D01*
X74505670Y-33974421D01*
X74485153Y-33986718D01*
X74463529Y-33996946D01*
X74441007Y-34005004D01*
X74417803Y-34010816D01*
X74394142Y-34014326D01*
X74370250Y-34015500D01*
X73457750Y-34015500D01*
X73433858Y-34014326D01*
X73410197Y-34010816D01*
X73386993Y-34005004D01*
X73364471Y-33996946D01*
X73342847Y-33986718D01*
X73322330Y-33974421D01*
X73303117Y-33960171D01*
X73285393Y-33944107D01*
X73269329Y-33926383D01*
X73255079Y-33907170D01*
X73242782Y-33886653D01*
X73232554Y-33865029D01*
X73224496Y-33842507D01*
X73218684Y-33819303D01*
X73215174Y-33795642D01*
X73214000Y-33771750D01*
X73214000Y-33284250D01*
X73215174Y-33260358D01*
X73218684Y-33236697D01*
X73224496Y-33213493D01*
X73232554Y-33190971D01*
X73242782Y-33169347D01*
X73255079Y-33148830D01*
X73269329Y-33129617D01*
X73285393Y-33111893D01*
X73303117Y-33095829D01*
X73322330Y-33081579D01*
X73342847Y-33069282D01*
X73364471Y-33059054D01*
X73386993Y-33050996D01*
X73410197Y-33045184D01*
X73433858Y-33041674D01*
X73457750Y-33040500D01*
X74370250Y-33040500D01*
X74394142Y-33041674D01*
X74394142Y-33041674D01*
G37*
D20*
X73914000Y-33528000D03*
D10*
X126365000Y-47307500D03*
X120015000Y-49847500D03*
D11*
X122555000Y-57467500D03*
D12*
X125095000Y-57467500D03*
D10*
X107315000Y-47307500D03*
X100965000Y-49847500D03*
D11*
X103505000Y-57467500D03*
D12*
X106045000Y-57467500D03*
D10*
X107315000Y-28257500D03*
X100965000Y-30797500D03*
D11*
X103505000Y-38417500D03*
D12*
X106045000Y-38417500D03*
D19*
G36*
X53830754Y-39438704D02*
G01*
X53855023Y-39442304D01*
X53878821Y-39448265D01*
X53901921Y-39456530D01*
X53924099Y-39467020D01*
X53945143Y-39479633D01*
X53964848Y-39494247D01*
X53983027Y-39510723D01*
X53999503Y-39528902D01*
X54014117Y-39548607D01*
X54026730Y-39569651D01*
X54037220Y-39591829D01*
X54045485Y-39614929D01*
X54051446Y-39638727D01*
X54055046Y-39662996D01*
X54056250Y-39687500D01*
X54056250Y-40437500D01*
X54055046Y-40462004D01*
X54051446Y-40486273D01*
X54045485Y-40510071D01*
X54037220Y-40533171D01*
X54026730Y-40555349D01*
X54014117Y-40576393D01*
X53999503Y-40596098D01*
X53983027Y-40614277D01*
X53964848Y-40630753D01*
X53945143Y-40645367D01*
X53924099Y-40657980D01*
X53901921Y-40668470D01*
X53878821Y-40676735D01*
X53855023Y-40682696D01*
X53830754Y-40686296D01*
X53806250Y-40687500D01*
X52556250Y-40687500D01*
X52531746Y-40686296D01*
X52507477Y-40682696D01*
X52483679Y-40676735D01*
X52460579Y-40668470D01*
X52438401Y-40657980D01*
X52417357Y-40645367D01*
X52397652Y-40630753D01*
X52379473Y-40614277D01*
X52362997Y-40596098D01*
X52348383Y-40576393D01*
X52335770Y-40555349D01*
X52325280Y-40533171D01*
X52317015Y-40510071D01*
X52311054Y-40486273D01*
X52307454Y-40462004D01*
X52306250Y-40437500D01*
X52306250Y-39687500D01*
X52307454Y-39662996D01*
X52311054Y-39638727D01*
X52317015Y-39614929D01*
X52325280Y-39591829D01*
X52335770Y-39569651D01*
X52348383Y-39548607D01*
X52362997Y-39528902D01*
X52379473Y-39510723D01*
X52397652Y-39494247D01*
X52417357Y-39479633D01*
X52438401Y-39467020D01*
X52460579Y-39456530D01*
X52483679Y-39448265D01*
X52507477Y-39442304D01*
X52531746Y-39438704D01*
X52556250Y-39437500D01*
X53806250Y-39437500D01*
X53830754Y-39438704D01*
X53830754Y-39438704D01*
G37*
D21*
X53181250Y-40062500D03*
D19*
G36*
X53830754Y-42238704D02*
G01*
X53855023Y-42242304D01*
X53878821Y-42248265D01*
X53901921Y-42256530D01*
X53924099Y-42267020D01*
X53945143Y-42279633D01*
X53964848Y-42294247D01*
X53983027Y-42310723D01*
X53999503Y-42328902D01*
X54014117Y-42348607D01*
X54026730Y-42369651D01*
X54037220Y-42391829D01*
X54045485Y-42414929D01*
X54051446Y-42438727D01*
X54055046Y-42462996D01*
X54056250Y-42487500D01*
X54056250Y-43237500D01*
X54055046Y-43262004D01*
X54051446Y-43286273D01*
X54045485Y-43310071D01*
X54037220Y-43333171D01*
X54026730Y-43355349D01*
X54014117Y-43376393D01*
X53999503Y-43396098D01*
X53983027Y-43414277D01*
X53964848Y-43430753D01*
X53945143Y-43445367D01*
X53924099Y-43457980D01*
X53901921Y-43468470D01*
X53878821Y-43476735D01*
X53855023Y-43482696D01*
X53830754Y-43486296D01*
X53806250Y-43487500D01*
X52556250Y-43487500D01*
X52531746Y-43486296D01*
X52507477Y-43482696D01*
X52483679Y-43476735D01*
X52460579Y-43468470D01*
X52438401Y-43457980D01*
X52417357Y-43445367D01*
X52397652Y-43430753D01*
X52379473Y-43414277D01*
X52362997Y-43396098D01*
X52348383Y-43376393D01*
X52335770Y-43355349D01*
X52325280Y-43333171D01*
X52317015Y-43310071D01*
X52311054Y-43286273D01*
X52307454Y-43262004D01*
X52306250Y-43237500D01*
X52306250Y-42487500D01*
X52307454Y-42462996D01*
X52311054Y-42438727D01*
X52317015Y-42414929D01*
X52325280Y-42391829D01*
X52335770Y-42369651D01*
X52348383Y-42348607D01*
X52362997Y-42328902D01*
X52379473Y-42310723D01*
X52397652Y-42294247D01*
X52417357Y-42279633D01*
X52438401Y-42267020D01*
X52460579Y-42256530D01*
X52483679Y-42248265D01*
X52507477Y-42242304D01*
X52531746Y-42238704D01*
X52556250Y-42237500D01*
X53806250Y-42237500D01*
X53830754Y-42238704D01*
X53830754Y-42238704D01*
G37*
D21*
X53181250Y-42862500D03*
D22*
X131762500Y-50737500D03*
X131762500Y-54037500D03*
X112712500Y-50737500D03*
X112712500Y-54037500D03*
X131762500Y-31687500D03*
X131762500Y-34987500D03*
X112712500Y-31687500D03*
X112712500Y-34987500D03*
D19*
G36*
X71600142Y-50489174D02*
G01*
X71623803Y-50492684D01*
X71647007Y-50498496D01*
X71669529Y-50506554D01*
X71691153Y-50516782D01*
X71711670Y-50529079D01*
X71730883Y-50543329D01*
X71748607Y-50559393D01*
X71764671Y-50577117D01*
X71778921Y-50596330D01*
X71791218Y-50616847D01*
X71801446Y-50638471D01*
X71809504Y-50660993D01*
X71815316Y-50684197D01*
X71818826Y-50707858D01*
X71820000Y-50731750D01*
X71820000Y-51219250D01*
X71818826Y-51243142D01*
X71815316Y-51266803D01*
X71809504Y-51290007D01*
X71801446Y-51312529D01*
X71791218Y-51334153D01*
X71778921Y-51354670D01*
X71764671Y-51373883D01*
X71748607Y-51391607D01*
X71730883Y-51407671D01*
X71711670Y-51421921D01*
X71691153Y-51434218D01*
X71669529Y-51444446D01*
X71647007Y-51452504D01*
X71623803Y-51458316D01*
X71600142Y-51461826D01*
X71576250Y-51463000D01*
X70663750Y-51463000D01*
X70639858Y-51461826D01*
X70616197Y-51458316D01*
X70592993Y-51452504D01*
X70570471Y-51444446D01*
X70548847Y-51434218D01*
X70528330Y-51421921D01*
X70509117Y-51407671D01*
X70491393Y-51391607D01*
X70475329Y-51373883D01*
X70461079Y-51354670D01*
X70448782Y-51334153D01*
X70438554Y-51312529D01*
X70430496Y-51290007D01*
X70424684Y-51266803D01*
X70421174Y-51243142D01*
X70420000Y-51219250D01*
X70420000Y-50731750D01*
X70421174Y-50707858D01*
X70424684Y-50684197D01*
X70430496Y-50660993D01*
X70438554Y-50638471D01*
X70448782Y-50616847D01*
X70461079Y-50596330D01*
X70475329Y-50577117D01*
X70491393Y-50559393D01*
X70509117Y-50543329D01*
X70528330Y-50529079D01*
X70548847Y-50516782D01*
X70570471Y-50506554D01*
X70592993Y-50498496D01*
X70616197Y-50492684D01*
X70639858Y-50489174D01*
X70663750Y-50488000D01*
X71576250Y-50488000D01*
X71600142Y-50489174D01*
X71600142Y-50489174D01*
G37*
D20*
X71120000Y-50975500D03*
D19*
G36*
X71600142Y-48614174D02*
G01*
X71623803Y-48617684D01*
X71647007Y-48623496D01*
X71669529Y-48631554D01*
X71691153Y-48641782D01*
X71711670Y-48654079D01*
X71730883Y-48668329D01*
X71748607Y-48684393D01*
X71764671Y-48702117D01*
X71778921Y-48721330D01*
X71791218Y-48741847D01*
X71801446Y-48763471D01*
X71809504Y-48785993D01*
X71815316Y-48809197D01*
X71818826Y-48832858D01*
X71820000Y-48856750D01*
X71820000Y-49344250D01*
X71818826Y-49368142D01*
X71815316Y-49391803D01*
X71809504Y-49415007D01*
X71801446Y-49437529D01*
X71791218Y-49459153D01*
X71778921Y-49479670D01*
X71764671Y-49498883D01*
X71748607Y-49516607D01*
X71730883Y-49532671D01*
X71711670Y-49546921D01*
X71691153Y-49559218D01*
X71669529Y-49569446D01*
X71647007Y-49577504D01*
X71623803Y-49583316D01*
X71600142Y-49586826D01*
X71576250Y-49588000D01*
X70663750Y-49588000D01*
X70639858Y-49586826D01*
X70616197Y-49583316D01*
X70592993Y-49577504D01*
X70570471Y-49569446D01*
X70548847Y-49559218D01*
X70528330Y-49546921D01*
X70509117Y-49532671D01*
X70491393Y-49516607D01*
X70475329Y-49498883D01*
X70461079Y-49479670D01*
X70448782Y-49459153D01*
X70438554Y-49437529D01*
X70430496Y-49415007D01*
X70424684Y-49391803D01*
X70421174Y-49368142D01*
X70420000Y-49344250D01*
X70420000Y-48856750D01*
X70421174Y-48832858D01*
X70424684Y-48809197D01*
X70430496Y-48785993D01*
X70438554Y-48763471D01*
X70448782Y-48741847D01*
X70461079Y-48721330D01*
X70475329Y-48702117D01*
X70491393Y-48684393D01*
X70509117Y-48668329D01*
X70528330Y-48654079D01*
X70548847Y-48641782D01*
X70570471Y-48631554D01*
X70592993Y-48623496D01*
X70616197Y-48617684D01*
X70639858Y-48614174D01*
X70663750Y-48613000D01*
X71576250Y-48613000D01*
X71600142Y-48614174D01*
X71600142Y-48614174D01*
G37*
D20*
X71120000Y-49100500D03*
D19*
G36*
X87580142Y-52482424D02*
G01*
X87603803Y-52485934D01*
X87627007Y-52491746D01*
X87649529Y-52499804D01*
X87671153Y-52510032D01*
X87691670Y-52522329D01*
X87710883Y-52536579D01*
X87728607Y-52552643D01*
X87744671Y-52570367D01*
X87758921Y-52589580D01*
X87771218Y-52610097D01*
X87781446Y-52631721D01*
X87789504Y-52654243D01*
X87795316Y-52677447D01*
X87798826Y-52701108D01*
X87800000Y-52725000D01*
X87800000Y-53637500D01*
X87798826Y-53661392D01*
X87795316Y-53685053D01*
X87789504Y-53708257D01*
X87781446Y-53730779D01*
X87771218Y-53752403D01*
X87758921Y-53772920D01*
X87744671Y-53792133D01*
X87728607Y-53809857D01*
X87710883Y-53825921D01*
X87691670Y-53840171D01*
X87671153Y-53852468D01*
X87649529Y-53862696D01*
X87627007Y-53870754D01*
X87603803Y-53876566D01*
X87580142Y-53880076D01*
X87556250Y-53881250D01*
X87068750Y-53881250D01*
X87044858Y-53880076D01*
X87021197Y-53876566D01*
X86997993Y-53870754D01*
X86975471Y-53862696D01*
X86953847Y-53852468D01*
X86933330Y-53840171D01*
X86914117Y-53825921D01*
X86896393Y-53809857D01*
X86880329Y-53792133D01*
X86866079Y-53772920D01*
X86853782Y-53752403D01*
X86843554Y-53730779D01*
X86835496Y-53708257D01*
X86829684Y-53685053D01*
X86826174Y-53661392D01*
X86825000Y-53637500D01*
X86825000Y-52725000D01*
X86826174Y-52701108D01*
X86829684Y-52677447D01*
X86835496Y-52654243D01*
X86843554Y-52631721D01*
X86853782Y-52610097D01*
X86866079Y-52589580D01*
X86880329Y-52570367D01*
X86896393Y-52552643D01*
X86914117Y-52536579D01*
X86933330Y-52522329D01*
X86953847Y-52510032D01*
X86975471Y-52499804D01*
X86997993Y-52491746D01*
X87021197Y-52485934D01*
X87044858Y-52482424D01*
X87068750Y-52481250D01*
X87556250Y-52481250D01*
X87580142Y-52482424D01*
X87580142Y-52482424D01*
G37*
D20*
X87312500Y-53181250D03*
D19*
G36*
X89455142Y-52482424D02*
G01*
X89478803Y-52485934D01*
X89502007Y-52491746D01*
X89524529Y-52499804D01*
X89546153Y-52510032D01*
X89566670Y-52522329D01*
X89585883Y-52536579D01*
X89603607Y-52552643D01*
X89619671Y-52570367D01*
X89633921Y-52589580D01*
X89646218Y-52610097D01*
X89656446Y-52631721D01*
X89664504Y-52654243D01*
X89670316Y-52677447D01*
X89673826Y-52701108D01*
X89675000Y-52725000D01*
X89675000Y-53637500D01*
X89673826Y-53661392D01*
X89670316Y-53685053D01*
X89664504Y-53708257D01*
X89656446Y-53730779D01*
X89646218Y-53752403D01*
X89633921Y-53772920D01*
X89619671Y-53792133D01*
X89603607Y-53809857D01*
X89585883Y-53825921D01*
X89566670Y-53840171D01*
X89546153Y-53852468D01*
X89524529Y-53862696D01*
X89502007Y-53870754D01*
X89478803Y-53876566D01*
X89455142Y-53880076D01*
X89431250Y-53881250D01*
X88943750Y-53881250D01*
X88919858Y-53880076D01*
X88896197Y-53876566D01*
X88872993Y-53870754D01*
X88850471Y-53862696D01*
X88828847Y-53852468D01*
X88808330Y-53840171D01*
X88789117Y-53825921D01*
X88771393Y-53809857D01*
X88755329Y-53792133D01*
X88741079Y-53772920D01*
X88728782Y-53752403D01*
X88718554Y-53730779D01*
X88710496Y-53708257D01*
X88704684Y-53685053D01*
X88701174Y-53661392D01*
X88700000Y-53637500D01*
X88700000Y-52725000D01*
X88701174Y-52701108D01*
X88704684Y-52677447D01*
X88710496Y-52654243D01*
X88718554Y-52631721D01*
X88728782Y-52610097D01*
X88741079Y-52589580D01*
X88755329Y-52570367D01*
X88771393Y-52552643D01*
X88789117Y-52536579D01*
X88808330Y-52522329D01*
X88828847Y-52510032D01*
X88850471Y-52499804D01*
X88872993Y-52491746D01*
X88896197Y-52485934D01*
X88919858Y-52482424D01*
X88943750Y-52481250D01*
X89431250Y-52481250D01*
X89455142Y-52482424D01*
X89455142Y-52482424D01*
G37*
D20*
X89187500Y-53181250D03*
D19*
G36*
X93348892Y-39994924D02*
G01*
X93372553Y-39998434D01*
X93395757Y-40004246D01*
X93418279Y-40012304D01*
X93439903Y-40022532D01*
X93460420Y-40034829D01*
X93479633Y-40049079D01*
X93497357Y-40065143D01*
X93513421Y-40082867D01*
X93527671Y-40102080D01*
X93539968Y-40122597D01*
X93550196Y-40144221D01*
X93558254Y-40166743D01*
X93564066Y-40189947D01*
X93567576Y-40213608D01*
X93568750Y-40237500D01*
X93568750Y-40725000D01*
X93567576Y-40748892D01*
X93564066Y-40772553D01*
X93558254Y-40795757D01*
X93550196Y-40818279D01*
X93539968Y-40839903D01*
X93527671Y-40860420D01*
X93513421Y-40879633D01*
X93497357Y-40897357D01*
X93479633Y-40913421D01*
X93460420Y-40927671D01*
X93439903Y-40939968D01*
X93418279Y-40950196D01*
X93395757Y-40958254D01*
X93372553Y-40964066D01*
X93348892Y-40967576D01*
X93325000Y-40968750D01*
X92412500Y-40968750D01*
X92388608Y-40967576D01*
X92364947Y-40964066D01*
X92341743Y-40958254D01*
X92319221Y-40950196D01*
X92297597Y-40939968D01*
X92277080Y-40927671D01*
X92257867Y-40913421D01*
X92240143Y-40897357D01*
X92224079Y-40879633D01*
X92209829Y-40860420D01*
X92197532Y-40839903D01*
X92187304Y-40818279D01*
X92179246Y-40795757D01*
X92173434Y-40772553D01*
X92169924Y-40748892D01*
X92168750Y-40725000D01*
X92168750Y-40237500D01*
X92169924Y-40213608D01*
X92173434Y-40189947D01*
X92179246Y-40166743D01*
X92187304Y-40144221D01*
X92197532Y-40122597D01*
X92209829Y-40102080D01*
X92224079Y-40082867D01*
X92240143Y-40065143D01*
X92257867Y-40049079D01*
X92277080Y-40034829D01*
X92297597Y-40022532D01*
X92319221Y-40012304D01*
X92341743Y-40004246D01*
X92364947Y-39998434D01*
X92388608Y-39994924D01*
X92412500Y-39993750D01*
X93325000Y-39993750D01*
X93348892Y-39994924D01*
X93348892Y-39994924D01*
G37*
D20*
X92868750Y-40481250D03*
D19*
G36*
X93348892Y-41869924D02*
G01*
X93372553Y-41873434D01*
X93395757Y-41879246D01*
X93418279Y-41887304D01*
X93439903Y-41897532D01*
X93460420Y-41909829D01*
X93479633Y-41924079D01*
X93497357Y-41940143D01*
X93513421Y-41957867D01*
X93527671Y-41977080D01*
X93539968Y-41997597D01*
X93550196Y-42019221D01*
X93558254Y-42041743D01*
X93564066Y-42064947D01*
X93567576Y-42088608D01*
X93568750Y-42112500D01*
X93568750Y-42600000D01*
X93567576Y-42623892D01*
X93564066Y-42647553D01*
X93558254Y-42670757D01*
X93550196Y-42693279D01*
X93539968Y-42714903D01*
X93527671Y-42735420D01*
X93513421Y-42754633D01*
X93497357Y-42772357D01*
X93479633Y-42788421D01*
X93460420Y-42802671D01*
X93439903Y-42814968D01*
X93418279Y-42825196D01*
X93395757Y-42833254D01*
X93372553Y-42839066D01*
X93348892Y-42842576D01*
X93325000Y-42843750D01*
X92412500Y-42843750D01*
X92388608Y-42842576D01*
X92364947Y-42839066D01*
X92341743Y-42833254D01*
X92319221Y-42825196D01*
X92297597Y-42814968D01*
X92277080Y-42802671D01*
X92257867Y-42788421D01*
X92240143Y-42772357D01*
X92224079Y-42754633D01*
X92209829Y-42735420D01*
X92197532Y-42714903D01*
X92187304Y-42693279D01*
X92179246Y-42670757D01*
X92173434Y-42647553D01*
X92169924Y-42623892D01*
X92168750Y-42600000D01*
X92168750Y-42112500D01*
X92169924Y-42088608D01*
X92173434Y-42064947D01*
X92179246Y-42041743D01*
X92187304Y-42019221D01*
X92197532Y-41997597D01*
X92209829Y-41977080D01*
X92224079Y-41957867D01*
X92240143Y-41940143D01*
X92257867Y-41924079D01*
X92277080Y-41909829D01*
X92297597Y-41897532D01*
X92319221Y-41887304D01*
X92341743Y-41879246D01*
X92364947Y-41873434D01*
X92388608Y-41869924D01*
X92412500Y-41868750D01*
X93325000Y-41868750D01*
X93348892Y-41869924D01*
X93348892Y-41869924D01*
G37*
D20*
X92868750Y-42356250D03*
D19*
G36*
X77219892Y-33773674D02*
G01*
X77243553Y-33777184D01*
X77266757Y-33782996D01*
X77289279Y-33791054D01*
X77310903Y-33801282D01*
X77331420Y-33813579D01*
X77350633Y-33827829D01*
X77368357Y-33843893D01*
X77384421Y-33861617D01*
X77398671Y-33880830D01*
X77410968Y-33901347D01*
X77421196Y-33922971D01*
X77429254Y-33945493D01*
X77435066Y-33968697D01*
X77438576Y-33992358D01*
X77439750Y-34016250D01*
X77439750Y-34503750D01*
X77438576Y-34527642D01*
X77435066Y-34551303D01*
X77429254Y-34574507D01*
X77421196Y-34597029D01*
X77410968Y-34618653D01*
X77398671Y-34639170D01*
X77384421Y-34658383D01*
X77368357Y-34676107D01*
X77350633Y-34692171D01*
X77331420Y-34706421D01*
X77310903Y-34718718D01*
X77289279Y-34728946D01*
X77266757Y-34737004D01*
X77243553Y-34742816D01*
X77219892Y-34746326D01*
X77196000Y-34747500D01*
X76283500Y-34747500D01*
X76259608Y-34746326D01*
X76235947Y-34742816D01*
X76212743Y-34737004D01*
X76190221Y-34728946D01*
X76168597Y-34718718D01*
X76148080Y-34706421D01*
X76128867Y-34692171D01*
X76111143Y-34676107D01*
X76095079Y-34658383D01*
X76080829Y-34639170D01*
X76068532Y-34618653D01*
X76058304Y-34597029D01*
X76050246Y-34574507D01*
X76044434Y-34551303D01*
X76040924Y-34527642D01*
X76039750Y-34503750D01*
X76039750Y-34016250D01*
X76040924Y-33992358D01*
X76044434Y-33968697D01*
X76050246Y-33945493D01*
X76058304Y-33922971D01*
X76068532Y-33901347D01*
X76080829Y-33880830D01*
X76095079Y-33861617D01*
X76111143Y-33843893D01*
X76128867Y-33827829D01*
X76148080Y-33813579D01*
X76168597Y-33801282D01*
X76190221Y-33791054D01*
X76212743Y-33782996D01*
X76235947Y-33777184D01*
X76259608Y-33773674D01*
X76283500Y-33772500D01*
X77196000Y-33772500D01*
X77219892Y-33773674D01*
X77219892Y-33773674D01*
G37*
D20*
X76739750Y-34260000D03*
D19*
G36*
X77219892Y-31898674D02*
G01*
X77243553Y-31902184D01*
X77266757Y-31907996D01*
X77289279Y-31916054D01*
X77310903Y-31926282D01*
X77331420Y-31938579D01*
X77350633Y-31952829D01*
X77368357Y-31968893D01*
X77384421Y-31986617D01*
X77398671Y-32005830D01*
X77410968Y-32026347D01*
X77421196Y-32047971D01*
X77429254Y-32070493D01*
X77435066Y-32093697D01*
X77438576Y-32117358D01*
X77439750Y-32141250D01*
X77439750Y-32628750D01*
X77438576Y-32652642D01*
X77435066Y-32676303D01*
X77429254Y-32699507D01*
X77421196Y-32722029D01*
X77410968Y-32743653D01*
X77398671Y-32764170D01*
X77384421Y-32783383D01*
X77368357Y-32801107D01*
X77350633Y-32817171D01*
X77331420Y-32831421D01*
X77310903Y-32843718D01*
X77289279Y-32853946D01*
X77266757Y-32862004D01*
X77243553Y-32867816D01*
X77219892Y-32871326D01*
X77196000Y-32872500D01*
X76283500Y-32872500D01*
X76259608Y-32871326D01*
X76235947Y-32867816D01*
X76212743Y-32862004D01*
X76190221Y-32853946D01*
X76168597Y-32843718D01*
X76148080Y-32831421D01*
X76128867Y-32817171D01*
X76111143Y-32801107D01*
X76095079Y-32783383D01*
X76080829Y-32764170D01*
X76068532Y-32743653D01*
X76058304Y-32722029D01*
X76050246Y-32699507D01*
X76044434Y-32676303D01*
X76040924Y-32652642D01*
X76039750Y-32628750D01*
X76039750Y-32141250D01*
X76040924Y-32117358D01*
X76044434Y-32093697D01*
X76050246Y-32070493D01*
X76058304Y-32047971D01*
X76068532Y-32026347D01*
X76080829Y-32005830D01*
X76095079Y-31986617D01*
X76111143Y-31968893D01*
X76128867Y-31952829D01*
X76148080Y-31938579D01*
X76168597Y-31926282D01*
X76190221Y-31916054D01*
X76212743Y-31907996D01*
X76235947Y-31902184D01*
X76259608Y-31898674D01*
X76283500Y-31897500D01*
X77196000Y-31897500D01*
X77219892Y-31898674D01*
X77219892Y-31898674D01*
G37*
D20*
X76739750Y-32385000D03*
D19*
G36*
X69893642Y-42100174D02*
G01*
X69917303Y-42103684D01*
X69940507Y-42109496D01*
X69963029Y-42117554D01*
X69984653Y-42127782D01*
X70005170Y-42140079D01*
X70024383Y-42154329D01*
X70042107Y-42170393D01*
X70058171Y-42188117D01*
X70072421Y-42207330D01*
X70084718Y-42227847D01*
X70094946Y-42249471D01*
X70103004Y-42271993D01*
X70108816Y-42295197D01*
X70112326Y-42318858D01*
X70113500Y-42342750D01*
X70113500Y-43255250D01*
X70112326Y-43279142D01*
X70108816Y-43302803D01*
X70103004Y-43326007D01*
X70094946Y-43348529D01*
X70084718Y-43370153D01*
X70072421Y-43390670D01*
X70058171Y-43409883D01*
X70042107Y-43427607D01*
X70024383Y-43443671D01*
X70005170Y-43457921D01*
X69984653Y-43470218D01*
X69963029Y-43480446D01*
X69940507Y-43488504D01*
X69917303Y-43494316D01*
X69893642Y-43497826D01*
X69869750Y-43499000D01*
X69382250Y-43499000D01*
X69358358Y-43497826D01*
X69334697Y-43494316D01*
X69311493Y-43488504D01*
X69288971Y-43480446D01*
X69267347Y-43470218D01*
X69246830Y-43457921D01*
X69227617Y-43443671D01*
X69209893Y-43427607D01*
X69193829Y-43409883D01*
X69179579Y-43390670D01*
X69167282Y-43370153D01*
X69157054Y-43348529D01*
X69148996Y-43326007D01*
X69143184Y-43302803D01*
X69139674Y-43279142D01*
X69138500Y-43255250D01*
X69138500Y-42342750D01*
X69139674Y-42318858D01*
X69143184Y-42295197D01*
X69148996Y-42271993D01*
X69157054Y-42249471D01*
X69167282Y-42227847D01*
X69179579Y-42207330D01*
X69193829Y-42188117D01*
X69209893Y-42170393D01*
X69227617Y-42154329D01*
X69246830Y-42140079D01*
X69267347Y-42127782D01*
X69288971Y-42117554D01*
X69311493Y-42109496D01*
X69334697Y-42103684D01*
X69358358Y-42100174D01*
X69382250Y-42099000D01*
X69869750Y-42099000D01*
X69893642Y-42100174D01*
X69893642Y-42100174D01*
G37*
D20*
X69626000Y-42799000D03*
D19*
G36*
X71768642Y-42100174D02*
G01*
X71792303Y-42103684D01*
X71815507Y-42109496D01*
X71838029Y-42117554D01*
X71859653Y-42127782D01*
X71880170Y-42140079D01*
X71899383Y-42154329D01*
X71917107Y-42170393D01*
X71933171Y-42188117D01*
X71947421Y-42207330D01*
X71959718Y-42227847D01*
X71969946Y-42249471D01*
X71978004Y-42271993D01*
X71983816Y-42295197D01*
X71987326Y-42318858D01*
X71988500Y-42342750D01*
X71988500Y-43255250D01*
X71987326Y-43279142D01*
X71983816Y-43302803D01*
X71978004Y-43326007D01*
X71969946Y-43348529D01*
X71959718Y-43370153D01*
X71947421Y-43390670D01*
X71933171Y-43409883D01*
X71917107Y-43427607D01*
X71899383Y-43443671D01*
X71880170Y-43457921D01*
X71859653Y-43470218D01*
X71838029Y-43480446D01*
X71815507Y-43488504D01*
X71792303Y-43494316D01*
X71768642Y-43497826D01*
X71744750Y-43499000D01*
X71257250Y-43499000D01*
X71233358Y-43497826D01*
X71209697Y-43494316D01*
X71186493Y-43488504D01*
X71163971Y-43480446D01*
X71142347Y-43470218D01*
X71121830Y-43457921D01*
X71102617Y-43443671D01*
X71084893Y-43427607D01*
X71068829Y-43409883D01*
X71054579Y-43390670D01*
X71042282Y-43370153D01*
X71032054Y-43348529D01*
X71023996Y-43326007D01*
X71018184Y-43302803D01*
X71014674Y-43279142D01*
X71013500Y-43255250D01*
X71013500Y-42342750D01*
X71014674Y-42318858D01*
X71018184Y-42295197D01*
X71023996Y-42271993D01*
X71032054Y-42249471D01*
X71042282Y-42227847D01*
X71054579Y-42207330D01*
X71068829Y-42188117D01*
X71084893Y-42170393D01*
X71102617Y-42154329D01*
X71121830Y-42140079D01*
X71142347Y-42127782D01*
X71163971Y-42117554D01*
X71186493Y-42109496D01*
X71209697Y-42103684D01*
X71233358Y-42100174D01*
X71257250Y-42099000D01*
X71744750Y-42099000D01*
X71768642Y-42100174D01*
X71768642Y-42100174D01*
G37*
D20*
X71501000Y-42799000D03*
D19*
G36*
X79982142Y-28088674D02*
G01*
X80005803Y-28092184D01*
X80029007Y-28097996D01*
X80051529Y-28106054D01*
X80073153Y-28116282D01*
X80093670Y-28128579D01*
X80112883Y-28142829D01*
X80130607Y-28158893D01*
X80146671Y-28176617D01*
X80160921Y-28195830D01*
X80173218Y-28216347D01*
X80183446Y-28237971D01*
X80191504Y-28260493D01*
X80197316Y-28283697D01*
X80200826Y-28307358D01*
X80202000Y-28331250D01*
X80202000Y-28818750D01*
X80200826Y-28842642D01*
X80197316Y-28866303D01*
X80191504Y-28889507D01*
X80183446Y-28912029D01*
X80173218Y-28933653D01*
X80160921Y-28954170D01*
X80146671Y-28973383D01*
X80130607Y-28991107D01*
X80112883Y-29007171D01*
X80093670Y-29021421D01*
X80073153Y-29033718D01*
X80051529Y-29043946D01*
X80029007Y-29052004D01*
X80005803Y-29057816D01*
X79982142Y-29061326D01*
X79958250Y-29062500D01*
X79045750Y-29062500D01*
X79021858Y-29061326D01*
X78998197Y-29057816D01*
X78974993Y-29052004D01*
X78952471Y-29043946D01*
X78930847Y-29033718D01*
X78910330Y-29021421D01*
X78891117Y-29007171D01*
X78873393Y-28991107D01*
X78857329Y-28973383D01*
X78843079Y-28954170D01*
X78830782Y-28933653D01*
X78820554Y-28912029D01*
X78812496Y-28889507D01*
X78806684Y-28866303D01*
X78803174Y-28842642D01*
X78802000Y-28818750D01*
X78802000Y-28331250D01*
X78803174Y-28307358D01*
X78806684Y-28283697D01*
X78812496Y-28260493D01*
X78820554Y-28237971D01*
X78830782Y-28216347D01*
X78843079Y-28195830D01*
X78857329Y-28176617D01*
X78873393Y-28158893D01*
X78891117Y-28142829D01*
X78910330Y-28128579D01*
X78930847Y-28116282D01*
X78952471Y-28106054D01*
X78974993Y-28097996D01*
X78998197Y-28092184D01*
X79021858Y-28088674D01*
X79045750Y-28087500D01*
X79958250Y-28087500D01*
X79982142Y-28088674D01*
X79982142Y-28088674D01*
G37*
D20*
X79502000Y-28575000D03*
D19*
G36*
X79982142Y-29963674D02*
G01*
X80005803Y-29967184D01*
X80029007Y-29972996D01*
X80051529Y-29981054D01*
X80073153Y-29991282D01*
X80093670Y-30003579D01*
X80112883Y-30017829D01*
X80130607Y-30033893D01*
X80146671Y-30051617D01*
X80160921Y-30070830D01*
X80173218Y-30091347D01*
X80183446Y-30112971D01*
X80191504Y-30135493D01*
X80197316Y-30158697D01*
X80200826Y-30182358D01*
X80202000Y-30206250D01*
X80202000Y-30693750D01*
X80200826Y-30717642D01*
X80197316Y-30741303D01*
X80191504Y-30764507D01*
X80183446Y-30787029D01*
X80173218Y-30808653D01*
X80160921Y-30829170D01*
X80146671Y-30848383D01*
X80130607Y-30866107D01*
X80112883Y-30882171D01*
X80093670Y-30896421D01*
X80073153Y-30908718D01*
X80051529Y-30918946D01*
X80029007Y-30927004D01*
X80005803Y-30932816D01*
X79982142Y-30936326D01*
X79958250Y-30937500D01*
X79045750Y-30937500D01*
X79021858Y-30936326D01*
X78998197Y-30932816D01*
X78974993Y-30927004D01*
X78952471Y-30918946D01*
X78930847Y-30908718D01*
X78910330Y-30896421D01*
X78891117Y-30882171D01*
X78873393Y-30866107D01*
X78857329Y-30848383D01*
X78843079Y-30829170D01*
X78830782Y-30808653D01*
X78820554Y-30787029D01*
X78812496Y-30764507D01*
X78806684Y-30741303D01*
X78803174Y-30717642D01*
X78802000Y-30693750D01*
X78802000Y-30206250D01*
X78803174Y-30182358D01*
X78806684Y-30158697D01*
X78812496Y-30135493D01*
X78820554Y-30112971D01*
X78830782Y-30091347D01*
X78843079Y-30070830D01*
X78857329Y-30051617D01*
X78873393Y-30033893D01*
X78891117Y-30017829D01*
X78910330Y-30003579D01*
X78930847Y-29991282D01*
X78952471Y-29981054D01*
X78974993Y-29972996D01*
X78998197Y-29967184D01*
X79021858Y-29963674D01*
X79045750Y-29962500D01*
X79958250Y-29962500D01*
X79982142Y-29963674D01*
X79982142Y-29963674D01*
G37*
D20*
X79502000Y-30450000D03*
D19*
G36*
X89380142Y-30471674D02*
G01*
X89403803Y-30475184D01*
X89427007Y-30480996D01*
X89449529Y-30489054D01*
X89471153Y-30499282D01*
X89491670Y-30511579D01*
X89510883Y-30525829D01*
X89528607Y-30541893D01*
X89544671Y-30559617D01*
X89558921Y-30578830D01*
X89571218Y-30599347D01*
X89581446Y-30620971D01*
X89589504Y-30643493D01*
X89595316Y-30666697D01*
X89598826Y-30690358D01*
X89600000Y-30714250D01*
X89600000Y-31201750D01*
X89598826Y-31225642D01*
X89595316Y-31249303D01*
X89589504Y-31272507D01*
X89581446Y-31295029D01*
X89571218Y-31316653D01*
X89558921Y-31337170D01*
X89544671Y-31356383D01*
X89528607Y-31374107D01*
X89510883Y-31390171D01*
X89491670Y-31404421D01*
X89471153Y-31416718D01*
X89449529Y-31426946D01*
X89427007Y-31435004D01*
X89403803Y-31440816D01*
X89380142Y-31444326D01*
X89356250Y-31445500D01*
X88443750Y-31445500D01*
X88419858Y-31444326D01*
X88396197Y-31440816D01*
X88372993Y-31435004D01*
X88350471Y-31426946D01*
X88328847Y-31416718D01*
X88308330Y-31404421D01*
X88289117Y-31390171D01*
X88271393Y-31374107D01*
X88255329Y-31356383D01*
X88241079Y-31337170D01*
X88228782Y-31316653D01*
X88218554Y-31295029D01*
X88210496Y-31272507D01*
X88204684Y-31249303D01*
X88201174Y-31225642D01*
X88200000Y-31201750D01*
X88200000Y-30714250D01*
X88201174Y-30690358D01*
X88204684Y-30666697D01*
X88210496Y-30643493D01*
X88218554Y-30620971D01*
X88228782Y-30599347D01*
X88241079Y-30578830D01*
X88255329Y-30559617D01*
X88271393Y-30541893D01*
X88289117Y-30525829D01*
X88308330Y-30511579D01*
X88328847Y-30499282D01*
X88350471Y-30489054D01*
X88372993Y-30480996D01*
X88396197Y-30475184D01*
X88419858Y-30471674D01*
X88443750Y-30470500D01*
X89356250Y-30470500D01*
X89380142Y-30471674D01*
X89380142Y-30471674D01*
G37*
D20*
X88900000Y-30958000D03*
D19*
G36*
X89380142Y-28596674D02*
G01*
X89403803Y-28600184D01*
X89427007Y-28605996D01*
X89449529Y-28614054D01*
X89471153Y-28624282D01*
X89491670Y-28636579D01*
X89510883Y-28650829D01*
X89528607Y-28666893D01*
X89544671Y-28684617D01*
X89558921Y-28703830D01*
X89571218Y-28724347D01*
X89581446Y-28745971D01*
X89589504Y-28768493D01*
X89595316Y-28791697D01*
X89598826Y-28815358D01*
X89600000Y-28839250D01*
X89600000Y-29326750D01*
X89598826Y-29350642D01*
X89595316Y-29374303D01*
X89589504Y-29397507D01*
X89581446Y-29420029D01*
X89571218Y-29441653D01*
X89558921Y-29462170D01*
X89544671Y-29481383D01*
X89528607Y-29499107D01*
X89510883Y-29515171D01*
X89491670Y-29529421D01*
X89471153Y-29541718D01*
X89449529Y-29551946D01*
X89427007Y-29560004D01*
X89403803Y-29565816D01*
X89380142Y-29569326D01*
X89356250Y-29570500D01*
X88443750Y-29570500D01*
X88419858Y-29569326D01*
X88396197Y-29565816D01*
X88372993Y-29560004D01*
X88350471Y-29551946D01*
X88328847Y-29541718D01*
X88308330Y-29529421D01*
X88289117Y-29515171D01*
X88271393Y-29499107D01*
X88255329Y-29481383D01*
X88241079Y-29462170D01*
X88228782Y-29441653D01*
X88218554Y-29420029D01*
X88210496Y-29397507D01*
X88204684Y-29374303D01*
X88201174Y-29350642D01*
X88200000Y-29326750D01*
X88200000Y-28839250D01*
X88201174Y-28815358D01*
X88204684Y-28791697D01*
X88210496Y-28768493D01*
X88218554Y-28745971D01*
X88228782Y-28724347D01*
X88241079Y-28703830D01*
X88255329Y-28684617D01*
X88271393Y-28666893D01*
X88289117Y-28650829D01*
X88308330Y-28636579D01*
X88328847Y-28624282D01*
X88350471Y-28614054D01*
X88372993Y-28605996D01*
X88396197Y-28600184D01*
X88419858Y-28596674D01*
X88443750Y-28595500D01*
X89356250Y-28595500D01*
X89380142Y-28596674D01*
X89380142Y-28596674D01*
G37*
D20*
X88900000Y-29083000D03*
D23*
X75184000Y-32766000D03*
X75184000Y-43561000D03*
X75184000Y-43561000D03*
X75184000Y-47625000D03*
X94488000Y-42545000D03*
X90805000Y-53340000D03*
X65278000Y-49911000D03*
X72517000Y-32258000D03*
D24*
X81743750Y-37619000D02*
X81743750Y-38750000D01*
X79502000Y-31037500D02*
X81743750Y-33279250D01*
X79502000Y-30450000D02*
X79502000Y-31037500D01*
X81077980Y-37001250D02*
X81743750Y-37001250D01*
X76739750Y-32663020D02*
X81077980Y-37001250D01*
X76739750Y-32385000D02*
X76739750Y-32663020D01*
X81743750Y-33279250D02*
X81743750Y-37001250D01*
X81743750Y-37001250D02*
X81743750Y-37619000D01*
X84701098Y-29083000D02*
X85004000Y-29083000D01*
X83001098Y-30783000D02*
X84701098Y-29083000D01*
X82804000Y-30783000D02*
X83001098Y-30783000D01*
X78329000Y-30450000D02*
X79502000Y-30450000D01*
X85004000Y-28102000D02*
X83699000Y-26797000D01*
X85004000Y-29083000D02*
X85004000Y-28102000D01*
X78740000Y-26797000D02*
X77978000Y-27559000D01*
X83699000Y-26797000D02*
X78740000Y-26797000D01*
X77978000Y-27559000D02*
X77978000Y-30099000D01*
X77978000Y-30099000D02*
X78329000Y-30450000D01*
X88900000Y-29083000D02*
X85004000Y-29083000D01*
X86543750Y-52412500D02*
X86543750Y-50150000D01*
X87312500Y-53181250D02*
X86543750Y-52412500D01*
X87312500Y-53181250D02*
X88741250Y-54610000D01*
X88741250Y-54610000D02*
X91567000Y-54610000D01*
X92868750Y-53308250D02*
X92868750Y-50006250D01*
X91567000Y-54610000D02*
X92868750Y-53308250D01*
X70182237Y-43355237D02*
X70182237Y-43385237D01*
X69626000Y-42799000D02*
X70182237Y-43355237D01*
X72047000Y-45250000D02*
X77643750Y-45250000D01*
X70182237Y-43385237D02*
X72047000Y-45250000D01*
X89075000Y-40481250D02*
X89043750Y-40450000D01*
X92868750Y-40481250D02*
X89075000Y-40481250D01*
X56273000Y-53611000D02*
X55245000Y-52583000D01*
X57554000Y-53611000D02*
X56273000Y-53611000D01*
X55245000Y-52583000D02*
X55245000Y-48768000D01*
X55245000Y-48768000D02*
X55753000Y-48260000D01*
X68404500Y-48260000D02*
X71120000Y-50975500D01*
X55753000Y-48260000D02*
X68404500Y-48260000D01*
X79234662Y-52397010D02*
X77483337Y-52397009D01*
X80143750Y-50150000D02*
X80143750Y-51487922D01*
X80143750Y-51487922D02*
X79234662Y-52397010D01*
X77483337Y-52397009D02*
X76043164Y-50956836D01*
X76024500Y-50975500D02*
X71120000Y-50975500D01*
X76043164Y-50956836D02*
X76024500Y-50975500D01*
X63037500Y-31406000D02*
X63037500Y-29900000D01*
X68199000Y-36567500D02*
X63037500Y-31406000D01*
X68199000Y-43688000D02*
X68199000Y-36567500D01*
X72047000Y-45250000D02*
X69761000Y-45250000D01*
X69761000Y-45250000D02*
X68199000Y-43688000D01*
X81743750Y-39881000D02*
X84407750Y-42545000D01*
X81743750Y-38750000D02*
X81743750Y-39881000D01*
X84407750Y-42545000D02*
X86233000Y-42545000D01*
X87912750Y-40450000D02*
X89043750Y-40450000D01*
X86233000Y-42129750D02*
X87912750Y-40450000D01*
X86233000Y-42545000D02*
X86233000Y-42129750D01*
X86233000Y-42545000D02*
X86233000Y-46990000D01*
X86543750Y-47300750D02*
X86543750Y-50150000D01*
X86233000Y-46990000D02*
X86543750Y-47300750D01*
X86233000Y-46990000D02*
X80518000Y-46990000D01*
X80143750Y-47364250D02*
X80143750Y-50150000D01*
X80518000Y-46990000D02*
X80143750Y-47364250D01*
X78778000Y-45250000D02*
X77643750Y-45250000D01*
X80518000Y-46990000D02*
X78778000Y-45250000D01*
D25*
X85004000Y-30783000D02*
X85004000Y-31709000D01*
X83343750Y-33369250D02*
X83343750Y-38750000D01*
X85004000Y-31709000D02*
X83343750Y-33369250D01*
X85179000Y-30958000D02*
X85004000Y-30783000D01*
X88900000Y-30958000D02*
X85179000Y-30958000D01*
X82296000Y-28575000D02*
X82804000Y-29083000D01*
X79502000Y-28575000D02*
X82296000Y-28575000D01*
X82543750Y-37746000D02*
X82543750Y-38750000D01*
X82543750Y-33347382D02*
X82543750Y-37746000D01*
X81776999Y-32580631D02*
X82543750Y-33347382D01*
X81776999Y-29156001D02*
X81776999Y-32580631D01*
X81850000Y-29083000D02*
X81776999Y-29156001D01*
X82804000Y-29083000D02*
X81850000Y-29083000D01*
X73152000Y-44450000D02*
X77643750Y-44450000D01*
X71501000Y-42799000D02*
X73152000Y-44450000D01*
D24*
X80943750Y-37822098D02*
X80943750Y-38750000D01*
X77937889Y-34816237D02*
X80943750Y-37822098D01*
X77295987Y-34816237D02*
X77937889Y-34816237D01*
X76739750Y-34260000D02*
X77295987Y-34816237D01*
X76739750Y-34260000D02*
X76678000Y-34260000D01*
X76678000Y-34260000D02*
X75184000Y-32766000D01*
X77554750Y-43561000D02*
X77643750Y-43650000D01*
X75184000Y-43561000D02*
X77554750Y-43561000D01*
X77618750Y-47625000D02*
X77643750Y-47650000D01*
X75184000Y-47625000D02*
X77618750Y-47625000D01*
X93057500Y-42545000D02*
X92868750Y-42356250D01*
X94488000Y-42545000D02*
X93057500Y-42545000D01*
X89346250Y-53340000D02*
X89187500Y-53181250D01*
X90805000Y-53340000D02*
X89346250Y-53340000D01*
X87343750Y-51337500D02*
X87343750Y-50150000D01*
X89187500Y-53181250D02*
X87343750Y-51337500D01*
X91762500Y-41250000D02*
X89043750Y-41250000D01*
X92868750Y-42356250D02*
X91762500Y-41250000D01*
X69698490Y-47678990D02*
X71120000Y-49100500D01*
X63426990Y-47678990D02*
X69698490Y-47678990D01*
X59306210Y-43558210D02*
X63426990Y-47678990D01*
X53181250Y-42862500D02*
X53876960Y-43558210D01*
X53876960Y-43558210D02*
X59306210Y-43558210D01*
X72595500Y-47625000D02*
X75184000Y-47625000D01*
X71120000Y-49100500D02*
X72595500Y-47625000D01*
X75946000Y-48387000D02*
X75184000Y-47625000D01*
X75946000Y-50038000D02*
X75946000Y-48387000D01*
X79343750Y-50625000D02*
X79375000Y-50656250D01*
X79343750Y-50150000D02*
X79343750Y-50625000D01*
X79375000Y-50656250D02*
X79375000Y-51435000D01*
X79375000Y-51435000D02*
X78994000Y-51816000D01*
X78994000Y-51816000D02*
X77724000Y-51816000D01*
X77724000Y-51816000D02*
X75946000Y-50038000D01*
X75184000Y-32123000D02*
X75184000Y-32766000D01*
X73914000Y-31653000D02*
X74714000Y-31653000D01*
X74714000Y-31653000D02*
X75184000Y-32123000D01*
D25*
X112712500Y-30983500D02*
X112712500Y-31687500D01*
X109986500Y-28257500D02*
X112712500Y-30983500D01*
X107315000Y-28257500D02*
X109986500Y-28257500D01*
X130908500Y-34987500D02*
X129828000Y-36068000D01*
X131762500Y-34987500D02*
X130908500Y-34987500D01*
X113566500Y-34987500D02*
X112712500Y-34987500D01*
X114647000Y-36068000D02*
X113566500Y-34987500D01*
X129828000Y-36068000D02*
X114647000Y-36068000D01*
X112712500Y-35691500D02*
X104335000Y-44069000D01*
X112712500Y-34987500D02*
X112712500Y-35691500D01*
X104335000Y-44069000D02*
X90424000Y-44069000D01*
X90047750Y-43650000D02*
X89043750Y-43650000D01*
X90424000Y-44026250D02*
X90047750Y-43650000D01*
X90424000Y-44069000D02*
X90424000Y-44026250D01*
X131762500Y-30983500D02*
X131762500Y-31687500D01*
X129036500Y-28257500D02*
X131762500Y-30983500D01*
X126365000Y-28257500D02*
X129036500Y-28257500D01*
X112712500Y-50033500D02*
X112712500Y-50737500D01*
X109986500Y-47307500D02*
X112712500Y-50033500D01*
X107315000Y-47307500D02*
X109986500Y-47307500D01*
X130908500Y-54037500D02*
X129701000Y-55245000D01*
X131762500Y-54037500D02*
X130908500Y-54037500D01*
X113566500Y-54037500D02*
X112712500Y-54037500D01*
X114774000Y-55245000D02*
X113566500Y-54037500D01*
X129701000Y-55245000D02*
X114774000Y-55245000D01*
X90473817Y-45466000D02*
X90473817Y-45623933D01*
X112712500Y-54037500D02*
X111858500Y-54037500D01*
X90047750Y-46050000D02*
X89043750Y-46050000D01*
X95941434Y-45466000D02*
X90473817Y-45466000D01*
X111858500Y-54037500D02*
X110524000Y-55372000D01*
X90473817Y-45623933D02*
X90047750Y-46050000D01*
X110524000Y-55372000D02*
X98933000Y-55372000D01*
X98933000Y-55372000D02*
X97282000Y-53721000D01*
X97282000Y-53721000D02*
X97282000Y-46806566D01*
X97282000Y-46806566D02*
X95941434Y-45466000D01*
X131762500Y-50033500D02*
X131762500Y-50737500D01*
X129036500Y-47307500D02*
X131762500Y-50033500D01*
X126365000Y-47307500D02*
X129036500Y-47307500D01*
X53181250Y-40062500D02*
X53181250Y-38639750D01*
X59837500Y-31983500D02*
X59837500Y-29900000D01*
X53181250Y-38639750D02*
X59837500Y-31983500D01*
X100965000Y-49847500D02*
X96094520Y-44977020D01*
X96094520Y-44977020D02*
X90297000Y-44977020D01*
X90047750Y-45250000D02*
X89043750Y-45250000D01*
X90297000Y-45000750D02*
X90047750Y-45250000D01*
X90297000Y-44977020D02*
X90297000Y-45000750D01*
X90047750Y-44450000D02*
X89043750Y-44450000D01*
X90120760Y-44523010D02*
X90047750Y-44450000D01*
X114690510Y-44523010D02*
X90120760Y-44523010D01*
X120015000Y-49847500D02*
X114690510Y-44523010D01*
X63754000Y-49911000D02*
X65278000Y-49911000D01*
X72517000Y-32258000D02*
X72517000Y-33147000D01*
X72898000Y-33528000D02*
X73914000Y-33528000D01*
X72517000Y-33147000D02*
X72898000Y-33528000D01*
X80143750Y-37936398D02*
X80143750Y-38750000D01*
X79037352Y-36830000D02*
X80143750Y-37936398D01*
X76628500Y-36830000D02*
X79037352Y-36830000D01*
X73914000Y-34115500D02*
X76628500Y-36830000D01*
X73914000Y-33528000D02*
X73914000Y-34115500D01*
X61437500Y-33116500D02*
X62484000Y-34163000D01*
X61437500Y-29900000D02*
X61437500Y-33116500D01*
X61393033Y-37716466D02*
X61414010Y-37737443D01*
X62484000Y-36038000D02*
X62484000Y-36625500D01*
X62484000Y-36625500D02*
X61393033Y-37716466D01*
X61414010Y-37737443D02*
X61414010Y-42991944D01*
X61414010Y-42991944D02*
X64577056Y-46154990D01*
X64577056Y-46154990D02*
X76200000Y-46154990D01*
X76304990Y-46050000D02*
X77643750Y-46050000D01*
X76200000Y-46154990D02*
X76304990Y-46050000D01*
X60637500Y-33245500D02*
X59690000Y-34193000D01*
X60637500Y-29900000D02*
X60637500Y-33245500D01*
X59690000Y-36655500D02*
X60960000Y-37925500D01*
X59690000Y-36068000D02*
X59690000Y-36655500D01*
X60960000Y-37925500D02*
X60960000Y-43180000D01*
X60960000Y-43180000D02*
X64389000Y-46609000D01*
X64389000Y-46609000D02*
X76200000Y-46609000D01*
X76441000Y-46850000D02*
X77643750Y-46850000D01*
X76200000Y-46609000D02*
X76441000Y-46850000D01*
X90047750Y-48450000D02*
X89043750Y-48450000D01*
X91750000Y-48450000D02*
X90047750Y-48450000D01*
X92068750Y-48131250D02*
X91750000Y-48450000D01*
X92868750Y-48131250D02*
X92068750Y-48131250D01*
X65087500Y-28423000D02*
X65087500Y-25527000D01*
X65087500Y-30027000D02*
X65087500Y-28423000D01*
X63983500Y-25527000D02*
X57787500Y-25527000D01*
X65087500Y-25527000D02*
X63983500Y-25527000D01*
X57787500Y-27131000D02*
X57787500Y-30027000D01*
X57787500Y-25527000D02*
X57787500Y-27131000D01*
D24*
X56556500Y-25527000D02*
X56007000Y-24977500D01*
X57787500Y-25527000D02*
X56556500Y-25527000D01*
D25*
G36*
X56302500Y-24900000D02*
G01*
X56302500Y-25400000D01*
X57660500Y-25400000D01*
X57660500Y-25380000D01*
X57914500Y-25380000D01*
X57914500Y-25400000D01*
X59272500Y-25400000D01*
X59272500Y-24900000D01*
X59223879Y-24638000D01*
X63651121Y-24638000D01*
X63602500Y-24900000D01*
X63602500Y-25400000D01*
X64960500Y-25400000D01*
X64960500Y-25380000D01*
X65214500Y-25380000D01*
X65214500Y-25400000D01*
X66572500Y-25400000D01*
X66572500Y-24900000D01*
X66523879Y-24638000D01*
X95123000Y-24638000D01*
X95123000Y-41724510D01*
X94978256Y-41627795D01*
X94789898Y-41549774D01*
X94589939Y-41510000D01*
X94386061Y-41510000D01*
X94186102Y-41549774D01*
X94046059Y-41607782D01*
X93948542Y-41488958D01*
X93942186Y-41483742D01*
X94019935Y-41419935D01*
X94099287Y-41323244D01*
X94158252Y-41212930D01*
X94194562Y-41093232D01*
X94206822Y-40968750D01*
X94203750Y-40767000D01*
X94045000Y-40608250D01*
X92995750Y-40608250D01*
X92995750Y-40628250D01*
X92741750Y-40628250D01*
X92741750Y-40608250D01*
X92721750Y-40608250D01*
X92721750Y-40354250D01*
X92741750Y-40354250D01*
X92741750Y-39517500D01*
X92995750Y-39517500D01*
X92995750Y-40354250D01*
X94045000Y-40354250D01*
X94203750Y-40195500D01*
X94206822Y-39993750D01*
X94194562Y-39869268D01*
X94158252Y-39749570D01*
X94099287Y-39639256D01*
X94019935Y-39542565D01*
X93923244Y-39463213D01*
X93812930Y-39404248D01*
X93693232Y-39367938D01*
X93568750Y-39355678D01*
X93154500Y-39358750D01*
X92995750Y-39517500D01*
X92741750Y-39517500D01*
X92583000Y-39358750D01*
X92168750Y-39355678D01*
X92044268Y-39367938D01*
X91924570Y-39404248D01*
X91814256Y-39463213D01*
X91717565Y-39542565D01*
X91638213Y-39639256D01*
X91579248Y-39749570D01*
X91542938Y-39869268D01*
X91530678Y-39993750D01*
X91533750Y-40195500D01*
X91692498Y-40354248D01*
X91533750Y-40354248D01*
X91533750Y-40424500D01*
X90428750Y-40424500D01*
X90428750Y-40322998D01*
X90270002Y-40322998D01*
X90428750Y-40164250D01*
X90418927Y-40047369D01*
X90382015Y-39927855D01*
X90322496Y-39817839D01*
X90242658Y-39721549D01*
X90145568Y-39642684D01*
X90034958Y-39584276D01*
X89915079Y-39548570D01*
X89790537Y-39536936D01*
X89329500Y-39540000D01*
X89170750Y-39698750D01*
X89170750Y-40323000D01*
X89190750Y-40323000D01*
X89190750Y-40336928D01*
X88293750Y-40336928D01*
X88169268Y-40349188D01*
X88049570Y-40385498D01*
X87939256Y-40444463D01*
X87842565Y-40523815D01*
X87763213Y-40620506D01*
X87750833Y-40643667D01*
X87658750Y-40735750D01*
X87668296Y-40849337D01*
X87667938Y-40850518D01*
X87655678Y-40975000D01*
X87655678Y-41525000D01*
X87667938Y-41649482D01*
X87668095Y-41650000D01*
X87667938Y-41650518D01*
X87655678Y-41775000D01*
X87655678Y-42325000D01*
X87667938Y-42449482D01*
X87668095Y-42450000D01*
X87667938Y-42450518D01*
X87655678Y-42575000D01*
X87655678Y-43125000D01*
X87667938Y-43249482D01*
X87668095Y-43250000D01*
X87667938Y-43250518D01*
X87655678Y-43375000D01*
X87655678Y-43925000D01*
X87667938Y-44049482D01*
X87668095Y-44050000D01*
X87667938Y-44050518D01*
X87655678Y-44175000D01*
X87655678Y-44725000D01*
X87667938Y-44849482D01*
X87668095Y-44850000D01*
X87667938Y-44850518D01*
X87655678Y-44975000D01*
X87655678Y-45525000D01*
X87667938Y-45649482D01*
X87668095Y-45650000D01*
X87667938Y-45650518D01*
X87655678Y-45775000D01*
X87655678Y-46325000D01*
X87667938Y-46449482D01*
X87668095Y-46450000D01*
X87667938Y-46450518D01*
X87655678Y-46575000D01*
X87655678Y-47125000D01*
X87667938Y-47249482D01*
X87668095Y-47250000D01*
X87667938Y-47250518D01*
X87655678Y-47375000D01*
X87655678Y-47925000D01*
X87667938Y-48049482D01*
X87668095Y-48050000D01*
X87667938Y-48050518D01*
X87655678Y-48175000D01*
X87655678Y-48725000D01*
X87659712Y-48765962D01*
X87618750Y-48761928D01*
X87068750Y-48761928D01*
X86944268Y-48774188D01*
X86943087Y-48774546D01*
X86829500Y-48765000D01*
X86737417Y-48857083D01*
X86714256Y-48869463D01*
X86617565Y-48948815D01*
X86543750Y-49038759D01*
X86469935Y-48948815D01*
X86373244Y-48869463D01*
X86350083Y-48857083D01*
X86258000Y-48765000D01*
X86144413Y-48774546D01*
X86143232Y-48774188D01*
X86018750Y-48761928D01*
X85468750Y-48761928D01*
X85344268Y-48774188D01*
X85343750Y-48774345D01*
X85343232Y-48774188D01*
X85218750Y-48761928D01*
X84668750Y-48761928D01*
X84544268Y-48774188D01*
X84543750Y-48774345D01*
X84543232Y-48774188D01*
X84418750Y-48761928D01*
X83868750Y-48761928D01*
X83744268Y-48774188D01*
X83743750Y-48774345D01*
X83743232Y-48774188D01*
X83618750Y-48761928D01*
X83068750Y-48761928D01*
X82944268Y-48774188D01*
X82943750Y-48774345D01*
X82943232Y-48774188D01*
X82818750Y-48761928D01*
X82268750Y-48761928D01*
X82144268Y-48774188D01*
X82143750Y-48774345D01*
X82143232Y-48774188D01*
X82018750Y-48761928D01*
X81468750Y-48761928D01*
X81344268Y-48774188D01*
X81343750Y-48774345D01*
X81343232Y-48774188D01*
X81218750Y-48761928D01*
X80668750Y-48761928D01*
X80544268Y-48774188D01*
X80543087Y-48774546D01*
X80429500Y-48765000D01*
X80337417Y-48857083D01*
X80314256Y-48869463D01*
X80217565Y-48948815D01*
X80143750Y-49038759D01*
X80069935Y-48948815D01*
X79973244Y-48869463D01*
X79950083Y-48857083D01*
X79858000Y-48765000D01*
X79744413Y-48774546D01*
X79743232Y-48774188D01*
X79618750Y-48761928D01*
X79068750Y-48761928D01*
X79027788Y-48765962D01*
X79031822Y-48725000D01*
X79031822Y-48175000D01*
X79019562Y-48050518D01*
X79019405Y-48050000D01*
X79019562Y-48049482D01*
X79031822Y-47925000D01*
X79031822Y-47375000D01*
X79019562Y-47250518D01*
X79019405Y-47250000D01*
X79019562Y-47249482D01*
X79031822Y-47125000D01*
X79031822Y-46575000D01*
X79019562Y-46450518D01*
X79019405Y-46450000D01*
X79019562Y-46449482D01*
X79031822Y-46325000D01*
X79031822Y-45775000D01*
X79019562Y-45650518D01*
X79019204Y-45649337D01*
X79028750Y-45535750D01*
X78936667Y-45443667D01*
X78924287Y-45420506D01*
X78844935Y-45323815D01*
X78754991Y-45250000D01*
X78844935Y-45176185D01*
X78924287Y-45079494D01*
X78936667Y-45056333D01*
X79028750Y-44964250D01*
X79019204Y-44850663D01*
X79019562Y-44849482D01*
X79031822Y-44725000D01*
X79031822Y-44175000D01*
X79019562Y-44050518D01*
X79019405Y-44050000D01*
X79019562Y-44049482D01*
X79031822Y-43925000D01*
X79031822Y-43375000D01*
X79019562Y-43250518D01*
X79019405Y-43250000D01*
X79019562Y-43249482D01*
X79031822Y-43125000D01*
X79031822Y-42575000D01*
X79019562Y-42450518D01*
X79019405Y-42450000D01*
X79019562Y-42449482D01*
X79031822Y-42325000D01*
X79031822Y-41775000D01*
X79019562Y-41650518D01*
X79019405Y-41650000D01*
X79019562Y-41649482D01*
X79031822Y-41525000D01*
X79031822Y-40975000D01*
X79019562Y-40850518D01*
X79019405Y-40850000D01*
X79019562Y-40849482D01*
X79031822Y-40725000D01*
X79031822Y-40175000D01*
X79027788Y-40134038D01*
X79068750Y-40138072D01*
X79618750Y-40138072D01*
X79743232Y-40125812D01*
X79743750Y-40125655D01*
X79744268Y-40125812D01*
X79868750Y-40138072D01*
X80418750Y-40138072D01*
X80543232Y-40125812D01*
X80543750Y-40125655D01*
X80544268Y-40125812D01*
X80668750Y-40138072D01*
X81218750Y-40138072D01*
X81343232Y-40125812D01*
X81344413Y-40125454D01*
X81458000Y-40135000D01*
X81550083Y-40042917D01*
X81573244Y-40030537D01*
X81669935Y-39951185D01*
X81743750Y-39861241D01*
X81817565Y-39951185D01*
X81914256Y-40030537D01*
X81937417Y-40042917D01*
X82029500Y-40135000D01*
X82143087Y-40125454D01*
X82144268Y-40125812D01*
X82268750Y-40138072D01*
X82818750Y-40138072D01*
X82943232Y-40125812D01*
X82943750Y-40125655D01*
X82944268Y-40125812D01*
X83068750Y-40138072D01*
X83618750Y-40138072D01*
X83743232Y-40125812D01*
X83743750Y-40125655D01*
X83744268Y-40125812D01*
X83868750Y-40138072D01*
X84418750Y-40138072D01*
X84543232Y-40125812D01*
X84543750Y-40125655D01*
X84544268Y-40125812D01*
X84668750Y-40138072D01*
X85218750Y-40138072D01*
X85343232Y-40125812D01*
X85343750Y-40125655D01*
X85344268Y-40125812D01*
X85468750Y-40138072D01*
X86018750Y-40138072D01*
X86143232Y-40125812D01*
X86143750Y-40125655D01*
X86144268Y-40125812D01*
X86268750Y-40138072D01*
X86818750Y-40138072D01*
X86943232Y-40125812D01*
X86943750Y-40125655D01*
X86944268Y-40125812D01*
X87068750Y-40138072D01*
X87618750Y-40138072D01*
X87661302Y-40133881D01*
X87658750Y-40164250D01*
X87817500Y-40323000D01*
X88916750Y-40323000D01*
X88916750Y-39698750D01*
X88758000Y-39540000D01*
X88296963Y-39536936D01*
X88252778Y-39541064D01*
X88256822Y-39500000D01*
X88256822Y-38000000D01*
X88244562Y-37875518D01*
X88208252Y-37755820D01*
X88149287Y-37645506D01*
X88069935Y-37548815D01*
X87973244Y-37469463D01*
X87862930Y-37410498D01*
X87743232Y-37374188D01*
X87618750Y-37361928D01*
X87068750Y-37361928D01*
X86944268Y-37374188D01*
X86943750Y-37374345D01*
X86943232Y-37374188D01*
X86818750Y-37361928D01*
X86268750Y-37361928D01*
X86144268Y-37374188D01*
X86143750Y-37374345D01*
X86143232Y-37374188D01*
X86018750Y-37361928D01*
X85468750Y-37361928D01*
X85344268Y-37374188D01*
X85343750Y-37374345D01*
X85343232Y-37374188D01*
X85218750Y-37361928D01*
X84668750Y-37361928D01*
X84544268Y-37374188D01*
X84543750Y-37374345D01*
X84543232Y-37374188D01*
X84418750Y-37361928D01*
X84105750Y-37361928D01*
X84105750Y-33684880D01*
X85516352Y-32274279D01*
X85545422Y-32250422D01*
X85640645Y-32134392D01*
X85701216Y-32021072D01*
X85704000Y-32021072D01*
X85828482Y-32008812D01*
X85948180Y-31972502D01*
X86058494Y-31913537D01*
X86155185Y-31834185D01*
X86234537Y-31737494D01*
X86243888Y-31720000D01*
X87733797Y-31720000D01*
X87820208Y-31825292D01*
X87953836Y-31934958D01*
X88106291Y-32016447D01*
X88271715Y-32066628D01*
X88443750Y-32083572D01*
X89356250Y-32083572D01*
X89528285Y-32066628D01*
X89693709Y-32016447D01*
X89846164Y-31934958D01*
X89979792Y-31825292D01*
X90089458Y-31691664D01*
X90170947Y-31539209D01*
X90221128Y-31373785D01*
X90238072Y-31201750D01*
X90238072Y-30714250D01*
X90221128Y-30542215D01*
X90170947Y-30376791D01*
X90089458Y-30224336D01*
X89979792Y-30090708D01*
X89973436Y-30085492D01*
X90051185Y-30021685D01*
X90130537Y-29924994D01*
X90189502Y-29814680D01*
X90225812Y-29694982D01*
X90238072Y-29570500D01*
X90235000Y-29368750D01*
X90076250Y-29210000D01*
X89027000Y-29210000D01*
X89027000Y-29230000D01*
X88773000Y-29230000D01*
X88773000Y-29210000D01*
X87723750Y-29210000D01*
X87565000Y-29368750D01*
X87561928Y-29570500D01*
X87574188Y-29694982D01*
X87610498Y-29814680D01*
X87669463Y-29924994D01*
X87748815Y-30021685D01*
X87826564Y-30085492D01*
X87820208Y-30090708D01*
X87733797Y-30196000D01*
X86342072Y-30196000D01*
X86342072Y-30183000D01*
X86329812Y-30058518D01*
X86293502Y-29938820D01*
X86290391Y-29933000D01*
X86293502Y-29927180D01*
X86329812Y-29807482D01*
X86342072Y-29683000D01*
X86339000Y-29368750D01*
X86180250Y-29210000D01*
X85131000Y-29210000D01*
X85131000Y-29230000D01*
X84877000Y-29230000D01*
X84877000Y-29210000D01*
X84857000Y-29210000D01*
X84857000Y-28956000D01*
X84877000Y-28956000D01*
X84877000Y-28006750D01*
X85131000Y-28006750D01*
X85131000Y-28956000D01*
X86180250Y-28956000D01*
X86339000Y-28797250D01*
X86340972Y-28595500D01*
X87561928Y-28595500D01*
X87565000Y-28797250D01*
X87723750Y-28956000D01*
X88773000Y-28956000D01*
X88773000Y-28119250D01*
X89027000Y-28119250D01*
X89027000Y-28956000D01*
X90076250Y-28956000D01*
X90235000Y-28797250D01*
X90238072Y-28595500D01*
X90225812Y-28471018D01*
X90189502Y-28351320D01*
X90130537Y-28241006D01*
X90051185Y-28144315D01*
X89954494Y-28064963D01*
X89844180Y-28005998D01*
X89724482Y-27969688D01*
X89600000Y-27957428D01*
X89185750Y-27960500D01*
X89027000Y-28119250D01*
X88773000Y-28119250D01*
X88614250Y-27960500D01*
X88200000Y-27957428D01*
X88075518Y-27969688D01*
X87955820Y-28005998D01*
X87845506Y-28064963D01*
X87748815Y-28144315D01*
X87669463Y-28241006D01*
X87610498Y-28351320D01*
X87574188Y-28471018D01*
X87561928Y-28595500D01*
X86340972Y-28595500D01*
X86342072Y-28483000D01*
X86329812Y-28358518D01*
X86293502Y-28238820D01*
X86234537Y-28128506D01*
X86155185Y-28031815D01*
X86058494Y-27952463D01*
X85948180Y-27893498D01*
X85828482Y-27857188D01*
X85704000Y-27844928D01*
X85289750Y-27848000D01*
X85131000Y-28006750D01*
X84877000Y-28006750D01*
X84718250Y-27848000D01*
X84304000Y-27844928D01*
X84179518Y-27857188D01*
X84059820Y-27893498D01*
X83949506Y-27952463D01*
X83904000Y-27989809D01*
X83858494Y-27952463D01*
X83748180Y-27893498D01*
X83628482Y-27857188D01*
X83504000Y-27844928D01*
X82514282Y-27844928D01*
X82445378Y-27824026D01*
X82333426Y-27813000D01*
X82333423Y-27813000D01*
X82296000Y-27809314D01*
X82258577Y-27813000D01*
X80668203Y-27813000D01*
X80581792Y-27707708D01*
X80448164Y-27598042D01*
X80295709Y-27516553D01*
X80130285Y-27466372D01*
X79958250Y-27449428D01*
X79045750Y-27449428D01*
X78873715Y-27466372D01*
X78708291Y-27516553D01*
X78555836Y-27598042D01*
X78422208Y-27707708D01*
X78312542Y-27841336D01*
X78231053Y-27993791D01*
X78180872Y-28159215D01*
X78163928Y-28331250D01*
X78163928Y-28818750D01*
X78180872Y-28990785D01*
X78231053Y-29156209D01*
X78312542Y-29308664D01*
X78422208Y-29442292D01*
X78428564Y-29447508D01*
X78350815Y-29511315D01*
X78271463Y-29608006D01*
X78212498Y-29718320D01*
X78176188Y-29838018D01*
X78163928Y-29962500D01*
X78167000Y-30164250D01*
X78325750Y-30323000D01*
X79375000Y-30323000D01*
X79375000Y-30303000D01*
X79629000Y-30303000D01*
X79629000Y-30323000D01*
X80678250Y-30323000D01*
X80837000Y-30164250D01*
X80840072Y-29962500D01*
X80827812Y-29838018D01*
X80791502Y-29718320D01*
X80732537Y-29608006D01*
X80653185Y-29511315D01*
X80575436Y-29447508D01*
X80581792Y-29442292D01*
X80668203Y-29337000D01*
X81014999Y-29337000D01*
X81015000Y-32543198D01*
X81011313Y-32580631D01*
X81026026Y-32730009D01*
X81069598Y-32873646D01*
X81140354Y-33006023D01*
X81203884Y-33083434D01*
X81235578Y-33122053D01*
X81264648Y-33145910D01*
X81781750Y-33663012D01*
X81781751Y-37592455D01*
X81748883Y-37632505D01*
X81710103Y-37504664D01*
X81633449Y-37361256D01*
X81530291Y-37235557D01*
X81498791Y-37209706D01*
X78550287Y-34261203D01*
X78524430Y-34229696D01*
X78398731Y-34126538D01*
X78255323Y-34049884D01*
X78099715Y-34002681D01*
X78076258Y-34000371D01*
X78060878Y-33844215D01*
X78010697Y-33678791D01*
X77929208Y-33526336D01*
X77819542Y-33392708D01*
X77813186Y-33387492D01*
X77890935Y-33323685D01*
X77970287Y-33226994D01*
X78029252Y-33116680D01*
X78065562Y-32996982D01*
X78077822Y-32872500D01*
X78074750Y-32670750D01*
X77916000Y-32512000D01*
X76866750Y-32512000D01*
X76866750Y-32532000D01*
X76612750Y-32532000D01*
X76612750Y-32512000D01*
X76592750Y-32512000D01*
X76592750Y-32258000D01*
X76612750Y-32258000D01*
X76612750Y-31421250D01*
X76866750Y-31421250D01*
X76866750Y-32258000D01*
X77916000Y-32258000D01*
X78074750Y-32099250D01*
X78077822Y-31897500D01*
X78065562Y-31773018D01*
X78029252Y-31653320D01*
X77970287Y-31543006D01*
X77890935Y-31446315D01*
X77794244Y-31366963D01*
X77683930Y-31307998D01*
X77564232Y-31271688D01*
X77439750Y-31259428D01*
X77025500Y-31262500D01*
X76866750Y-31421250D01*
X76612750Y-31421250D01*
X76454000Y-31262500D01*
X76039750Y-31259428D01*
X75915268Y-31271688D01*
X75795570Y-31307998D01*
X75685256Y-31366963D01*
X75635900Y-31407468D01*
X75326398Y-31097966D01*
X75300541Y-31066459D01*
X75174842Y-30963301D01*
X75126572Y-30937500D01*
X78163928Y-30937500D01*
X78176188Y-31061982D01*
X78212498Y-31181680D01*
X78271463Y-31291994D01*
X78350815Y-31388685D01*
X78447506Y-31468037D01*
X78557820Y-31527002D01*
X78677518Y-31563312D01*
X78802000Y-31575572D01*
X79216250Y-31572500D01*
X79375000Y-31413750D01*
X79375000Y-30577000D01*
X79629000Y-30577000D01*
X79629000Y-31413750D01*
X79787750Y-31572500D01*
X80202000Y-31575572D01*
X80326482Y-31563312D01*
X80446180Y-31527002D01*
X80556494Y-31468037D01*
X80653185Y-31388685D01*
X80732537Y-31291994D01*
X80791502Y-31181680D01*
X80827812Y-31061982D01*
X80840072Y-30937500D01*
X80837000Y-30735750D01*
X80678250Y-30577000D01*
X79629000Y-30577000D01*
X79375000Y-30577000D01*
X78325750Y-30577000D01*
X78167000Y-30735750D01*
X78163928Y-30937500D01*
X75126572Y-30937500D01*
X75107805Y-30927469D01*
X75103458Y-30919336D01*
X74993792Y-30785708D01*
X74860164Y-30676042D01*
X74707709Y-30594553D01*
X74542285Y-30544372D01*
X74370250Y-30527428D01*
X73457750Y-30527428D01*
X73285715Y-30544372D01*
X73120291Y-30594553D01*
X72967836Y-30676042D01*
X72834208Y-30785708D01*
X72724542Y-30919336D01*
X72643053Y-31071791D01*
X72597184Y-31223000D01*
X72415061Y-31223000D01*
X72215102Y-31262774D01*
X72026744Y-31340795D01*
X71857226Y-31454063D01*
X71713063Y-31598226D01*
X71599795Y-31767744D01*
X71521774Y-31956102D01*
X71482000Y-32156061D01*
X71482000Y-32359939D01*
X71521774Y-32559898D01*
X71599795Y-32748256D01*
X71713063Y-32917774D01*
X71755000Y-32959711D01*
X71755000Y-33109577D01*
X71751314Y-33147000D01*
X71755000Y-33184423D01*
X71755000Y-33184426D01*
X71759178Y-33226842D01*
X71766027Y-33296378D01*
X71809599Y-33440015D01*
X71880355Y-33572392D01*
X71936167Y-33640398D01*
X71975579Y-33688422D01*
X72004649Y-33712279D01*
X72332716Y-34040346D01*
X72356578Y-34069422D01*
X72472608Y-34164645D01*
X72604985Y-34235402D01*
X72735475Y-34274986D01*
X72834208Y-34395292D01*
X72967836Y-34504958D01*
X73120291Y-34586447D01*
X73285715Y-34636628D01*
X73362098Y-34644151D01*
X73372579Y-34656922D01*
X73401649Y-34680779D01*
X76063216Y-37342346D01*
X76087078Y-37371422D01*
X76147716Y-37421186D01*
X76203107Y-37466645D01*
X76265711Y-37500107D01*
X76335485Y-37537402D01*
X76479122Y-37580974D01*
X76591074Y-37592000D01*
X76591077Y-37592000D01*
X76628500Y-37595686D01*
X76665923Y-37592000D01*
X78582124Y-37592000D01*
X78538213Y-37645506D01*
X78479248Y-37755820D01*
X78442938Y-37875518D01*
X78430678Y-38000000D01*
X78430678Y-39500000D01*
X78434712Y-39540962D01*
X78393750Y-39536928D01*
X76893750Y-39536928D01*
X76769268Y-39549188D01*
X76649570Y-39585498D01*
X76539256Y-39644463D01*
X76442565Y-39723815D01*
X76363213Y-39820506D01*
X76304248Y-39930820D01*
X76267938Y-40050518D01*
X76255678Y-40175000D01*
X76255678Y-40725000D01*
X76267938Y-40849482D01*
X76268095Y-40850000D01*
X76267938Y-40850518D01*
X76255678Y-40975000D01*
X76255678Y-41525000D01*
X76267938Y-41649482D01*
X76268095Y-41650000D01*
X76267938Y-41650518D01*
X76255678Y-41775000D01*
X76255678Y-42325000D01*
X76267938Y-42449482D01*
X76268095Y-42450000D01*
X76267938Y-42450518D01*
X76255678Y-42575000D01*
X76255678Y-42735500D01*
X75811503Y-42735500D01*
X75674256Y-42643795D01*
X75485898Y-42565774D01*
X75285939Y-42526000D01*
X75082061Y-42526000D01*
X74882102Y-42565774D01*
X74693744Y-42643795D01*
X74524226Y-42757063D01*
X74380063Y-42901226D01*
X74266795Y-43070744D01*
X74188774Y-43259102D01*
X74149000Y-43459061D01*
X74149000Y-43662939D01*
X74153985Y-43688000D01*
X73467630Y-43688000D01*
X72626572Y-42846942D01*
X72626572Y-42342750D01*
X72609628Y-42170715D01*
X72559447Y-42005291D01*
X72477958Y-41852836D01*
X72368292Y-41719208D01*
X72234664Y-41609542D01*
X72082209Y-41528053D01*
X71916785Y-41477872D01*
X71744750Y-41460928D01*
X71257250Y-41460928D01*
X71085215Y-41477872D01*
X70919791Y-41528053D01*
X70767336Y-41609542D01*
X70633708Y-41719208D01*
X70628492Y-41725564D01*
X70564685Y-41647815D01*
X70467994Y-41568463D01*
X70357680Y-41509498D01*
X70237982Y-41473188D01*
X70113500Y-41460928D01*
X69911750Y-41464000D01*
X69753000Y-41622750D01*
X69753000Y-42672000D01*
X69773000Y-42672000D01*
X69773000Y-42926000D01*
X69753000Y-42926000D01*
X69753000Y-43975250D01*
X69911750Y-44134000D01*
X70113500Y-44137072D01*
X70237982Y-44124812D01*
X70357680Y-44088502D01*
X70467994Y-44029537D01*
X70564685Y-43950185D01*
X70628492Y-43872436D01*
X70633708Y-43878792D01*
X70767336Y-43988458D01*
X70919791Y-44069947D01*
X71085215Y-44120128D01*
X71257250Y-44137072D01*
X71744750Y-44137072D01*
X71759945Y-44135575D01*
X72586716Y-44962346D01*
X72610578Y-44991422D01*
X72670512Y-45040608D01*
X72726607Y-45086645D01*
X72794623Y-45123000D01*
X72858985Y-45157402D01*
X73002622Y-45200974D01*
X73114574Y-45212000D01*
X73114577Y-45212000D01*
X73152000Y-45215686D01*
X73189423Y-45212000D01*
X76486206Y-45212000D01*
X76532509Y-45250000D01*
X76486206Y-45288000D01*
X76342412Y-45288000D01*
X76304989Y-45284314D01*
X76267566Y-45288000D01*
X76267564Y-45288000D01*
X76155612Y-45299026D01*
X76011975Y-45342598D01*
X75917698Y-45392990D01*
X64892686Y-45392990D01*
X62998696Y-43499000D01*
X68500428Y-43499000D01*
X68512688Y-43623482D01*
X68548998Y-43743180D01*
X68607963Y-43853494D01*
X68687315Y-43950185D01*
X68784006Y-44029537D01*
X68894320Y-44088502D01*
X69014018Y-44124812D01*
X69138500Y-44137072D01*
X69340250Y-44134000D01*
X69499000Y-43975250D01*
X69499000Y-42926000D01*
X68662250Y-42926000D01*
X68503500Y-43084750D01*
X68500428Y-43499000D01*
X62998696Y-43499000D01*
X62176010Y-42676314D01*
X62176010Y-42099000D01*
X68500428Y-42099000D01*
X68503500Y-42513250D01*
X68662250Y-42672000D01*
X69499000Y-42672000D01*
X69499000Y-41622750D01*
X69340250Y-41464000D01*
X69138500Y-41460928D01*
X69014018Y-41473188D01*
X68894320Y-41509498D01*
X68784006Y-41568463D01*
X68687315Y-41647815D01*
X68607963Y-41744506D01*
X68548998Y-41854820D01*
X68512688Y-41974518D01*
X68500428Y-42099000D01*
X62176010Y-42099000D01*
X62176010Y-38011119D01*
X62996351Y-37190780D01*
X63025422Y-37166922D01*
X63035903Y-37154151D01*
X63112285Y-37146628D01*
X63277709Y-37096447D01*
X63430164Y-37014958D01*
X63563792Y-36905292D01*
X63673458Y-36771664D01*
X63754947Y-36619209D01*
X63805128Y-36453785D01*
X63822072Y-36281750D01*
X63822072Y-35794250D01*
X63805128Y-35622215D01*
X63754947Y-35456791D01*
X63673458Y-35304336D01*
X63563792Y-35170708D01*
X63478244Y-35100500D01*
X63563792Y-35030292D01*
X63673458Y-34896664D01*
X63754947Y-34744209D01*
X63805128Y-34578785D01*
X63822072Y-34406750D01*
X63822072Y-33919250D01*
X63805128Y-33747215D01*
X63754947Y-33581791D01*
X63673458Y-33429336D01*
X63563792Y-33295708D01*
X63430164Y-33186042D01*
X63277709Y-33104553D01*
X63112285Y-33054372D01*
X62940250Y-33037428D01*
X62436058Y-33037428D01*
X62199500Y-32800870D01*
X62199500Y-31790072D01*
X62487500Y-31790072D01*
X62611982Y-31777812D01*
X62636766Y-31770294D01*
X62656139Y-31776404D01*
X62755750Y-31787000D01*
X62914500Y-31628250D01*
X62914500Y-31623033D01*
X62938685Y-31603185D01*
X63018037Y-31506494D01*
X63077002Y-31396180D01*
X63113312Y-31276482D01*
X63125572Y-31152000D01*
X63125572Y-30154000D01*
X63160500Y-30154000D01*
X63160500Y-31628250D01*
X63319250Y-31787000D01*
X63418861Y-31776404D01*
X63538152Y-31738779D01*
X63647811Y-31678604D01*
X63743623Y-31598193D01*
X63821906Y-31500634D01*
X63879443Y-31390082D01*
X63923324Y-31457619D01*
X64127248Y-31666857D01*
X64368074Y-31832291D01*
X64636547Y-31947563D01*
X64730610Y-31968476D01*
X64960500Y-31847155D01*
X64960500Y-30154000D01*
X65214500Y-30154000D01*
X65214500Y-31847155D01*
X65444390Y-31968476D01*
X65538453Y-31947563D01*
X65806926Y-31832291D01*
X66047752Y-31666857D01*
X66251676Y-31457619D01*
X66410861Y-31212618D01*
X66519190Y-30941269D01*
X66572500Y-30654000D01*
X66572500Y-30154000D01*
X65214500Y-30154000D01*
X64960500Y-30154000D01*
X63160500Y-30154000D01*
X63125572Y-30154000D01*
X63125572Y-28902000D01*
X63113312Y-28777518D01*
X63077002Y-28657820D01*
X63018037Y-28547506D01*
X62938685Y-28450815D01*
X62914500Y-28430967D01*
X62914500Y-28425750D01*
X63160500Y-28425750D01*
X63160500Y-29900000D01*
X64960500Y-29900000D01*
X64960500Y-28206845D01*
X65214500Y-28206845D01*
X65214500Y-29900000D01*
X66572500Y-29900000D01*
X66572500Y-29400000D01*
X66519190Y-29112731D01*
X66410861Y-28841382D01*
X66251676Y-28596381D01*
X66047752Y-28387143D01*
X65806926Y-28221709D01*
X65538453Y-28106437D01*
X65444390Y-28085524D01*
X65214500Y-28206845D01*
X64960500Y-28206845D01*
X64730610Y-28085524D01*
X64636547Y-28106437D01*
X64368074Y-28221709D01*
X64127248Y-28387143D01*
X63923324Y-28596381D01*
X63879443Y-28663918D01*
X63821906Y-28553366D01*
X63743623Y-28455807D01*
X63647811Y-28375396D01*
X63538152Y-28315221D01*
X63418861Y-28277596D01*
X63319250Y-28267000D01*
X63160500Y-28425750D01*
X62914500Y-28425750D01*
X62755750Y-28267000D01*
X62656139Y-28277596D01*
X62636766Y-28283706D01*
X62611982Y-28276188D01*
X62487500Y-28263928D01*
X61987500Y-28263928D01*
X61863018Y-28276188D01*
X61837500Y-28283929D01*
X61811982Y-28276188D01*
X61687500Y-28263928D01*
X61187500Y-28263928D01*
X61063018Y-28276188D01*
X61037500Y-28283929D01*
X61011982Y-28276188D01*
X60887500Y-28263928D01*
X60387500Y-28263928D01*
X60263018Y-28276188D01*
X60237500Y-28283929D01*
X60211982Y-28276188D01*
X60087500Y-28263928D01*
X59587500Y-28263928D01*
X59463018Y-28276188D01*
X59343320Y-28312498D01*
X59233006Y-28371463D01*
X59136315Y-28450815D01*
X59056963Y-28547506D01*
X58997998Y-28657820D01*
X58995960Y-28664538D01*
X58951676Y-28596381D01*
X58747752Y-28387143D01*
X58506926Y-28221709D01*
X58238453Y-28106437D01*
X58144390Y-28085524D01*
X57914500Y-28206845D01*
X57914500Y-29900000D01*
X57934500Y-29900000D01*
X57934500Y-30154000D01*
X57914500Y-30154000D01*
X57914500Y-31847155D01*
X58144390Y-31968476D01*
X58238453Y-31947563D01*
X58506926Y-31832291D01*
X58747752Y-31666857D01*
X58951676Y-31457619D01*
X58995960Y-31389462D01*
X58997998Y-31396180D01*
X59056963Y-31506494D01*
X59075500Y-31529082D01*
X59075500Y-31667869D01*
X52668899Y-38074471D01*
X52639829Y-38098328D01*
X52615972Y-38127398D01*
X52615971Y-38127399D01*
X52544605Y-38214358D01*
X52473849Y-38346735D01*
X52430277Y-38490372D01*
X52415564Y-38639750D01*
X52419251Y-38677183D01*
X52419251Y-38812921D01*
X52382996Y-38816492D01*
X52216400Y-38867028D01*
X52062864Y-38949095D01*
X51928288Y-39059538D01*
X51817845Y-39194114D01*
X51735778Y-39347650D01*
X51685242Y-39514246D01*
X51668178Y-39687500D01*
X51668178Y-40437500D01*
X51685242Y-40610754D01*
X51735778Y-40777350D01*
X51817845Y-40930886D01*
X51928288Y-41065462D01*
X52062864Y-41175905D01*
X52216400Y-41257972D01*
X52382996Y-41308508D01*
X52556250Y-41325572D01*
X53806250Y-41325572D01*
X53979504Y-41308508D01*
X54146100Y-41257972D01*
X54299636Y-41175905D01*
X54434212Y-41065462D01*
X54544655Y-40930886D01*
X54626722Y-40777350D01*
X54677258Y-40610754D01*
X54694322Y-40437500D01*
X54694322Y-39687500D01*
X54677258Y-39514246D01*
X54626722Y-39347650D01*
X54544655Y-39194114D01*
X54434212Y-39059538D01*
X54299636Y-38949095D01*
X54146100Y-38867028D01*
X54058251Y-38840379D01*
X58361786Y-34536844D01*
X58368872Y-34608785D01*
X58419053Y-34774209D01*
X58500542Y-34926664D01*
X58610208Y-35060292D01*
X58695756Y-35130500D01*
X58610208Y-35200708D01*
X58500542Y-35334336D01*
X58419053Y-35486791D01*
X58368872Y-35652215D01*
X58351928Y-35824250D01*
X58351928Y-36311750D01*
X58368872Y-36483785D01*
X58419053Y-36649209D01*
X58500542Y-36801664D01*
X58610208Y-36935292D01*
X58743836Y-37044958D01*
X58896291Y-37126447D01*
X59061715Y-37176628D01*
X59138098Y-37184151D01*
X59148579Y-37196922D01*
X59177649Y-37220779D01*
X60198000Y-38241131D01*
X60198001Y-43142567D01*
X60194314Y-43180000D01*
X60205117Y-43289685D01*
X59918608Y-43003176D01*
X59892751Y-42971669D01*
X59767052Y-42868511D01*
X59623644Y-42791857D01*
X59468036Y-42744654D01*
X59346763Y-42732710D01*
X59346760Y-42732710D01*
X59306210Y-42728716D01*
X59265660Y-42732710D01*
X54694322Y-42732710D01*
X54694322Y-42487500D01*
X54677258Y-42314246D01*
X54626722Y-42147650D01*
X54544655Y-41994114D01*
X54434212Y-41859538D01*
X54299636Y-41749095D01*
X54146100Y-41667028D01*
X53979504Y-41616492D01*
X53806250Y-41599428D01*
X52556250Y-41599428D01*
X52382996Y-41616492D01*
X52216400Y-41667028D01*
X52062864Y-41749095D01*
X51928288Y-41859538D01*
X51817845Y-41994114D01*
X51735778Y-42147650D01*
X51685242Y-42314246D01*
X51668178Y-42487500D01*
X51668178Y-43237500D01*
X51685242Y-43410754D01*
X51735778Y-43577350D01*
X51817845Y-43730886D01*
X51928288Y-43865462D01*
X52062864Y-43975905D01*
X52216400Y-44057972D01*
X52382996Y-44108508D01*
X52556250Y-44125572D01*
X53274679Y-44125572D01*
X53290419Y-44144751D01*
X53321915Y-44170599D01*
X53321918Y-44170602D01*
X53416117Y-44247909D01*
X53488587Y-44286645D01*
X53559526Y-44324563D01*
X53715134Y-44371766D01*
X53836407Y-44383710D01*
X53836410Y-44383710D01*
X53876960Y-44387704D01*
X53917510Y-44383710D01*
X58964278Y-44383710D01*
X62814597Y-48234029D01*
X62840449Y-48265531D01*
X62883208Y-48300622D01*
X62966147Y-48368689D01*
X63109556Y-48445343D01*
X63265164Y-48492546D01*
X63386437Y-48504490D01*
X63386439Y-48504490D01*
X63426990Y-48508484D01*
X63467540Y-48504490D01*
X69356558Y-48504490D01*
X69781928Y-48929861D01*
X69781928Y-49344250D01*
X69798872Y-49516285D01*
X69849053Y-49681709D01*
X69930542Y-49834164D01*
X70040208Y-49967792D01*
X70046564Y-49973008D01*
X69968815Y-50036815D01*
X69889463Y-50133506D01*
X69830498Y-50243820D01*
X69794188Y-50363518D01*
X69781928Y-50488000D01*
X69785000Y-50689750D01*
X69943750Y-50848500D01*
X70993000Y-50848500D01*
X70993000Y-50828500D01*
X71247000Y-50828500D01*
X71247000Y-50848500D01*
X72296250Y-50848500D01*
X72455000Y-50689750D01*
X72458072Y-50488000D01*
X72445812Y-50363518D01*
X72409502Y-50243820D01*
X72350537Y-50133506D01*
X72271185Y-50036815D01*
X72193436Y-49973008D01*
X72199792Y-49967792D01*
X72309458Y-49834164D01*
X72390947Y-49681709D01*
X72441128Y-49516285D01*
X72458072Y-49344250D01*
X72458072Y-48929861D01*
X72937433Y-48450500D01*
X74556497Y-48450500D01*
X74693744Y-48542205D01*
X74882102Y-48620226D01*
X75043995Y-48652428D01*
X75120501Y-48728934D01*
X75120500Y-49997449D01*
X75116506Y-50038000D01*
X75120500Y-50078550D01*
X75120500Y-50078552D01*
X75132444Y-50199825D01*
X75136410Y-50212898D01*
X75179647Y-50355433D01*
X75256301Y-50498842D01*
X75263822Y-50508006D01*
X75359459Y-50624541D01*
X75390966Y-50650398D01*
X77111611Y-52371045D01*
X77137459Y-52402541D01*
X77168955Y-52428389D01*
X77168958Y-52428392D01*
X77263157Y-52505699D01*
X77381321Y-52568859D01*
X77406566Y-52582353D01*
X77562174Y-52629556D01*
X77683447Y-52641500D01*
X77683449Y-52641500D01*
X77724000Y-52645494D01*
X77764550Y-52641500D01*
X78953450Y-52641500D01*
X78994000Y-52645494D01*
X79034550Y-52641500D01*
X79034553Y-52641500D01*
X79155826Y-52629556D01*
X79311434Y-52582353D01*
X79454842Y-52505699D01*
X79580541Y-52402541D01*
X79606398Y-52371034D01*
X79930034Y-52047398D01*
X79961541Y-52021541D01*
X80064699Y-51895842D01*
X80141353Y-51752434D01*
X80188556Y-51596826D01*
X80194645Y-51535000D01*
X80270752Y-51535000D01*
X80270752Y-51394834D01*
X80314256Y-51430537D01*
X80337417Y-51442917D01*
X80429500Y-51535000D01*
X80543087Y-51525454D01*
X80544268Y-51525812D01*
X80668750Y-51538072D01*
X81218750Y-51538072D01*
X81343232Y-51525812D01*
X81343750Y-51525655D01*
X81344268Y-51525812D01*
X81468750Y-51538072D01*
X82018750Y-51538072D01*
X82143232Y-51525812D01*
X82143750Y-51525655D01*
X82144268Y-51525812D01*
X82268750Y-51538072D01*
X82818750Y-51538072D01*
X82943232Y-51525812D01*
X82943750Y-51525655D01*
X82944268Y-51525812D01*
X83068750Y-51538072D01*
X83618750Y-51538072D01*
X83743232Y-51525812D01*
X83743750Y-51525655D01*
X83744268Y-51525812D01*
X83868750Y-51538072D01*
X84418750Y-51538072D01*
X84543232Y-51525812D01*
X84543750Y-51525655D01*
X84544268Y-51525812D01*
X84668750Y-51538072D01*
X85218750Y-51538072D01*
X85343232Y-51525812D01*
X85343750Y-51525655D01*
X85344268Y-51525812D01*
X85468750Y-51538072D01*
X86018750Y-51538072D01*
X86143232Y-51525812D01*
X86144413Y-51525454D01*
X86258000Y-51535000D01*
X86350083Y-51442917D01*
X86373244Y-51430537D01*
X86416748Y-51394834D01*
X86416748Y-51535000D01*
X86541016Y-51535000D01*
X86559771Y-51596827D01*
X86577397Y-51654933D01*
X86654051Y-51798342D01*
X86668543Y-51816000D01*
X86700879Y-51855402D01*
X86700518Y-51855438D01*
X86580820Y-51891748D01*
X86470506Y-51950713D01*
X86373815Y-52030065D01*
X86294463Y-52126756D01*
X86235498Y-52237070D01*
X86199188Y-52356768D01*
X86186928Y-52481250D01*
X86190000Y-52895500D01*
X86348750Y-53054250D01*
X87185500Y-53054250D01*
X87185500Y-53034250D01*
X87439500Y-53034250D01*
X87439500Y-53054250D01*
X87459500Y-53054250D01*
X87459500Y-53308250D01*
X87439500Y-53308250D01*
X87439500Y-54357500D01*
X87598250Y-54516250D01*
X87800000Y-54519322D01*
X87924482Y-54507062D01*
X88044180Y-54470752D01*
X88154494Y-54411787D01*
X88251185Y-54332435D01*
X88314992Y-54254686D01*
X88320208Y-54261042D01*
X88453836Y-54370708D01*
X88606291Y-54452197D01*
X88771715Y-54502378D01*
X88943750Y-54519322D01*
X89431250Y-54519322D01*
X89603285Y-54502378D01*
X89768709Y-54452197D01*
X89921164Y-54370708D01*
X90054792Y-54261042D01*
X90133202Y-54165500D01*
X90177497Y-54165500D01*
X90314744Y-54257205D01*
X90503102Y-54335226D01*
X90703061Y-54375000D01*
X90906939Y-54375000D01*
X91106898Y-54335226D01*
X91295256Y-54257205D01*
X91464774Y-54143937D01*
X91608937Y-53999774D01*
X91722205Y-53830256D01*
X91800226Y-53641898D01*
X91840000Y-53441939D01*
X91840000Y-53238061D01*
X91800226Y-53038102D01*
X91722205Y-52849744D01*
X91608937Y-52680226D01*
X91464774Y-52536063D01*
X91295256Y-52422795D01*
X91106898Y-52344774D01*
X90906939Y-52305000D01*
X90703061Y-52305000D01*
X90503102Y-52344774D01*
X90314744Y-52422795D01*
X90266433Y-52455075D01*
X90245947Y-52387541D01*
X90164458Y-52235086D01*
X90054792Y-52101458D01*
X89921164Y-51991792D01*
X89768709Y-51910303D01*
X89603285Y-51860122D01*
X89431250Y-51843178D01*
X89016861Y-51843178D01*
X88233763Y-51060081D01*
X88244562Y-51024482D01*
X88256822Y-50900000D01*
X88256822Y-50493750D01*
X91530678Y-50493750D01*
X91542938Y-50618232D01*
X91579248Y-50737930D01*
X91638213Y-50848244D01*
X91717565Y-50944935D01*
X91814256Y-51024287D01*
X91924570Y-51083252D01*
X92044268Y-51119562D01*
X92168750Y-51131822D01*
X92583000Y-51128750D01*
X92741750Y-50970000D01*
X92741750Y-50133250D01*
X92995750Y-50133250D01*
X92995750Y-50970000D01*
X93154500Y-51128750D01*
X93568750Y-51131822D01*
X93693232Y-51119562D01*
X93812930Y-51083252D01*
X93923244Y-51024287D01*
X94019935Y-50944935D01*
X94099287Y-50848244D01*
X94158252Y-50737930D01*
X94194562Y-50618232D01*
X94206822Y-50493750D01*
X94203750Y-50292000D01*
X94045000Y-50133250D01*
X92995750Y-50133250D01*
X92741750Y-50133250D01*
X91692500Y-50133250D01*
X91533750Y-50292000D01*
X91530678Y-50493750D01*
X88256822Y-50493750D01*
X88256822Y-49400000D01*
X88252788Y-49359038D01*
X88293750Y-49363072D01*
X89793750Y-49363072D01*
X89918232Y-49350812D01*
X90037930Y-49314502D01*
X90148244Y-49255537D01*
X90201294Y-49212000D01*
X91612693Y-49212000D01*
X91579248Y-49274570D01*
X91542938Y-49394268D01*
X91530678Y-49518750D01*
X91533750Y-49720500D01*
X91692500Y-49879250D01*
X92741750Y-49879250D01*
X92741750Y-49859250D01*
X92995750Y-49859250D01*
X92995750Y-49879250D01*
X94045000Y-49879250D01*
X94203750Y-49720500D01*
X94206822Y-49518750D01*
X94194562Y-49394268D01*
X94158252Y-49274570D01*
X94099287Y-49164256D01*
X94019935Y-49067565D01*
X93942186Y-49003758D01*
X93948542Y-48998542D01*
X94058208Y-48864914D01*
X94139697Y-48712459D01*
X94189878Y-48547035D01*
X94206822Y-48375000D01*
X94206822Y-47887500D01*
X94189878Y-47715465D01*
X94139697Y-47550041D01*
X94058208Y-47397586D01*
X93948542Y-47263958D01*
X93814914Y-47154292D01*
X93662459Y-47072803D01*
X93497035Y-47022622D01*
X93325000Y-47005678D01*
X92412500Y-47005678D01*
X92240465Y-47022622D01*
X92075041Y-47072803D01*
X91922586Y-47154292D01*
X91788958Y-47263958D01*
X91679292Y-47397586D01*
X91614990Y-47517886D01*
X91527328Y-47589828D01*
X91503462Y-47618909D01*
X91434371Y-47688000D01*
X90431822Y-47688000D01*
X90431822Y-47375000D01*
X90419562Y-47250518D01*
X90419405Y-47250000D01*
X90419562Y-47249482D01*
X90431822Y-47125000D01*
X90431822Y-46708731D01*
X90473142Y-46686645D01*
X90589172Y-46591422D01*
X90613034Y-46562346D01*
X90947379Y-46228000D01*
X95123000Y-46228000D01*
X95123000Y-60833000D01*
X48641000Y-60833000D01*
X48641000Y-54161000D01*
X56015928Y-54161000D01*
X56028188Y-54285482D01*
X56064498Y-54405180D01*
X56123463Y-54515494D01*
X56202815Y-54612185D01*
X56299506Y-54691537D01*
X56409820Y-54750502D01*
X56529518Y-54786812D01*
X56654000Y-54799072D01*
X57268250Y-54796000D01*
X57427000Y-54637250D01*
X57427000Y-53738000D01*
X57681000Y-53738000D01*
X57681000Y-54637250D01*
X57839750Y-54796000D01*
X58454000Y-54799072D01*
X58578482Y-54786812D01*
X58698180Y-54750502D01*
X58808494Y-54691537D01*
X58905185Y-54612185D01*
X58984537Y-54515494D01*
X59043502Y-54405180D01*
X59079812Y-54285482D01*
X59092072Y-54161000D01*
X59089000Y-53896750D01*
X58930250Y-53738000D01*
X57681000Y-53738000D01*
X57427000Y-53738000D01*
X56177750Y-53738000D01*
X56019000Y-53896750D01*
X56015928Y-54161000D01*
X48641000Y-54161000D01*
X48641000Y-53061000D01*
X56015928Y-53061000D01*
X56019000Y-53325250D01*
X56177750Y-53484000D01*
X57427000Y-53484000D01*
X57427000Y-52584750D01*
X57681000Y-52584750D01*
X57681000Y-53484000D01*
X58930250Y-53484000D01*
X59089000Y-53325250D01*
X59092072Y-53061000D01*
X62215928Y-53061000D01*
X62215928Y-54161000D01*
X62228188Y-54285482D01*
X62264498Y-54405180D01*
X62323463Y-54515494D01*
X62402815Y-54612185D01*
X62499506Y-54691537D01*
X62609820Y-54750502D01*
X62729518Y-54786812D01*
X62854000Y-54799072D01*
X64654000Y-54799072D01*
X64778482Y-54786812D01*
X64898180Y-54750502D01*
X65008494Y-54691537D01*
X65105185Y-54612185D01*
X65184537Y-54515494D01*
X65243502Y-54405180D01*
X65279812Y-54285482D01*
X65292072Y-54161000D01*
X65292072Y-53881250D01*
X86186928Y-53881250D01*
X86199188Y-54005732D01*
X86235498Y-54125430D01*
X86294463Y-54235744D01*
X86373815Y-54332435D01*
X86470506Y-54411787D01*
X86580820Y-54470752D01*
X86700518Y-54507062D01*
X86825000Y-54519322D01*
X87026750Y-54516250D01*
X87185500Y-54357500D01*
X87185500Y-53308250D01*
X86348750Y-53308250D01*
X86190000Y-53467000D01*
X86186928Y-53881250D01*
X65292072Y-53881250D01*
X65292072Y-53061000D01*
X65279812Y-52936518D01*
X65243502Y-52816820D01*
X65184537Y-52706506D01*
X65105185Y-52609815D01*
X65008494Y-52530463D01*
X64898180Y-52471498D01*
X64778482Y-52435188D01*
X64654000Y-52422928D01*
X62854000Y-52422928D01*
X62729518Y-52435188D01*
X62609820Y-52471498D01*
X62499506Y-52530463D01*
X62402815Y-52609815D01*
X62323463Y-52706506D01*
X62264498Y-52816820D01*
X62228188Y-52936518D01*
X62215928Y-53061000D01*
X59092072Y-53061000D01*
X59079812Y-52936518D01*
X59043502Y-52816820D01*
X58984537Y-52706506D01*
X58905185Y-52609815D01*
X58808494Y-52530463D01*
X58698180Y-52471498D01*
X58578482Y-52435188D01*
X58454000Y-52422928D01*
X57839750Y-52426000D01*
X57681000Y-52584750D01*
X57427000Y-52584750D01*
X57268250Y-52426000D01*
X56654000Y-52422928D01*
X56529518Y-52435188D01*
X56409820Y-52471498D01*
X56299506Y-52530463D01*
X56202815Y-52609815D01*
X56123463Y-52706506D01*
X56064498Y-52816820D01*
X56028188Y-52936518D01*
X56015928Y-53061000D01*
X48641000Y-53061000D01*
X48641000Y-51463000D01*
X69781928Y-51463000D01*
X69794188Y-51587482D01*
X69830498Y-51707180D01*
X69889463Y-51817494D01*
X69968815Y-51914185D01*
X70065506Y-51993537D01*
X70175820Y-52052502D01*
X70295518Y-52088812D01*
X70420000Y-52101072D01*
X70834250Y-52098000D01*
X70993000Y-51939250D01*
X70993000Y-51102500D01*
X71247000Y-51102500D01*
X71247000Y-51939250D01*
X71405750Y-52098000D01*
X71820000Y-52101072D01*
X71944482Y-52088812D01*
X72064180Y-52052502D01*
X72174494Y-51993537D01*
X72271185Y-51914185D01*
X72350537Y-51817494D01*
X72409502Y-51707180D01*
X72445812Y-51587482D01*
X72458072Y-51463000D01*
X72455000Y-51261250D01*
X72296250Y-51102500D01*
X71247000Y-51102500D01*
X70993000Y-51102500D01*
X69943750Y-51102500D01*
X69785000Y-51261250D01*
X69781928Y-51463000D01*
X48641000Y-51463000D01*
X48641000Y-49361000D01*
X56015928Y-49361000D01*
X56015928Y-50461000D01*
X56028188Y-50585482D01*
X56064498Y-50705180D01*
X56123463Y-50815494D01*
X56202815Y-50912185D01*
X56299506Y-50991537D01*
X56409820Y-51050502D01*
X56529518Y-51086812D01*
X56654000Y-51099072D01*
X58454000Y-51099072D01*
X58578482Y-51086812D01*
X58698180Y-51050502D01*
X58808494Y-50991537D01*
X58905185Y-50912185D01*
X58984537Y-50815494D01*
X59043502Y-50705180D01*
X59079812Y-50585482D01*
X59092072Y-50461000D01*
X59092072Y-49361000D01*
X62215928Y-49361000D01*
X62215928Y-50461000D01*
X62228188Y-50585482D01*
X62264498Y-50705180D01*
X62323463Y-50815494D01*
X62402815Y-50912185D01*
X62499506Y-50991537D01*
X62609820Y-51050502D01*
X62729518Y-51086812D01*
X62854000Y-51099072D01*
X64654000Y-51099072D01*
X64778482Y-51086812D01*
X64898180Y-51050502D01*
X65008494Y-50991537D01*
X65085847Y-50928055D01*
X65176061Y-50946000D01*
X65379939Y-50946000D01*
X65579898Y-50906226D01*
X65768256Y-50828205D01*
X65937774Y-50714937D01*
X66081937Y-50570774D01*
X66195205Y-50401256D01*
X66273226Y-50212898D01*
X66313000Y-50012939D01*
X66313000Y-49809061D01*
X66273226Y-49609102D01*
X66195205Y-49420744D01*
X66081937Y-49251226D01*
X65937774Y-49107063D01*
X65768256Y-48993795D01*
X65579898Y-48915774D01*
X65379939Y-48876000D01*
X65176061Y-48876000D01*
X65085847Y-48893945D01*
X65008494Y-48830463D01*
X64898180Y-48771498D01*
X64778482Y-48735188D01*
X64654000Y-48722928D01*
X62854000Y-48722928D01*
X62729518Y-48735188D01*
X62609820Y-48771498D01*
X62499506Y-48830463D01*
X62402815Y-48909815D01*
X62323463Y-49006506D01*
X62264498Y-49116820D01*
X62228188Y-49236518D01*
X62215928Y-49361000D01*
X59092072Y-49361000D01*
X59079812Y-49236518D01*
X59043502Y-49116820D01*
X58984537Y-49006506D01*
X58905185Y-48909815D01*
X58808494Y-48830463D01*
X58698180Y-48771498D01*
X58578482Y-48735188D01*
X58454000Y-48722928D01*
X56654000Y-48722928D01*
X56529518Y-48735188D01*
X56409820Y-48771498D01*
X56299506Y-48830463D01*
X56202815Y-48909815D01*
X56123463Y-49006506D01*
X56064498Y-49116820D01*
X56028188Y-49236518D01*
X56015928Y-49361000D01*
X48641000Y-49361000D01*
X48641000Y-30154000D01*
X56302500Y-30154000D01*
X56302500Y-30654000D01*
X56355810Y-30941269D01*
X56464139Y-31212618D01*
X56623324Y-31457619D01*
X56827248Y-31666857D01*
X57068074Y-31832291D01*
X57336547Y-31947563D01*
X57430610Y-31968476D01*
X57660500Y-31847155D01*
X57660500Y-30154000D01*
X56302500Y-30154000D01*
X48641000Y-30154000D01*
X48641000Y-29400000D01*
X56302500Y-29400000D01*
X56302500Y-29900000D01*
X57660500Y-29900000D01*
X57660500Y-28206845D01*
X57430610Y-28085524D01*
X57336547Y-28106437D01*
X57068074Y-28221709D01*
X56827248Y-28387143D01*
X56623324Y-28596381D01*
X56464139Y-28841382D01*
X56355810Y-29112731D01*
X56302500Y-29400000D01*
X48641000Y-29400000D01*
X48641000Y-25654000D01*
X56302500Y-25654000D01*
X56302500Y-26154000D01*
X56355810Y-26441269D01*
X56464139Y-26712618D01*
X56623324Y-26957619D01*
X56827248Y-27166857D01*
X57068074Y-27332291D01*
X57336547Y-27447563D01*
X57430610Y-27468476D01*
X57660500Y-27347155D01*
X57660500Y-25654000D01*
X57914500Y-25654000D01*
X57914500Y-27347155D01*
X58144390Y-27468476D01*
X58238453Y-27447563D01*
X58506926Y-27332291D01*
X58747752Y-27166857D01*
X58951676Y-26957619D01*
X59110861Y-26712618D01*
X59219190Y-26441269D01*
X59272500Y-26154000D01*
X59272500Y-25654000D01*
X63602500Y-25654000D01*
X63602500Y-26154000D01*
X63655810Y-26441269D01*
X63764139Y-26712618D01*
X63923324Y-26957619D01*
X64127248Y-27166857D01*
X64368074Y-27332291D01*
X64636547Y-27447563D01*
X64730610Y-27468476D01*
X64960500Y-27347155D01*
X64960500Y-25654000D01*
X65214500Y-25654000D01*
X65214500Y-27347155D01*
X65444390Y-27468476D01*
X65538453Y-27447563D01*
X65806926Y-27332291D01*
X66047752Y-27166857D01*
X66251676Y-26957619D01*
X66410861Y-26712618D01*
X66519190Y-26441269D01*
X66572500Y-26154000D01*
X66572500Y-25654000D01*
X65214500Y-25654000D01*
X64960500Y-25654000D01*
X63602500Y-25654000D01*
X59272500Y-25654000D01*
X57914500Y-25654000D01*
X57660500Y-25654000D01*
X56302500Y-25654000D01*
X48641000Y-25654000D01*
X48641000Y-24678875D01*
X48690410Y-24638000D01*
X56351121Y-24638000D01*
X56302500Y-24900000D01*
X56302500Y-24900000D01*
G37*
X56302500Y-24900000D02*
X56302500Y-25400000D01*
X57660500Y-25400000D01*
X57660500Y-25380000D01*
X57914500Y-25380000D01*
X57914500Y-25400000D01*
X59272500Y-25400000D01*
X59272500Y-24900000D01*
X59223879Y-24638000D01*
X63651121Y-24638000D01*
X63602500Y-24900000D01*
X63602500Y-25400000D01*
X64960500Y-25400000D01*
X64960500Y-25380000D01*
X65214500Y-25380000D01*
X65214500Y-25400000D01*
X66572500Y-25400000D01*
X66572500Y-24900000D01*
X66523879Y-24638000D01*
X95123000Y-24638000D01*
X95123000Y-41724510D01*
X94978256Y-41627795D01*
X94789898Y-41549774D01*
X94589939Y-41510000D01*
X94386061Y-41510000D01*
X94186102Y-41549774D01*
X94046059Y-41607782D01*
X93948542Y-41488958D01*
X93942186Y-41483742D01*
X94019935Y-41419935D01*
X94099287Y-41323244D01*
X94158252Y-41212930D01*
X94194562Y-41093232D01*
X94206822Y-40968750D01*
X94203750Y-40767000D01*
X94045000Y-40608250D01*
X92995750Y-40608250D01*
X92995750Y-40628250D01*
X92741750Y-40628250D01*
X92741750Y-40608250D01*
X92721750Y-40608250D01*
X92721750Y-40354250D01*
X92741750Y-40354250D01*
X92741750Y-39517500D01*
X92995750Y-39517500D01*
X92995750Y-40354250D01*
X94045000Y-40354250D01*
X94203750Y-40195500D01*
X94206822Y-39993750D01*
X94194562Y-39869268D01*
X94158252Y-39749570D01*
X94099287Y-39639256D01*
X94019935Y-39542565D01*
X93923244Y-39463213D01*
X93812930Y-39404248D01*
X93693232Y-39367938D01*
X93568750Y-39355678D01*
X93154500Y-39358750D01*
X92995750Y-39517500D01*
X92741750Y-39517500D01*
X92583000Y-39358750D01*
X92168750Y-39355678D01*
X92044268Y-39367938D01*
X91924570Y-39404248D01*
X91814256Y-39463213D01*
X91717565Y-39542565D01*
X91638213Y-39639256D01*
X91579248Y-39749570D01*
X91542938Y-39869268D01*
X91530678Y-39993750D01*
X91533750Y-40195500D01*
X91692498Y-40354248D01*
X91533750Y-40354248D01*
X91533750Y-40424500D01*
X90428750Y-40424500D01*
X90428750Y-40322998D01*
X90270002Y-40322998D01*
X90428750Y-40164250D01*
X90418927Y-40047369D01*
X90382015Y-39927855D01*
X90322496Y-39817839D01*
X90242658Y-39721549D01*
X90145568Y-39642684D01*
X90034958Y-39584276D01*
X89915079Y-39548570D01*
X89790537Y-39536936D01*
X89329500Y-39540000D01*
X89170750Y-39698750D01*
X89170750Y-40323000D01*
X89190750Y-40323000D01*
X89190750Y-40336928D01*
X88293750Y-40336928D01*
X88169268Y-40349188D01*
X88049570Y-40385498D01*
X87939256Y-40444463D01*
X87842565Y-40523815D01*
X87763213Y-40620506D01*
X87750833Y-40643667D01*
X87658750Y-40735750D01*
X87668296Y-40849337D01*
X87667938Y-40850518D01*
X87655678Y-40975000D01*
X87655678Y-41525000D01*
X87667938Y-41649482D01*
X87668095Y-41650000D01*
X87667938Y-41650518D01*
X87655678Y-41775000D01*
X87655678Y-42325000D01*
X87667938Y-42449482D01*
X87668095Y-42450000D01*
X87667938Y-42450518D01*
X87655678Y-42575000D01*
X87655678Y-43125000D01*
X87667938Y-43249482D01*
X87668095Y-43250000D01*
X87667938Y-43250518D01*
X87655678Y-43375000D01*
X87655678Y-43925000D01*
X87667938Y-44049482D01*
X87668095Y-44050000D01*
X87667938Y-44050518D01*
X87655678Y-44175000D01*
X87655678Y-44725000D01*
X87667938Y-44849482D01*
X87668095Y-44850000D01*
X87667938Y-44850518D01*
X87655678Y-44975000D01*
X87655678Y-45525000D01*
X87667938Y-45649482D01*
X87668095Y-45650000D01*
X87667938Y-45650518D01*
X87655678Y-45775000D01*
X87655678Y-46325000D01*
X87667938Y-46449482D01*
X87668095Y-46450000D01*
X87667938Y-46450518D01*
X87655678Y-46575000D01*
X87655678Y-47125000D01*
X87667938Y-47249482D01*
X87668095Y-47250000D01*
X87667938Y-47250518D01*
X87655678Y-47375000D01*
X87655678Y-47925000D01*
X87667938Y-48049482D01*
X87668095Y-48050000D01*
X87667938Y-48050518D01*
X87655678Y-48175000D01*
X87655678Y-48725000D01*
X87659712Y-48765962D01*
X87618750Y-48761928D01*
X87068750Y-48761928D01*
X86944268Y-48774188D01*
X86943087Y-48774546D01*
X86829500Y-48765000D01*
X86737417Y-48857083D01*
X86714256Y-48869463D01*
X86617565Y-48948815D01*
X86543750Y-49038759D01*
X86469935Y-48948815D01*
X86373244Y-48869463D01*
X86350083Y-48857083D01*
X86258000Y-48765000D01*
X86144413Y-48774546D01*
X86143232Y-48774188D01*
X86018750Y-48761928D01*
X85468750Y-48761928D01*
X85344268Y-48774188D01*
X85343750Y-48774345D01*
X85343232Y-48774188D01*
X85218750Y-48761928D01*
X84668750Y-48761928D01*
X84544268Y-48774188D01*
X84543750Y-48774345D01*
X84543232Y-48774188D01*
X84418750Y-48761928D01*
X83868750Y-48761928D01*
X83744268Y-48774188D01*
X83743750Y-48774345D01*
X83743232Y-48774188D01*
X83618750Y-48761928D01*
X83068750Y-48761928D01*
X82944268Y-48774188D01*
X82943750Y-48774345D01*
X82943232Y-48774188D01*
X82818750Y-48761928D01*
X82268750Y-48761928D01*
X82144268Y-48774188D01*
X82143750Y-48774345D01*
X82143232Y-48774188D01*
X82018750Y-48761928D01*
X81468750Y-48761928D01*
X81344268Y-48774188D01*
X81343750Y-48774345D01*
X81343232Y-48774188D01*
X81218750Y-48761928D01*
X80668750Y-48761928D01*
X80544268Y-48774188D01*
X80543087Y-48774546D01*
X80429500Y-48765000D01*
X80337417Y-48857083D01*
X80314256Y-48869463D01*
X80217565Y-48948815D01*
X80143750Y-49038759D01*
X80069935Y-48948815D01*
X79973244Y-48869463D01*
X79950083Y-48857083D01*
X79858000Y-48765000D01*
X79744413Y-48774546D01*
X79743232Y-48774188D01*
X79618750Y-48761928D01*
X79068750Y-48761928D01*
X79027788Y-48765962D01*
X79031822Y-48725000D01*
X79031822Y-48175000D01*
X79019562Y-48050518D01*
X79019405Y-48050000D01*
X79019562Y-48049482D01*
X79031822Y-47925000D01*
X79031822Y-47375000D01*
X79019562Y-47250518D01*
X79019405Y-47250000D01*
X79019562Y-47249482D01*
X79031822Y-47125000D01*
X79031822Y-46575000D01*
X79019562Y-46450518D01*
X79019405Y-46450000D01*
X79019562Y-46449482D01*
X79031822Y-46325000D01*
X79031822Y-45775000D01*
X79019562Y-45650518D01*
X79019204Y-45649337D01*
X79028750Y-45535750D01*
X78936667Y-45443667D01*
X78924287Y-45420506D01*
X78844935Y-45323815D01*
X78754991Y-45250000D01*
X78844935Y-45176185D01*
X78924287Y-45079494D01*
X78936667Y-45056333D01*
X79028750Y-44964250D01*
X79019204Y-44850663D01*
X79019562Y-44849482D01*
X79031822Y-44725000D01*
X79031822Y-44175000D01*
X79019562Y-44050518D01*
X79019405Y-44050000D01*
X79019562Y-44049482D01*
X79031822Y-43925000D01*
X79031822Y-43375000D01*
X79019562Y-43250518D01*
X79019405Y-43250000D01*
X79019562Y-43249482D01*
X79031822Y-43125000D01*
X79031822Y-42575000D01*
X79019562Y-42450518D01*
X79019405Y-42450000D01*
X79019562Y-42449482D01*
X79031822Y-42325000D01*
X79031822Y-41775000D01*
X79019562Y-41650518D01*
X79019405Y-41650000D01*
X79019562Y-41649482D01*
X79031822Y-41525000D01*
X79031822Y-40975000D01*
X79019562Y-40850518D01*
X79019405Y-40850000D01*
X79019562Y-40849482D01*
X79031822Y-40725000D01*
X79031822Y-40175000D01*
X79027788Y-40134038D01*
X79068750Y-40138072D01*
X79618750Y-40138072D01*
X79743232Y-40125812D01*
X79743750Y-40125655D01*
X79744268Y-40125812D01*
X79868750Y-40138072D01*
X80418750Y-40138072D01*
X80543232Y-40125812D01*
X80543750Y-40125655D01*
X80544268Y-40125812D01*
X80668750Y-40138072D01*
X81218750Y-40138072D01*
X81343232Y-40125812D01*
X81344413Y-40125454D01*
X81458000Y-40135000D01*
X81550083Y-40042917D01*
X81573244Y-40030537D01*
X81669935Y-39951185D01*
X81743750Y-39861241D01*
X81817565Y-39951185D01*
X81914256Y-40030537D01*
X81937417Y-40042917D01*
X82029500Y-40135000D01*
X82143087Y-40125454D01*
X82144268Y-40125812D01*
X82268750Y-40138072D01*
X82818750Y-40138072D01*
X82943232Y-40125812D01*
X82943750Y-40125655D01*
X82944268Y-40125812D01*
X83068750Y-40138072D01*
X83618750Y-40138072D01*
X83743232Y-40125812D01*
X83743750Y-40125655D01*
X83744268Y-40125812D01*
X83868750Y-40138072D01*
X84418750Y-40138072D01*
X84543232Y-40125812D01*
X84543750Y-40125655D01*
X84544268Y-40125812D01*
X84668750Y-40138072D01*
X85218750Y-40138072D01*
X85343232Y-40125812D01*
X85343750Y-40125655D01*
X85344268Y-40125812D01*
X85468750Y-40138072D01*
X86018750Y-40138072D01*
X86143232Y-40125812D01*
X86143750Y-40125655D01*
X86144268Y-40125812D01*
X86268750Y-40138072D01*
X86818750Y-40138072D01*
X86943232Y-40125812D01*
X86943750Y-40125655D01*
X86944268Y-40125812D01*
X87068750Y-40138072D01*
X87618750Y-40138072D01*
X87661302Y-40133881D01*
X87658750Y-40164250D01*
X87817500Y-40323000D01*
X88916750Y-40323000D01*
X88916750Y-39698750D01*
X88758000Y-39540000D01*
X88296963Y-39536936D01*
X88252778Y-39541064D01*
X88256822Y-39500000D01*
X88256822Y-38000000D01*
X88244562Y-37875518D01*
X88208252Y-37755820D01*
X88149287Y-37645506D01*
X88069935Y-37548815D01*
X87973244Y-37469463D01*
X87862930Y-37410498D01*
X87743232Y-37374188D01*
X87618750Y-37361928D01*
X87068750Y-37361928D01*
X86944268Y-37374188D01*
X86943750Y-37374345D01*
X86943232Y-37374188D01*
X86818750Y-37361928D01*
X86268750Y-37361928D01*
X86144268Y-37374188D01*
X86143750Y-37374345D01*
X86143232Y-37374188D01*
X86018750Y-37361928D01*
X85468750Y-37361928D01*
X85344268Y-37374188D01*
X85343750Y-37374345D01*
X85343232Y-37374188D01*
X85218750Y-37361928D01*
X84668750Y-37361928D01*
X84544268Y-37374188D01*
X84543750Y-37374345D01*
X84543232Y-37374188D01*
X84418750Y-37361928D01*
X84105750Y-37361928D01*
X84105750Y-33684880D01*
X85516352Y-32274279D01*
X85545422Y-32250422D01*
X85640645Y-32134392D01*
X85701216Y-32021072D01*
X85704000Y-32021072D01*
X85828482Y-32008812D01*
X85948180Y-31972502D01*
X86058494Y-31913537D01*
X86155185Y-31834185D01*
X86234537Y-31737494D01*
X86243888Y-31720000D01*
X87733797Y-31720000D01*
X87820208Y-31825292D01*
X87953836Y-31934958D01*
X88106291Y-32016447D01*
X88271715Y-32066628D01*
X88443750Y-32083572D01*
X89356250Y-32083572D01*
X89528285Y-32066628D01*
X89693709Y-32016447D01*
X89846164Y-31934958D01*
X89979792Y-31825292D01*
X90089458Y-31691664D01*
X90170947Y-31539209D01*
X90221128Y-31373785D01*
X90238072Y-31201750D01*
X90238072Y-30714250D01*
X90221128Y-30542215D01*
X90170947Y-30376791D01*
X90089458Y-30224336D01*
X89979792Y-30090708D01*
X89973436Y-30085492D01*
X90051185Y-30021685D01*
X90130537Y-29924994D01*
X90189502Y-29814680D01*
X90225812Y-29694982D01*
X90238072Y-29570500D01*
X90235000Y-29368750D01*
X90076250Y-29210000D01*
X89027000Y-29210000D01*
X89027000Y-29230000D01*
X88773000Y-29230000D01*
X88773000Y-29210000D01*
X87723750Y-29210000D01*
X87565000Y-29368750D01*
X87561928Y-29570500D01*
X87574188Y-29694982D01*
X87610498Y-29814680D01*
X87669463Y-29924994D01*
X87748815Y-30021685D01*
X87826564Y-30085492D01*
X87820208Y-30090708D01*
X87733797Y-30196000D01*
X86342072Y-30196000D01*
X86342072Y-30183000D01*
X86329812Y-30058518D01*
X86293502Y-29938820D01*
X86290391Y-29933000D01*
X86293502Y-29927180D01*
X86329812Y-29807482D01*
X86342072Y-29683000D01*
X86339000Y-29368750D01*
X86180250Y-29210000D01*
X85131000Y-29210000D01*
X85131000Y-29230000D01*
X84877000Y-29230000D01*
X84877000Y-29210000D01*
X84857000Y-29210000D01*
X84857000Y-28956000D01*
X84877000Y-28956000D01*
X84877000Y-28006750D01*
X85131000Y-28006750D01*
X85131000Y-28956000D01*
X86180250Y-28956000D01*
X86339000Y-28797250D01*
X86340972Y-28595500D01*
X87561928Y-28595500D01*
X87565000Y-28797250D01*
X87723750Y-28956000D01*
X88773000Y-28956000D01*
X88773000Y-28119250D01*
X89027000Y-28119250D01*
X89027000Y-28956000D01*
X90076250Y-28956000D01*
X90235000Y-28797250D01*
X90238072Y-28595500D01*
X90225812Y-28471018D01*
X90189502Y-28351320D01*
X90130537Y-28241006D01*
X90051185Y-28144315D01*
X89954494Y-28064963D01*
X89844180Y-28005998D01*
X89724482Y-27969688D01*
X89600000Y-27957428D01*
X89185750Y-27960500D01*
X89027000Y-28119250D01*
X88773000Y-28119250D01*
X88614250Y-27960500D01*
X88200000Y-27957428D01*
X88075518Y-27969688D01*
X87955820Y-28005998D01*
X87845506Y-28064963D01*
X87748815Y-28144315D01*
X87669463Y-28241006D01*
X87610498Y-28351320D01*
X87574188Y-28471018D01*
X87561928Y-28595500D01*
X86340972Y-28595500D01*
X86342072Y-28483000D01*
X86329812Y-28358518D01*
X86293502Y-28238820D01*
X86234537Y-28128506D01*
X86155185Y-28031815D01*
X86058494Y-27952463D01*
X85948180Y-27893498D01*
X85828482Y-27857188D01*
X85704000Y-27844928D01*
X85289750Y-27848000D01*
X85131000Y-28006750D01*
X84877000Y-28006750D01*
X84718250Y-27848000D01*
X84304000Y-27844928D01*
X84179518Y-27857188D01*
X84059820Y-27893498D01*
X83949506Y-27952463D01*
X83904000Y-27989809D01*
X83858494Y-27952463D01*
X83748180Y-27893498D01*
X83628482Y-27857188D01*
X83504000Y-27844928D01*
X82514282Y-27844928D01*
X82445378Y-27824026D01*
X82333426Y-27813000D01*
X82333423Y-27813000D01*
X82296000Y-27809314D01*
X82258577Y-27813000D01*
X80668203Y-27813000D01*
X80581792Y-27707708D01*
X80448164Y-27598042D01*
X80295709Y-27516553D01*
X80130285Y-27466372D01*
X79958250Y-27449428D01*
X79045750Y-27449428D01*
X78873715Y-27466372D01*
X78708291Y-27516553D01*
X78555836Y-27598042D01*
X78422208Y-27707708D01*
X78312542Y-27841336D01*
X78231053Y-27993791D01*
X78180872Y-28159215D01*
X78163928Y-28331250D01*
X78163928Y-28818750D01*
X78180872Y-28990785D01*
X78231053Y-29156209D01*
X78312542Y-29308664D01*
X78422208Y-29442292D01*
X78428564Y-29447508D01*
X78350815Y-29511315D01*
X78271463Y-29608006D01*
X78212498Y-29718320D01*
X78176188Y-29838018D01*
X78163928Y-29962500D01*
X78167000Y-30164250D01*
X78325750Y-30323000D01*
X79375000Y-30323000D01*
X79375000Y-30303000D01*
X79629000Y-30303000D01*
X79629000Y-30323000D01*
X80678250Y-30323000D01*
X80837000Y-30164250D01*
X80840072Y-29962500D01*
X80827812Y-29838018D01*
X80791502Y-29718320D01*
X80732537Y-29608006D01*
X80653185Y-29511315D01*
X80575436Y-29447508D01*
X80581792Y-29442292D01*
X80668203Y-29337000D01*
X81014999Y-29337000D01*
X81015000Y-32543198D01*
X81011313Y-32580631D01*
X81026026Y-32730009D01*
X81069598Y-32873646D01*
X81140354Y-33006023D01*
X81203884Y-33083434D01*
X81235578Y-33122053D01*
X81264648Y-33145910D01*
X81781750Y-33663012D01*
X81781751Y-37592455D01*
X81748883Y-37632505D01*
X81710103Y-37504664D01*
X81633449Y-37361256D01*
X81530291Y-37235557D01*
X81498791Y-37209706D01*
X78550287Y-34261203D01*
X78524430Y-34229696D01*
X78398731Y-34126538D01*
X78255323Y-34049884D01*
X78099715Y-34002681D01*
X78076258Y-34000371D01*
X78060878Y-33844215D01*
X78010697Y-33678791D01*
X77929208Y-33526336D01*
X77819542Y-33392708D01*
X77813186Y-33387492D01*
X77890935Y-33323685D01*
X77970287Y-33226994D01*
X78029252Y-33116680D01*
X78065562Y-32996982D01*
X78077822Y-32872500D01*
X78074750Y-32670750D01*
X77916000Y-32512000D01*
X76866750Y-32512000D01*
X76866750Y-32532000D01*
X76612750Y-32532000D01*
X76612750Y-32512000D01*
X76592750Y-32512000D01*
X76592750Y-32258000D01*
X76612750Y-32258000D01*
X76612750Y-31421250D01*
X76866750Y-31421250D01*
X76866750Y-32258000D01*
X77916000Y-32258000D01*
X78074750Y-32099250D01*
X78077822Y-31897500D01*
X78065562Y-31773018D01*
X78029252Y-31653320D01*
X77970287Y-31543006D01*
X77890935Y-31446315D01*
X77794244Y-31366963D01*
X77683930Y-31307998D01*
X77564232Y-31271688D01*
X77439750Y-31259428D01*
X77025500Y-31262500D01*
X76866750Y-31421250D01*
X76612750Y-31421250D01*
X76454000Y-31262500D01*
X76039750Y-31259428D01*
X75915268Y-31271688D01*
X75795570Y-31307998D01*
X75685256Y-31366963D01*
X75635900Y-31407468D01*
X75326398Y-31097966D01*
X75300541Y-31066459D01*
X75174842Y-30963301D01*
X75126572Y-30937500D01*
X78163928Y-30937500D01*
X78176188Y-31061982D01*
X78212498Y-31181680D01*
X78271463Y-31291994D01*
X78350815Y-31388685D01*
X78447506Y-31468037D01*
X78557820Y-31527002D01*
X78677518Y-31563312D01*
X78802000Y-31575572D01*
X79216250Y-31572500D01*
X79375000Y-31413750D01*
X79375000Y-30577000D01*
X79629000Y-30577000D01*
X79629000Y-31413750D01*
X79787750Y-31572500D01*
X80202000Y-31575572D01*
X80326482Y-31563312D01*
X80446180Y-31527002D01*
X80556494Y-31468037D01*
X80653185Y-31388685D01*
X80732537Y-31291994D01*
X80791502Y-31181680D01*
X80827812Y-31061982D01*
X80840072Y-30937500D01*
X80837000Y-30735750D01*
X80678250Y-30577000D01*
X79629000Y-30577000D01*
X79375000Y-30577000D01*
X78325750Y-30577000D01*
X78167000Y-30735750D01*
X78163928Y-30937500D01*
X75126572Y-30937500D01*
X75107805Y-30927469D01*
X75103458Y-30919336D01*
X74993792Y-30785708D01*
X74860164Y-30676042D01*
X74707709Y-30594553D01*
X74542285Y-30544372D01*
X74370250Y-30527428D01*
X73457750Y-30527428D01*
X73285715Y-30544372D01*
X73120291Y-30594553D01*
X72967836Y-30676042D01*
X72834208Y-30785708D01*
X72724542Y-30919336D01*
X72643053Y-31071791D01*
X72597184Y-31223000D01*
X72415061Y-31223000D01*
X72215102Y-31262774D01*
X72026744Y-31340795D01*
X71857226Y-31454063D01*
X71713063Y-31598226D01*
X71599795Y-31767744D01*
X71521774Y-31956102D01*
X71482000Y-32156061D01*
X71482000Y-32359939D01*
X71521774Y-32559898D01*
X71599795Y-32748256D01*
X71713063Y-32917774D01*
X71755000Y-32959711D01*
X71755000Y-33109577D01*
X71751314Y-33147000D01*
X71755000Y-33184423D01*
X71755000Y-33184426D01*
X71759178Y-33226842D01*
X71766027Y-33296378D01*
X71809599Y-33440015D01*
X71880355Y-33572392D01*
X71936167Y-33640398D01*
X71975579Y-33688422D01*
X72004649Y-33712279D01*
X72332716Y-34040346D01*
X72356578Y-34069422D01*
X72472608Y-34164645D01*
X72604985Y-34235402D01*
X72735475Y-34274986D01*
X72834208Y-34395292D01*
X72967836Y-34504958D01*
X73120291Y-34586447D01*
X73285715Y-34636628D01*
X73362098Y-34644151D01*
X73372579Y-34656922D01*
X73401649Y-34680779D01*
X76063216Y-37342346D01*
X76087078Y-37371422D01*
X76147716Y-37421186D01*
X76203107Y-37466645D01*
X76265711Y-37500107D01*
X76335485Y-37537402D01*
X76479122Y-37580974D01*
X76591074Y-37592000D01*
X76591077Y-37592000D01*
X76628500Y-37595686D01*
X76665923Y-37592000D01*
X78582124Y-37592000D01*
X78538213Y-37645506D01*
X78479248Y-37755820D01*
X78442938Y-37875518D01*
X78430678Y-38000000D01*
X78430678Y-39500000D01*
X78434712Y-39540962D01*
X78393750Y-39536928D01*
X76893750Y-39536928D01*
X76769268Y-39549188D01*
X76649570Y-39585498D01*
X76539256Y-39644463D01*
X76442565Y-39723815D01*
X76363213Y-39820506D01*
X76304248Y-39930820D01*
X76267938Y-40050518D01*
X76255678Y-40175000D01*
X76255678Y-40725000D01*
X76267938Y-40849482D01*
X76268095Y-40850000D01*
X76267938Y-40850518D01*
X76255678Y-40975000D01*
X76255678Y-41525000D01*
X76267938Y-41649482D01*
X76268095Y-41650000D01*
X76267938Y-41650518D01*
X76255678Y-41775000D01*
X76255678Y-42325000D01*
X76267938Y-42449482D01*
X76268095Y-42450000D01*
X76267938Y-42450518D01*
X76255678Y-42575000D01*
X76255678Y-42735500D01*
X75811503Y-42735500D01*
X75674256Y-42643795D01*
X75485898Y-42565774D01*
X75285939Y-42526000D01*
X75082061Y-42526000D01*
X74882102Y-42565774D01*
X74693744Y-42643795D01*
X74524226Y-42757063D01*
X74380063Y-42901226D01*
X74266795Y-43070744D01*
X74188774Y-43259102D01*
X74149000Y-43459061D01*
X74149000Y-43662939D01*
X74153985Y-43688000D01*
X73467630Y-43688000D01*
X72626572Y-42846942D01*
X72626572Y-42342750D01*
X72609628Y-42170715D01*
X72559447Y-42005291D01*
X72477958Y-41852836D01*
X72368292Y-41719208D01*
X72234664Y-41609542D01*
X72082209Y-41528053D01*
X71916785Y-41477872D01*
X71744750Y-41460928D01*
X71257250Y-41460928D01*
X71085215Y-41477872D01*
X70919791Y-41528053D01*
X70767336Y-41609542D01*
X70633708Y-41719208D01*
X70628492Y-41725564D01*
X70564685Y-41647815D01*
X70467994Y-41568463D01*
X70357680Y-41509498D01*
X70237982Y-41473188D01*
X70113500Y-41460928D01*
X69911750Y-41464000D01*
X69753000Y-41622750D01*
X69753000Y-42672000D01*
X69773000Y-42672000D01*
X69773000Y-42926000D01*
X69753000Y-42926000D01*
X69753000Y-43975250D01*
X69911750Y-44134000D01*
X70113500Y-44137072D01*
X70237982Y-44124812D01*
X70357680Y-44088502D01*
X70467994Y-44029537D01*
X70564685Y-43950185D01*
X70628492Y-43872436D01*
X70633708Y-43878792D01*
X70767336Y-43988458D01*
X70919791Y-44069947D01*
X71085215Y-44120128D01*
X71257250Y-44137072D01*
X71744750Y-44137072D01*
X71759945Y-44135575D01*
X72586716Y-44962346D01*
X72610578Y-44991422D01*
X72670512Y-45040608D01*
X72726607Y-45086645D01*
X72794623Y-45123000D01*
X72858985Y-45157402D01*
X73002622Y-45200974D01*
X73114574Y-45212000D01*
X73114577Y-45212000D01*
X73152000Y-45215686D01*
X73189423Y-45212000D01*
X76486206Y-45212000D01*
X76532509Y-45250000D01*
X76486206Y-45288000D01*
X76342412Y-45288000D01*
X76304989Y-45284314D01*
X76267566Y-45288000D01*
X76267564Y-45288000D01*
X76155612Y-45299026D01*
X76011975Y-45342598D01*
X75917698Y-45392990D01*
X64892686Y-45392990D01*
X62998696Y-43499000D01*
X68500428Y-43499000D01*
X68512688Y-43623482D01*
X68548998Y-43743180D01*
X68607963Y-43853494D01*
X68687315Y-43950185D01*
X68784006Y-44029537D01*
X68894320Y-44088502D01*
X69014018Y-44124812D01*
X69138500Y-44137072D01*
X69340250Y-44134000D01*
X69499000Y-43975250D01*
X69499000Y-42926000D01*
X68662250Y-42926000D01*
X68503500Y-43084750D01*
X68500428Y-43499000D01*
X62998696Y-43499000D01*
X62176010Y-42676314D01*
X62176010Y-42099000D01*
X68500428Y-42099000D01*
X68503500Y-42513250D01*
X68662250Y-42672000D01*
X69499000Y-42672000D01*
X69499000Y-41622750D01*
X69340250Y-41464000D01*
X69138500Y-41460928D01*
X69014018Y-41473188D01*
X68894320Y-41509498D01*
X68784006Y-41568463D01*
X68687315Y-41647815D01*
X68607963Y-41744506D01*
X68548998Y-41854820D01*
X68512688Y-41974518D01*
X68500428Y-42099000D01*
X62176010Y-42099000D01*
X62176010Y-38011119D01*
X62996351Y-37190780D01*
X63025422Y-37166922D01*
X63035903Y-37154151D01*
X63112285Y-37146628D01*
X63277709Y-37096447D01*
X63430164Y-37014958D01*
X63563792Y-36905292D01*
X63673458Y-36771664D01*
X63754947Y-36619209D01*
X63805128Y-36453785D01*
X63822072Y-36281750D01*
X63822072Y-35794250D01*
X63805128Y-35622215D01*
X63754947Y-35456791D01*
X63673458Y-35304336D01*
X63563792Y-35170708D01*
X63478244Y-35100500D01*
X63563792Y-35030292D01*
X63673458Y-34896664D01*
X63754947Y-34744209D01*
X63805128Y-34578785D01*
X63822072Y-34406750D01*
X63822072Y-33919250D01*
X63805128Y-33747215D01*
X63754947Y-33581791D01*
X63673458Y-33429336D01*
X63563792Y-33295708D01*
X63430164Y-33186042D01*
X63277709Y-33104553D01*
X63112285Y-33054372D01*
X62940250Y-33037428D01*
X62436058Y-33037428D01*
X62199500Y-32800870D01*
X62199500Y-31790072D01*
X62487500Y-31790072D01*
X62611982Y-31777812D01*
X62636766Y-31770294D01*
X62656139Y-31776404D01*
X62755750Y-31787000D01*
X62914500Y-31628250D01*
X62914500Y-31623033D01*
X62938685Y-31603185D01*
X63018037Y-31506494D01*
X63077002Y-31396180D01*
X63113312Y-31276482D01*
X63125572Y-31152000D01*
X63125572Y-30154000D01*
X63160500Y-30154000D01*
X63160500Y-31628250D01*
X63319250Y-31787000D01*
X63418861Y-31776404D01*
X63538152Y-31738779D01*
X63647811Y-31678604D01*
X63743623Y-31598193D01*
X63821906Y-31500634D01*
X63879443Y-31390082D01*
X63923324Y-31457619D01*
X64127248Y-31666857D01*
X64368074Y-31832291D01*
X64636547Y-31947563D01*
X64730610Y-31968476D01*
X64960500Y-31847155D01*
X64960500Y-30154000D01*
X65214500Y-30154000D01*
X65214500Y-31847155D01*
X65444390Y-31968476D01*
X65538453Y-31947563D01*
X65806926Y-31832291D01*
X66047752Y-31666857D01*
X66251676Y-31457619D01*
X66410861Y-31212618D01*
X66519190Y-30941269D01*
X66572500Y-30654000D01*
X66572500Y-30154000D01*
X65214500Y-30154000D01*
X64960500Y-30154000D01*
X63160500Y-30154000D01*
X63125572Y-30154000D01*
X63125572Y-28902000D01*
X63113312Y-28777518D01*
X63077002Y-28657820D01*
X63018037Y-28547506D01*
X62938685Y-28450815D01*
X62914500Y-28430967D01*
X62914500Y-28425750D01*
X63160500Y-28425750D01*
X63160500Y-29900000D01*
X64960500Y-29900000D01*
X64960500Y-28206845D01*
X65214500Y-28206845D01*
X65214500Y-29900000D01*
X66572500Y-29900000D01*
X66572500Y-29400000D01*
X66519190Y-29112731D01*
X66410861Y-28841382D01*
X66251676Y-28596381D01*
X66047752Y-28387143D01*
X65806926Y-28221709D01*
X65538453Y-28106437D01*
X65444390Y-28085524D01*
X65214500Y-28206845D01*
X64960500Y-28206845D01*
X64730610Y-28085524D01*
X64636547Y-28106437D01*
X64368074Y-28221709D01*
X64127248Y-28387143D01*
X63923324Y-28596381D01*
X63879443Y-28663918D01*
X63821906Y-28553366D01*
X63743623Y-28455807D01*
X63647811Y-28375396D01*
X63538152Y-28315221D01*
X63418861Y-28277596D01*
X63319250Y-28267000D01*
X63160500Y-28425750D01*
X62914500Y-28425750D01*
X62755750Y-28267000D01*
X62656139Y-28277596D01*
X62636766Y-28283706D01*
X62611982Y-28276188D01*
X62487500Y-28263928D01*
X61987500Y-28263928D01*
X61863018Y-28276188D01*
X61837500Y-28283929D01*
X61811982Y-28276188D01*
X61687500Y-28263928D01*
X61187500Y-28263928D01*
X61063018Y-28276188D01*
X61037500Y-28283929D01*
X61011982Y-28276188D01*
X60887500Y-28263928D01*
X60387500Y-28263928D01*
X60263018Y-28276188D01*
X60237500Y-28283929D01*
X60211982Y-28276188D01*
X60087500Y-28263928D01*
X59587500Y-28263928D01*
X59463018Y-28276188D01*
X59343320Y-28312498D01*
X59233006Y-28371463D01*
X59136315Y-28450815D01*
X59056963Y-28547506D01*
X58997998Y-28657820D01*
X58995960Y-28664538D01*
X58951676Y-28596381D01*
X58747752Y-28387143D01*
X58506926Y-28221709D01*
X58238453Y-28106437D01*
X58144390Y-28085524D01*
X57914500Y-28206845D01*
X57914500Y-29900000D01*
X57934500Y-29900000D01*
X57934500Y-30154000D01*
X57914500Y-30154000D01*
X57914500Y-31847155D01*
X58144390Y-31968476D01*
X58238453Y-31947563D01*
X58506926Y-31832291D01*
X58747752Y-31666857D01*
X58951676Y-31457619D01*
X58995960Y-31389462D01*
X58997998Y-31396180D01*
X59056963Y-31506494D01*
X59075500Y-31529082D01*
X59075500Y-31667869D01*
X52668899Y-38074471D01*
X52639829Y-38098328D01*
X52615972Y-38127398D01*
X52615971Y-38127399D01*
X52544605Y-38214358D01*
X52473849Y-38346735D01*
X52430277Y-38490372D01*
X52415564Y-38639750D01*
X52419251Y-38677183D01*
X52419251Y-38812921D01*
X52382996Y-38816492D01*
X52216400Y-38867028D01*
X52062864Y-38949095D01*
X51928288Y-39059538D01*
X51817845Y-39194114D01*
X51735778Y-39347650D01*
X51685242Y-39514246D01*
X51668178Y-39687500D01*
X51668178Y-40437500D01*
X51685242Y-40610754D01*
X51735778Y-40777350D01*
X51817845Y-40930886D01*
X51928288Y-41065462D01*
X52062864Y-41175905D01*
X52216400Y-41257972D01*
X52382996Y-41308508D01*
X52556250Y-41325572D01*
X53806250Y-41325572D01*
X53979504Y-41308508D01*
X54146100Y-41257972D01*
X54299636Y-41175905D01*
X54434212Y-41065462D01*
X54544655Y-40930886D01*
X54626722Y-40777350D01*
X54677258Y-40610754D01*
X54694322Y-40437500D01*
X54694322Y-39687500D01*
X54677258Y-39514246D01*
X54626722Y-39347650D01*
X54544655Y-39194114D01*
X54434212Y-39059538D01*
X54299636Y-38949095D01*
X54146100Y-38867028D01*
X54058251Y-38840379D01*
X58361786Y-34536844D01*
X58368872Y-34608785D01*
X58419053Y-34774209D01*
X58500542Y-34926664D01*
X58610208Y-35060292D01*
X58695756Y-35130500D01*
X58610208Y-35200708D01*
X58500542Y-35334336D01*
X58419053Y-35486791D01*
X58368872Y-35652215D01*
X58351928Y-35824250D01*
X58351928Y-36311750D01*
X58368872Y-36483785D01*
X58419053Y-36649209D01*
X58500542Y-36801664D01*
X58610208Y-36935292D01*
X58743836Y-37044958D01*
X58896291Y-37126447D01*
X59061715Y-37176628D01*
X59138098Y-37184151D01*
X59148579Y-37196922D01*
X59177649Y-37220779D01*
X60198000Y-38241131D01*
X60198001Y-43142567D01*
X60194314Y-43180000D01*
X60205117Y-43289685D01*
X59918608Y-43003176D01*
X59892751Y-42971669D01*
X59767052Y-42868511D01*
X59623644Y-42791857D01*
X59468036Y-42744654D01*
X59346763Y-42732710D01*
X59346760Y-42732710D01*
X59306210Y-42728716D01*
X59265660Y-42732710D01*
X54694322Y-42732710D01*
X54694322Y-42487500D01*
X54677258Y-42314246D01*
X54626722Y-42147650D01*
X54544655Y-41994114D01*
X54434212Y-41859538D01*
X54299636Y-41749095D01*
X54146100Y-41667028D01*
X53979504Y-41616492D01*
X53806250Y-41599428D01*
X52556250Y-41599428D01*
X52382996Y-41616492D01*
X52216400Y-41667028D01*
X52062864Y-41749095D01*
X51928288Y-41859538D01*
X51817845Y-41994114D01*
X51735778Y-42147650D01*
X51685242Y-42314246D01*
X51668178Y-42487500D01*
X51668178Y-43237500D01*
X51685242Y-43410754D01*
X51735778Y-43577350D01*
X51817845Y-43730886D01*
X51928288Y-43865462D01*
X52062864Y-43975905D01*
X52216400Y-44057972D01*
X52382996Y-44108508D01*
X52556250Y-44125572D01*
X53274679Y-44125572D01*
X53290419Y-44144751D01*
X53321915Y-44170599D01*
X53321918Y-44170602D01*
X53416117Y-44247909D01*
X53488587Y-44286645D01*
X53559526Y-44324563D01*
X53715134Y-44371766D01*
X53836407Y-44383710D01*
X53836410Y-44383710D01*
X53876960Y-44387704D01*
X53917510Y-44383710D01*
X58964278Y-44383710D01*
X62814597Y-48234029D01*
X62840449Y-48265531D01*
X62883208Y-48300622D01*
X62966147Y-48368689D01*
X63109556Y-48445343D01*
X63265164Y-48492546D01*
X63386437Y-48504490D01*
X63386439Y-48504490D01*
X63426990Y-48508484D01*
X63467540Y-48504490D01*
X69356558Y-48504490D01*
X69781928Y-48929861D01*
X69781928Y-49344250D01*
X69798872Y-49516285D01*
X69849053Y-49681709D01*
X69930542Y-49834164D01*
X70040208Y-49967792D01*
X70046564Y-49973008D01*
X69968815Y-50036815D01*
X69889463Y-50133506D01*
X69830498Y-50243820D01*
X69794188Y-50363518D01*
X69781928Y-50488000D01*
X69785000Y-50689750D01*
X69943750Y-50848500D01*
X70993000Y-50848500D01*
X70993000Y-50828500D01*
X71247000Y-50828500D01*
X71247000Y-50848500D01*
X72296250Y-50848500D01*
X72455000Y-50689750D01*
X72458072Y-50488000D01*
X72445812Y-50363518D01*
X72409502Y-50243820D01*
X72350537Y-50133506D01*
X72271185Y-50036815D01*
X72193436Y-49973008D01*
X72199792Y-49967792D01*
X72309458Y-49834164D01*
X72390947Y-49681709D01*
X72441128Y-49516285D01*
X72458072Y-49344250D01*
X72458072Y-48929861D01*
X72937433Y-48450500D01*
X74556497Y-48450500D01*
X74693744Y-48542205D01*
X74882102Y-48620226D01*
X75043995Y-48652428D01*
X75120501Y-48728934D01*
X75120500Y-49997449D01*
X75116506Y-50038000D01*
X75120500Y-50078550D01*
X75120500Y-50078552D01*
X75132444Y-50199825D01*
X75136410Y-50212898D01*
X75179647Y-50355433D01*
X75256301Y-50498842D01*
X75263822Y-50508006D01*
X75359459Y-50624541D01*
X75390966Y-50650398D01*
X77111611Y-52371045D01*
X77137459Y-52402541D01*
X77168955Y-52428389D01*
X77168958Y-52428392D01*
X77263157Y-52505699D01*
X77381321Y-52568859D01*
X77406566Y-52582353D01*
X77562174Y-52629556D01*
X77683447Y-52641500D01*
X77683449Y-52641500D01*
X77724000Y-52645494D01*
X77764550Y-52641500D01*
X78953450Y-52641500D01*
X78994000Y-52645494D01*
X79034550Y-52641500D01*
X79034553Y-52641500D01*
X79155826Y-52629556D01*
X79311434Y-52582353D01*
X79454842Y-52505699D01*
X79580541Y-52402541D01*
X79606398Y-52371034D01*
X79930034Y-52047398D01*
X79961541Y-52021541D01*
X80064699Y-51895842D01*
X80141353Y-51752434D01*
X80188556Y-51596826D01*
X80194645Y-51535000D01*
X80270752Y-51535000D01*
X80270752Y-51394834D01*
X80314256Y-51430537D01*
X80337417Y-51442917D01*
X80429500Y-51535000D01*
X80543087Y-51525454D01*
X80544268Y-51525812D01*
X80668750Y-51538072D01*
X81218750Y-51538072D01*
X81343232Y-51525812D01*
X81343750Y-51525655D01*
X81344268Y-51525812D01*
X81468750Y-51538072D01*
X82018750Y-51538072D01*
X82143232Y-51525812D01*
X82143750Y-51525655D01*
X82144268Y-51525812D01*
X82268750Y-51538072D01*
X82818750Y-51538072D01*
X82943232Y-51525812D01*
X82943750Y-51525655D01*
X82944268Y-51525812D01*
X83068750Y-51538072D01*
X83618750Y-51538072D01*
X83743232Y-51525812D01*
X83743750Y-51525655D01*
X83744268Y-51525812D01*
X83868750Y-51538072D01*
X84418750Y-51538072D01*
X84543232Y-51525812D01*
X84543750Y-51525655D01*
X84544268Y-51525812D01*
X84668750Y-51538072D01*
X85218750Y-51538072D01*
X85343232Y-51525812D01*
X85343750Y-51525655D01*
X85344268Y-51525812D01*
X85468750Y-51538072D01*
X86018750Y-51538072D01*
X86143232Y-51525812D01*
X86144413Y-51525454D01*
X86258000Y-51535000D01*
X86350083Y-51442917D01*
X86373244Y-51430537D01*
X86416748Y-51394834D01*
X86416748Y-51535000D01*
X86541016Y-51535000D01*
X86559771Y-51596827D01*
X86577397Y-51654933D01*
X86654051Y-51798342D01*
X86668543Y-51816000D01*
X86700879Y-51855402D01*
X86700518Y-51855438D01*
X86580820Y-51891748D01*
X86470506Y-51950713D01*
X86373815Y-52030065D01*
X86294463Y-52126756D01*
X86235498Y-52237070D01*
X86199188Y-52356768D01*
X86186928Y-52481250D01*
X86190000Y-52895500D01*
X86348750Y-53054250D01*
X87185500Y-53054250D01*
X87185500Y-53034250D01*
X87439500Y-53034250D01*
X87439500Y-53054250D01*
X87459500Y-53054250D01*
X87459500Y-53308250D01*
X87439500Y-53308250D01*
X87439500Y-54357500D01*
X87598250Y-54516250D01*
X87800000Y-54519322D01*
X87924482Y-54507062D01*
X88044180Y-54470752D01*
X88154494Y-54411787D01*
X88251185Y-54332435D01*
X88314992Y-54254686D01*
X88320208Y-54261042D01*
X88453836Y-54370708D01*
X88606291Y-54452197D01*
X88771715Y-54502378D01*
X88943750Y-54519322D01*
X89431250Y-54519322D01*
X89603285Y-54502378D01*
X89768709Y-54452197D01*
X89921164Y-54370708D01*
X90054792Y-54261042D01*
X90133202Y-54165500D01*
X90177497Y-54165500D01*
X90314744Y-54257205D01*
X90503102Y-54335226D01*
X90703061Y-54375000D01*
X90906939Y-54375000D01*
X91106898Y-54335226D01*
X91295256Y-54257205D01*
X91464774Y-54143937D01*
X91608937Y-53999774D01*
X91722205Y-53830256D01*
X91800226Y-53641898D01*
X91840000Y-53441939D01*
X91840000Y-53238061D01*
X91800226Y-53038102D01*
X91722205Y-52849744D01*
X91608937Y-52680226D01*
X91464774Y-52536063D01*
X91295256Y-52422795D01*
X91106898Y-52344774D01*
X90906939Y-52305000D01*
X90703061Y-52305000D01*
X90503102Y-52344774D01*
X90314744Y-52422795D01*
X90266433Y-52455075D01*
X90245947Y-52387541D01*
X90164458Y-52235086D01*
X90054792Y-52101458D01*
X89921164Y-51991792D01*
X89768709Y-51910303D01*
X89603285Y-51860122D01*
X89431250Y-51843178D01*
X89016861Y-51843178D01*
X88233763Y-51060081D01*
X88244562Y-51024482D01*
X88256822Y-50900000D01*
X88256822Y-50493750D01*
X91530678Y-50493750D01*
X91542938Y-50618232D01*
X91579248Y-50737930D01*
X91638213Y-50848244D01*
X91717565Y-50944935D01*
X91814256Y-51024287D01*
X91924570Y-51083252D01*
X92044268Y-51119562D01*
X92168750Y-51131822D01*
X92583000Y-51128750D01*
X92741750Y-50970000D01*
X92741750Y-50133250D01*
X92995750Y-50133250D01*
X92995750Y-50970000D01*
X93154500Y-51128750D01*
X93568750Y-51131822D01*
X93693232Y-51119562D01*
X93812930Y-51083252D01*
X93923244Y-51024287D01*
X94019935Y-50944935D01*
X94099287Y-50848244D01*
X94158252Y-50737930D01*
X94194562Y-50618232D01*
X94206822Y-50493750D01*
X94203750Y-50292000D01*
X94045000Y-50133250D01*
X92995750Y-50133250D01*
X92741750Y-50133250D01*
X91692500Y-50133250D01*
X91533750Y-50292000D01*
X91530678Y-50493750D01*
X88256822Y-50493750D01*
X88256822Y-49400000D01*
X88252788Y-49359038D01*
X88293750Y-49363072D01*
X89793750Y-49363072D01*
X89918232Y-49350812D01*
X90037930Y-49314502D01*
X90148244Y-49255537D01*
X90201294Y-49212000D01*
X91612693Y-49212000D01*
X91579248Y-49274570D01*
X91542938Y-49394268D01*
X91530678Y-49518750D01*
X91533750Y-49720500D01*
X91692500Y-49879250D01*
X92741750Y-49879250D01*
X92741750Y-49859250D01*
X92995750Y-49859250D01*
X92995750Y-49879250D01*
X94045000Y-49879250D01*
X94203750Y-49720500D01*
X94206822Y-49518750D01*
X94194562Y-49394268D01*
X94158252Y-49274570D01*
X94099287Y-49164256D01*
X94019935Y-49067565D01*
X93942186Y-49003758D01*
X93948542Y-48998542D01*
X94058208Y-48864914D01*
X94139697Y-48712459D01*
X94189878Y-48547035D01*
X94206822Y-48375000D01*
X94206822Y-47887500D01*
X94189878Y-47715465D01*
X94139697Y-47550041D01*
X94058208Y-47397586D01*
X93948542Y-47263958D01*
X93814914Y-47154292D01*
X93662459Y-47072803D01*
X93497035Y-47022622D01*
X93325000Y-47005678D01*
X92412500Y-47005678D01*
X92240465Y-47022622D01*
X92075041Y-47072803D01*
X91922586Y-47154292D01*
X91788958Y-47263958D01*
X91679292Y-47397586D01*
X91614990Y-47517886D01*
X91527328Y-47589828D01*
X91503462Y-47618909D01*
X91434371Y-47688000D01*
X90431822Y-47688000D01*
X90431822Y-47375000D01*
X90419562Y-47250518D01*
X90419405Y-47250000D01*
X90419562Y-47249482D01*
X90431822Y-47125000D01*
X90431822Y-46708731D01*
X90473142Y-46686645D01*
X90589172Y-46591422D01*
X90613034Y-46562346D01*
X90947379Y-46228000D01*
X95123000Y-46228000D01*
X95123000Y-60833000D01*
X48641000Y-60833000D01*
X48641000Y-54161000D01*
X56015928Y-54161000D01*
X56028188Y-54285482D01*
X56064498Y-54405180D01*
X56123463Y-54515494D01*
X56202815Y-54612185D01*
X56299506Y-54691537D01*
X56409820Y-54750502D01*
X56529518Y-54786812D01*
X56654000Y-54799072D01*
X57268250Y-54796000D01*
X57427000Y-54637250D01*
X57427000Y-53738000D01*
X57681000Y-53738000D01*
X57681000Y-54637250D01*
X57839750Y-54796000D01*
X58454000Y-54799072D01*
X58578482Y-54786812D01*
X58698180Y-54750502D01*
X58808494Y-54691537D01*
X58905185Y-54612185D01*
X58984537Y-54515494D01*
X59043502Y-54405180D01*
X59079812Y-54285482D01*
X59092072Y-54161000D01*
X59089000Y-53896750D01*
X58930250Y-53738000D01*
X57681000Y-53738000D01*
X57427000Y-53738000D01*
X56177750Y-53738000D01*
X56019000Y-53896750D01*
X56015928Y-54161000D01*
X48641000Y-54161000D01*
X48641000Y-53061000D01*
X56015928Y-53061000D01*
X56019000Y-53325250D01*
X56177750Y-53484000D01*
X57427000Y-53484000D01*
X57427000Y-52584750D01*
X57681000Y-52584750D01*
X57681000Y-53484000D01*
X58930250Y-53484000D01*
X59089000Y-53325250D01*
X59092072Y-53061000D01*
X62215928Y-53061000D01*
X62215928Y-54161000D01*
X62228188Y-54285482D01*
X62264498Y-54405180D01*
X62323463Y-54515494D01*
X62402815Y-54612185D01*
X62499506Y-54691537D01*
X62609820Y-54750502D01*
X62729518Y-54786812D01*
X62854000Y-54799072D01*
X64654000Y-54799072D01*
X64778482Y-54786812D01*
X64898180Y-54750502D01*
X65008494Y-54691537D01*
X65105185Y-54612185D01*
X65184537Y-54515494D01*
X65243502Y-54405180D01*
X65279812Y-54285482D01*
X65292072Y-54161000D01*
X65292072Y-53881250D01*
X86186928Y-53881250D01*
X86199188Y-54005732D01*
X86235498Y-54125430D01*
X86294463Y-54235744D01*
X86373815Y-54332435D01*
X86470506Y-54411787D01*
X86580820Y-54470752D01*
X86700518Y-54507062D01*
X86825000Y-54519322D01*
X87026750Y-54516250D01*
X87185500Y-54357500D01*
X87185500Y-53308250D01*
X86348750Y-53308250D01*
X86190000Y-53467000D01*
X86186928Y-53881250D01*
X65292072Y-53881250D01*
X65292072Y-53061000D01*
X65279812Y-52936518D01*
X65243502Y-52816820D01*
X65184537Y-52706506D01*
X65105185Y-52609815D01*
X65008494Y-52530463D01*
X64898180Y-52471498D01*
X64778482Y-52435188D01*
X64654000Y-52422928D01*
X62854000Y-52422928D01*
X62729518Y-52435188D01*
X62609820Y-52471498D01*
X62499506Y-52530463D01*
X62402815Y-52609815D01*
X62323463Y-52706506D01*
X62264498Y-52816820D01*
X62228188Y-52936518D01*
X62215928Y-53061000D01*
X59092072Y-53061000D01*
X59079812Y-52936518D01*
X59043502Y-52816820D01*
X58984537Y-52706506D01*
X58905185Y-52609815D01*
X58808494Y-52530463D01*
X58698180Y-52471498D01*
X58578482Y-52435188D01*
X58454000Y-52422928D01*
X57839750Y-52426000D01*
X57681000Y-52584750D01*
X57427000Y-52584750D01*
X57268250Y-52426000D01*
X56654000Y-52422928D01*
X56529518Y-52435188D01*
X56409820Y-52471498D01*
X56299506Y-52530463D01*
X56202815Y-52609815D01*
X56123463Y-52706506D01*
X56064498Y-52816820D01*
X56028188Y-52936518D01*
X56015928Y-53061000D01*
X48641000Y-53061000D01*
X48641000Y-51463000D01*
X69781928Y-51463000D01*
X69794188Y-51587482D01*
X69830498Y-51707180D01*
X69889463Y-51817494D01*
X69968815Y-51914185D01*
X70065506Y-51993537D01*
X70175820Y-52052502D01*
X70295518Y-52088812D01*
X70420000Y-52101072D01*
X70834250Y-52098000D01*
X70993000Y-51939250D01*
X70993000Y-51102500D01*
X71247000Y-51102500D01*
X71247000Y-51939250D01*
X71405750Y-52098000D01*
X71820000Y-52101072D01*
X71944482Y-52088812D01*
X72064180Y-52052502D01*
X72174494Y-51993537D01*
X72271185Y-51914185D01*
X72350537Y-51817494D01*
X72409502Y-51707180D01*
X72445812Y-51587482D01*
X72458072Y-51463000D01*
X72455000Y-51261250D01*
X72296250Y-51102500D01*
X71247000Y-51102500D01*
X70993000Y-51102500D01*
X69943750Y-51102500D01*
X69785000Y-51261250D01*
X69781928Y-51463000D01*
X48641000Y-51463000D01*
X48641000Y-49361000D01*
X56015928Y-49361000D01*
X56015928Y-50461000D01*
X56028188Y-50585482D01*
X56064498Y-50705180D01*
X56123463Y-50815494D01*
X56202815Y-50912185D01*
X56299506Y-50991537D01*
X56409820Y-51050502D01*
X56529518Y-51086812D01*
X56654000Y-51099072D01*
X58454000Y-51099072D01*
X58578482Y-51086812D01*
X58698180Y-51050502D01*
X58808494Y-50991537D01*
X58905185Y-50912185D01*
X58984537Y-50815494D01*
X59043502Y-50705180D01*
X59079812Y-50585482D01*
X59092072Y-50461000D01*
X59092072Y-49361000D01*
X62215928Y-49361000D01*
X62215928Y-50461000D01*
X62228188Y-50585482D01*
X62264498Y-50705180D01*
X62323463Y-50815494D01*
X62402815Y-50912185D01*
X62499506Y-50991537D01*
X62609820Y-51050502D01*
X62729518Y-51086812D01*
X62854000Y-51099072D01*
X64654000Y-51099072D01*
X64778482Y-51086812D01*
X64898180Y-51050502D01*
X65008494Y-50991537D01*
X65085847Y-50928055D01*
X65176061Y-50946000D01*
X65379939Y-50946000D01*
X65579898Y-50906226D01*
X65768256Y-50828205D01*
X65937774Y-50714937D01*
X66081937Y-50570774D01*
X66195205Y-50401256D01*
X66273226Y-50212898D01*
X66313000Y-50012939D01*
X66313000Y-49809061D01*
X66273226Y-49609102D01*
X66195205Y-49420744D01*
X66081937Y-49251226D01*
X65937774Y-49107063D01*
X65768256Y-48993795D01*
X65579898Y-48915774D01*
X65379939Y-48876000D01*
X65176061Y-48876000D01*
X65085847Y-48893945D01*
X65008494Y-48830463D01*
X64898180Y-48771498D01*
X64778482Y-48735188D01*
X64654000Y-48722928D01*
X62854000Y-48722928D01*
X62729518Y-48735188D01*
X62609820Y-48771498D01*
X62499506Y-48830463D01*
X62402815Y-48909815D01*
X62323463Y-49006506D01*
X62264498Y-49116820D01*
X62228188Y-49236518D01*
X62215928Y-49361000D01*
X59092072Y-49361000D01*
X59079812Y-49236518D01*
X59043502Y-49116820D01*
X58984537Y-49006506D01*
X58905185Y-48909815D01*
X58808494Y-48830463D01*
X58698180Y-48771498D01*
X58578482Y-48735188D01*
X58454000Y-48722928D01*
X56654000Y-48722928D01*
X56529518Y-48735188D01*
X56409820Y-48771498D01*
X56299506Y-48830463D01*
X56202815Y-48909815D01*
X56123463Y-49006506D01*
X56064498Y-49116820D01*
X56028188Y-49236518D01*
X56015928Y-49361000D01*
X48641000Y-49361000D01*
X48641000Y-30154000D01*
X56302500Y-30154000D01*
X56302500Y-30654000D01*
X56355810Y-30941269D01*
X56464139Y-31212618D01*
X56623324Y-31457619D01*
X56827248Y-31666857D01*
X57068074Y-31832291D01*
X57336547Y-31947563D01*
X57430610Y-31968476D01*
X57660500Y-31847155D01*
X57660500Y-30154000D01*
X56302500Y-30154000D01*
X48641000Y-30154000D01*
X48641000Y-29400000D01*
X56302500Y-29400000D01*
X56302500Y-29900000D01*
X57660500Y-29900000D01*
X57660500Y-28206845D01*
X57430610Y-28085524D01*
X57336547Y-28106437D01*
X57068074Y-28221709D01*
X56827248Y-28387143D01*
X56623324Y-28596381D01*
X56464139Y-28841382D01*
X56355810Y-29112731D01*
X56302500Y-29400000D01*
X48641000Y-29400000D01*
X48641000Y-25654000D01*
X56302500Y-25654000D01*
X56302500Y-26154000D01*
X56355810Y-26441269D01*
X56464139Y-26712618D01*
X56623324Y-26957619D01*
X56827248Y-27166857D01*
X57068074Y-27332291D01*
X57336547Y-27447563D01*
X57430610Y-27468476D01*
X57660500Y-27347155D01*
X57660500Y-25654000D01*
X57914500Y-25654000D01*
X57914500Y-27347155D01*
X58144390Y-27468476D01*
X58238453Y-27447563D01*
X58506926Y-27332291D01*
X58747752Y-27166857D01*
X58951676Y-26957619D01*
X59110861Y-26712618D01*
X59219190Y-26441269D01*
X59272500Y-26154000D01*
X59272500Y-25654000D01*
X63602500Y-25654000D01*
X63602500Y-26154000D01*
X63655810Y-26441269D01*
X63764139Y-26712618D01*
X63923324Y-26957619D01*
X64127248Y-27166857D01*
X64368074Y-27332291D01*
X64636547Y-27447563D01*
X64730610Y-27468476D01*
X64960500Y-27347155D01*
X64960500Y-25654000D01*
X65214500Y-25654000D01*
X65214500Y-27347155D01*
X65444390Y-27468476D01*
X65538453Y-27447563D01*
X65806926Y-27332291D01*
X66047752Y-27166857D01*
X66251676Y-26957619D01*
X66410861Y-26712618D01*
X66519190Y-26441269D01*
X66572500Y-26154000D01*
X66572500Y-25654000D01*
X65214500Y-25654000D01*
X64960500Y-25654000D01*
X63602500Y-25654000D01*
X59272500Y-25654000D01*
X57914500Y-25654000D01*
X57660500Y-25654000D01*
X56302500Y-25654000D01*
X48641000Y-25654000D01*
X48641000Y-24678875D01*
X48690410Y-24638000D01*
X56351121Y-24638000D01*
X56302500Y-24900000D01*
G36*
X82931000Y-30656000D02*
G01*
X82951000Y-30656000D01*
X82951000Y-30910000D01*
X82931000Y-30910000D01*
X82931000Y-31859250D01*
X83089750Y-32018000D01*
X83504000Y-32021072D01*
X83626347Y-32009022D01*
X82954684Y-32680686D01*
X82538999Y-32265001D01*
X82538999Y-31997251D01*
X82677000Y-31859250D01*
X82677000Y-30910000D01*
X82657000Y-30910000D01*
X82657000Y-30656000D01*
X82677000Y-30656000D01*
X82677000Y-30636000D01*
X82931000Y-30636000D01*
X82931000Y-30656000D01*
X82931000Y-30656000D01*
G37*
X82931000Y-30656000D02*
X82951000Y-30656000D01*
X82951000Y-30910000D01*
X82931000Y-30910000D01*
X82931000Y-31859250D01*
X83089750Y-32018000D01*
X83504000Y-32021072D01*
X83626347Y-32009022D01*
X82954684Y-32680686D01*
X82538999Y-32265001D01*
X82538999Y-31997251D01*
X82677000Y-31859250D01*
X82677000Y-30910000D01*
X82657000Y-30910000D01*
X82657000Y-30656000D01*
X82677000Y-30656000D01*
X82677000Y-30636000D01*
X82931000Y-30636000D01*
X82931000Y-30656000D01*
M02*
