M48
; DRILL file {KiCad (5.1.4)-1} date 7/18/2024 12:42:32 AM
; FORMAT={-:-/ absolute / inch / decimal}
; #@! TF.CreationDate,2024-07-18T00:42:32-04:00
; #@! TF.GenerationSoftware,Kicad,Pcbnew,(5.1.4)-1
; #@! TF.FileFunction,Plated,1,2,PTH
FMAT,2
INCH
T1C0.0157
T2C0.0276
T3C0.0409
T4C0.0579
%
G90
G05
T1
X2.57Y-1.965
X2.855Y-1.27
X2.96Y-1.29
X2.96Y-1.715
X2.96Y-1.715
X2.96Y-1.875
X3.575Y-2.1
X3.72Y-1.675
T3
X4.825Y-1.5125
X4.925Y-1.5125
X4.825Y-2.2625
X4.925Y-2.2625
X4.075Y-1.5125
X4.175Y-1.5125
X4.075Y-2.2625
X4.175Y-2.2625
T4
X4.725Y-1.2125
X4.975Y-1.1125
X4.725Y-1.9625
X4.975Y-1.8625
X3.975Y-1.2125
X4.225Y-1.1125
X3.975Y-1.9625
X4.225Y-1.8625
T2
G00X2.2751Y-0.9814
M15
G01X2.2751Y-1.0286
M16
G05
G00X2.2751Y-1.1585
M15
G01X2.2751Y-1.2058
M16
G05
G00X2.5625Y-0.9814
M15
G01X2.5625Y-1.0286
M16
G05
G00X2.5625Y-1.1585
M15
G01X2.5625Y-1.2058
M16
G05
T0
M30
