G04 #@! TF.GenerationSoftware,KiCad,Pcbnew,(5.1.4)-1*
G04 #@! TF.CreationDate,2024-07-18T00:41:49-04:00*
G04 #@! TF.ProjectId,ai03-pcb-guide,61693033-2d70-4636-922d-67756964652e,rev?*
G04 #@! TF.SameCoordinates,Original*
G04 #@! TF.FileFunction,Legend,Bot*
G04 #@! TF.FilePolarity,Positive*
%FSLAX46Y46*%
G04 Gerber Fmt 4.6, Leading zero omitted, Abs format (unit mm)*
G04 Created by KiCad (PCBNEW (5.1.4)-1) date 2024-07-18 00:41:49*
%MOMM*%
%LPD*%
G04 APERTURE LIST*
%ADD10C,0.120000*%
%ADD11C,0.150000*%
%ADD12C,2.352000*%
%ADD13C,4.089800*%
%ADD14C,2.007000*%
%ADD15R,2.007000X2.007000*%
%ADD16C,1.852000*%
%ADD17R,1.502000X1.302000*%
%ADD18R,0.602000X2.352000*%
%ADD19O,1.802000X2.802000*%
%ADD20R,0.652000X1.602000*%
%ADD21R,1.602000X0.652000*%
%ADD22R,1.902000X1.202000*%
%ADD23C,0.100000*%
%ADD24C,1.077000*%
%ADD25C,1.352000*%
%ADD26R,1.302000X1.002000*%
G04 APERTURE END LIST*
D10*
X85904000Y-28283000D02*
X85904000Y-31583000D01*
X85904000Y-31583000D02*
X81904000Y-31583000D01*
D11*
X57587500Y-30977000D02*
X65287500Y-30977000D01*
X65287500Y-25527000D02*
X65287500Y-30977000D01*
X57587500Y-25527000D02*
X57587500Y-30977000D01*
X78168750Y-49050000D02*
X76893750Y-49050000D01*
X88518750Y-49625000D02*
X87843750Y-49625000D01*
X88518750Y-39275000D02*
X87843750Y-39275000D01*
X78168750Y-39275000D02*
X78843750Y-39275000D01*
X78168750Y-49625000D02*
X78843750Y-49625000D01*
X78168750Y-39275000D02*
X78168750Y-39950000D01*
X88518750Y-39275000D02*
X88518750Y-39950000D01*
X88518750Y-49625000D02*
X88518750Y-48950000D01*
X78168750Y-49625000D02*
X78168750Y-49050000D01*
X61654000Y-51761000D02*
G75*
G03X61654000Y-51761000I-1000000J0D01*
G01*
X63254000Y-54361000D02*
X63254000Y-49161000D01*
X58054000Y-54361000D02*
X63254000Y-54361000D01*
X58054000Y-49161000D02*
X58054000Y-54361000D01*
X63254000Y-49161000D02*
X58054000Y-49161000D01*
D10*
X92158750Y-49327328D02*
X92158750Y-48810172D01*
X93578750Y-49327328D02*
X93578750Y-48810172D01*
X58980000Y-35389078D02*
X58980000Y-34871922D01*
X60400000Y-35389078D02*
X60400000Y-34871922D01*
X61774000Y-35359078D02*
X61774000Y-34841922D01*
X63194000Y-35359078D02*
X63194000Y-34841922D01*
X73204000Y-32331922D02*
X73204000Y-32849078D01*
X74624000Y-32331922D02*
X74624000Y-32849078D01*
X52271250Y-42064564D02*
X52271250Y-40860436D01*
X54091250Y-42064564D02*
X54091250Y-40860436D01*
X132762500Y-54637500D02*
X132762500Y-50737500D01*
X130762500Y-54637500D02*
X130762500Y-50737500D01*
X132762500Y-54637500D02*
X130762500Y-54637500D01*
X113712500Y-54637500D02*
X113712500Y-50737500D01*
X111712500Y-54637500D02*
X111712500Y-50737500D01*
X113712500Y-54637500D02*
X111712500Y-54637500D01*
X132762500Y-35587500D02*
X132762500Y-31687500D01*
X130762500Y-35587500D02*
X130762500Y-31687500D01*
X132762500Y-35587500D02*
X130762500Y-35587500D01*
X113712500Y-35587500D02*
X113712500Y-31687500D01*
X111712500Y-35587500D02*
X111712500Y-31687500D01*
X113712500Y-35587500D02*
X111712500Y-35587500D01*
X71830000Y-49779422D02*
X71830000Y-50296578D01*
X70410000Y-49779422D02*
X70410000Y-50296578D01*
X88508578Y-53891250D02*
X87991422Y-53891250D01*
X88508578Y-52471250D02*
X87991422Y-52471250D01*
X92158750Y-41677328D02*
X92158750Y-41160172D01*
X93578750Y-41677328D02*
X93578750Y-41160172D01*
X77449750Y-33581078D02*
X77449750Y-33063922D01*
X76029750Y-33581078D02*
X76029750Y-33063922D01*
X70822078Y-43509000D02*
X70304922Y-43509000D01*
X70822078Y-42089000D02*
X70304922Y-42089000D01*
X78792000Y-29253922D02*
X78792000Y-29771078D01*
X80212000Y-29253922D02*
X80212000Y-29771078D01*
X89610000Y-30279078D02*
X89610000Y-29761922D01*
X88190000Y-30279078D02*
X88190000Y-29761922D01*
D11*
X84380190Y-27459190D02*
X84380190Y-27935380D01*
X84713523Y-26935380D02*
X84380190Y-27459190D01*
X84046857Y-26935380D01*
X83189714Y-27935380D02*
X83761142Y-27935380D01*
X83475428Y-27935380D02*
X83475428Y-26935380D01*
X83570666Y-27078238D01*
X83665904Y-27173476D01*
X83761142Y-27221095D01*
X63175595Y-27011380D02*
X63175595Y-27820904D01*
X63127976Y-27916142D01*
X63080357Y-27963761D01*
X62985119Y-28011380D01*
X62794642Y-28011380D01*
X62699404Y-27963761D01*
X62651785Y-27916142D01*
X62604166Y-27820904D01*
X62604166Y-27011380D01*
X62175595Y-27963761D02*
X62032738Y-28011380D01*
X61794642Y-28011380D01*
X61699404Y-27963761D01*
X61651785Y-27916142D01*
X61604166Y-27820904D01*
X61604166Y-27725666D01*
X61651785Y-27630428D01*
X61699404Y-27582809D01*
X61794642Y-27535190D01*
X61985119Y-27487571D01*
X62080357Y-27439952D01*
X62127976Y-27392333D01*
X62175595Y-27297095D01*
X62175595Y-27201857D01*
X62127976Y-27106619D01*
X62080357Y-27059000D01*
X61985119Y-27011380D01*
X61747023Y-27011380D01*
X61604166Y-27059000D01*
X60842261Y-27487571D02*
X60699404Y-27535190D01*
X60651785Y-27582809D01*
X60604166Y-27678047D01*
X60604166Y-27820904D01*
X60651785Y-27916142D01*
X60699404Y-27963761D01*
X60794642Y-28011380D01*
X61175595Y-28011380D01*
X61175595Y-27011380D01*
X60842261Y-27011380D01*
X60747023Y-27059000D01*
X60699404Y-27106619D01*
X60651785Y-27201857D01*
X60651785Y-27297095D01*
X60699404Y-27392333D01*
X60747023Y-27439952D01*
X60842261Y-27487571D01*
X61175595Y-27487571D01*
X59651785Y-28011380D02*
X60223214Y-28011380D01*
X59937500Y-28011380D02*
X59937500Y-27011380D01*
X60032738Y-27154238D01*
X60127976Y-27249476D01*
X60223214Y-27297095D01*
X84105654Y-51352380D02*
X84105654Y-52161904D01*
X84058035Y-52257142D01*
X84010416Y-52304761D01*
X83915178Y-52352380D01*
X83724702Y-52352380D01*
X83629464Y-52304761D01*
X83581845Y-52257142D01*
X83534226Y-52161904D01*
X83534226Y-51352380D01*
X82534226Y-52352380D02*
X83105654Y-52352380D01*
X82819940Y-52352380D02*
X82819940Y-51352380D01*
X82915178Y-51495238D01*
X83010416Y-51590476D01*
X83105654Y-51638095D01*
X61987333Y-56229761D02*
X61844476Y-56277380D01*
X61606380Y-56277380D01*
X61511142Y-56229761D01*
X61463523Y-56182142D01*
X61415904Y-56086904D01*
X61415904Y-55991666D01*
X61463523Y-55896428D01*
X61511142Y-55848809D01*
X61606380Y-55801190D01*
X61796857Y-55753571D01*
X61892095Y-55705952D01*
X61939714Y-55658333D01*
X61987333Y-55563095D01*
X61987333Y-55467857D01*
X61939714Y-55372619D01*
X61892095Y-55325000D01*
X61796857Y-55277380D01*
X61558761Y-55277380D01*
X61415904Y-55325000D01*
X61082571Y-55277380D02*
X60844476Y-56277380D01*
X60654000Y-55563095D01*
X60463523Y-56277380D01*
X60225428Y-55277380D01*
X59320666Y-56277380D02*
X59892095Y-56277380D01*
X59606380Y-56277380D02*
X59606380Y-55277380D01*
X59701619Y-55420238D01*
X59796857Y-55515476D01*
X59892095Y-55563095D01*
X94971130Y-48902083D02*
X94494940Y-48568750D01*
X94971130Y-48330654D02*
X93971130Y-48330654D01*
X93971130Y-48711607D01*
X94018750Y-48806845D01*
X94066369Y-48854464D01*
X94161607Y-48902083D01*
X94304464Y-48902083D01*
X94399702Y-48854464D01*
X94447321Y-48806845D01*
X94494940Y-48711607D01*
X94494940Y-48330654D01*
X94304464Y-49759226D02*
X94971130Y-49759226D01*
X93923511Y-49521130D02*
X94637797Y-49283035D01*
X94637797Y-49902083D01*
X61792380Y-34963833D02*
X61316190Y-34630500D01*
X61792380Y-34392404D02*
X60792380Y-34392404D01*
X60792380Y-34773357D01*
X60840000Y-34868595D01*
X60887619Y-34916214D01*
X60982857Y-34963833D01*
X61125714Y-34963833D01*
X61220952Y-34916214D01*
X61268571Y-34868595D01*
X61316190Y-34773357D01*
X61316190Y-34392404D01*
X60792380Y-35297166D02*
X60792380Y-35916214D01*
X61173333Y-35582880D01*
X61173333Y-35725738D01*
X61220952Y-35820976D01*
X61268571Y-35868595D01*
X61363809Y-35916214D01*
X61601904Y-35916214D01*
X61697142Y-35868595D01*
X61744761Y-35820976D01*
X61792380Y-35725738D01*
X61792380Y-35440023D01*
X61744761Y-35344785D01*
X61697142Y-35297166D01*
X64586380Y-34933833D02*
X64110190Y-34600500D01*
X64586380Y-34362404D02*
X63586380Y-34362404D01*
X63586380Y-34743357D01*
X63634000Y-34838595D01*
X63681619Y-34886214D01*
X63776857Y-34933833D01*
X63919714Y-34933833D01*
X64014952Y-34886214D01*
X64062571Y-34838595D01*
X64110190Y-34743357D01*
X64110190Y-34362404D01*
X63681619Y-35314785D02*
X63634000Y-35362404D01*
X63586380Y-35457642D01*
X63586380Y-35695738D01*
X63634000Y-35790976D01*
X63681619Y-35838595D01*
X63776857Y-35886214D01*
X63872095Y-35886214D01*
X64014952Y-35838595D01*
X64586380Y-35267166D01*
X64586380Y-35886214D01*
X72716380Y-32423833D02*
X72240190Y-32090500D01*
X72716380Y-31852404D02*
X71716380Y-31852404D01*
X71716380Y-32233357D01*
X71764000Y-32328595D01*
X71811619Y-32376214D01*
X71906857Y-32423833D01*
X72049714Y-32423833D01*
X72144952Y-32376214D01*
X72192571Y-32328595D01*
X72240190Y-32233357D01*
X72240190Y-31852404D01*
X72716380Y-33376214D02*
X72716380Y-32804785D01*
X72716380Y-33090500D02*
X71716380Y-33090500D01*
X71859238Y-32995261D01*
X71954476Y-32900023D01*
X72002095Y-32804785D01*
X54929821Y-41129166D02*
X54929821Y-40795833D01*
X55453630Y-40795833D02*
X54453630Y-40795833D01*
X54453630Y-41272023D01*
X55453630Y-42176785D02*
X55453630Y-41605357D01*
X55453630Y-41891071D02*
X54453630Y-41891071D01*
X54596488Y-41795833D01*
X54691726Y-41700595D01*
X54739345Y-41605357D01*
X134214880Y-51649404D02*
X133214880Y-51649404D01*
X133214880Y-51887500D01*
X133262500Y-52030357D01*
X133357738Y-52125595D01*
X133452976Y-52173214D01*
X133643452Y-52220833D01*
X133786309Y-52220833D01*
X133976785Y-52173214D01*
X134072023Y-52125595D01*
X134167261Y-52030357D01*
X134214880Y-51887500D01*
X134214880Y-51649404D01*
X133548214Y-53077976D02*
X134214880Y-53077976D01*
X133167261Y-52839880D02*
X133881547Y-52601785D01*
X133881547Y-53220833D01*
X115164880Y-51649404D02*
X114164880Y-51649404D01*
X114164880Y-51887500D01*
X114212500Y-52030357D01*
X114307738Y-52125595D01*
X114402976Y-52173214D01*
X114593452Y-52220833D01*
X114736309Y-52220833D01*
X114926785Y-52173214D01*
X115022023Y-52125595D01*
X115117261Y-52030357D01*
X115164880Y-51887500D01*
X115164880Y-51649404D01*
X114164880Y-52554166D02*
X114164880Y-53173214D01*
X114545833Y-52839880D01*
X114545833Y-52982738D01*
X114593452Y-53077976D01*
X114641071Y-53125595D01*
X114736309Y-53173214D01*
X114974404Y-53173214D01*
X115069642Y-53125595D01*
X115117261Y-53077976D01*
X115164880Y-52982738D01*
X115164880Y-52697023D01*
X115117261Y-52601785D01*
X115069642Y-52554166D01*
X134214880Y-32599404D02*
X133214880Y-32599404D01*
X133214880Y-32837500D01*
X133262500Y-32980357D01*
X133357738Y-33075595D01*
X133452976Y-33123214D01*
X133643452Y-33170833D01*
X133786309Y-33170833D01*
X133976785Y-33123214D01*
X134072023Y-33075595D01*
X134167261Y-32980357D01*
X134214880Y-32837500D01*
X134214880Y-32599404D01*
X133310119Y-33551785D02*
X133262500Y-33599404D01*
X133214880Y-33694642D01*
X133214880Y-33932738D01*
X133262500Y-34027976D01*
X133310119Y-34075595D01*
X133405357Y-34123214D01*
X133500595Y-34123214D01*
X133643452Y-34075595D01*
X134214880Y-33504166D01*
X134214880Y-34123214D01*
X115164880Y-32599404D02*
X114164880Y-32599404D01*
X114164880Y-32837500D01*
X114212500Y-32980357D01*
X114307738Y-33075595D01*
X114402976Y-33123214D01*
X114593452Y-33170833D01*
X114736309Y-33170833D01*
X114926785Y-33123214D01*
X115022023Y-33075595D01*
X115117261Y-32980357D01*
X115164880Y-32837500D01*
X115164880Y-32599404D01*
X115164880Y-34123214D02*
X115164880Y-33551785D01*
X115164880Y-33837500D02*
X114164880Y-33837500D01*
X114307738Y-33742261D01*
X114402976Y-33647023D01*
X114450595Y-33551785D01*
X69827142Y-49871333D02*
X69874761Y-49823714D01*
X69922380Y-49680857D01*
X69922380Y-49585619D01*
X69874761Y-49442761D01*
X69779523Y-49347523D01*
X69684285Y-49299904D01*
X69493809Y-49252285D01*
X69350952Y-49252285D01*
X69160476Y-49299904D01*
X69065238Y-49347523D01*
X68970000Y-49442761D01*
X68922380Y-49585619D01*
X68922380Y-49680857D01*
X68970000Y-49823714D01*
X69017619Y-49871333D01*
X68922380Y-50204666D02*
X68922380Y-50871333D01*
X69922380Y-50442761D01*
X88416666Y-51888392D02*
X88464285Y-51936011D01*
X88607142Y-51983630D01*
X88702380Y-51983630D01*
X88845238Y-51936011D01*
X88940476Y-51840773D01*
X88988095Y-51745535D01*
X89035714Y-51555059D01*
X89035714Y-51412202D01*
X88988095Y-51221726D01*
X88940476Y-51126488D01*
X88845238Y-51031250D01*
X88702380Y-50983630D01*
X88607142Y-50983630D01*
X88464285Y-51031250D01*
X88416666Y-51078869D01*
X87559523Y-50983630D02*
X87750000Y-50983630D01*
X87845238Y-51031250D01*
X87892857Y-51078869D01*
X87988095Y-51221726D01*
X88035714Y-51412202D01*
X88035714Y-51793154D01*
X87988095Y-51888392D01*
X87940476Y-51936011D01*
X87845238Y-51983630D01*
X87654761Y-51983630D01*
X87559523Y-51936011D01*
X87511904Y-51888392D01*
X87464285Y-51793154D01*
X87464285Y-51555059D01*
X87511904Y-51459821D01*
X87559523Y-51412202D01*
X87654761Y-51364583D01*
X87845238Y-51364583D01*
X87940476Y-51412202D01*
X87988095Y-51459821D01*
X88035714Y-51555059D01*
X94875892Y-41252083D02*
X94923511Y-41204464D01*
X94971130Y-41061607D01*
X94971130Y-40966369D01*
X94923511Y-40823511D01*
X94828273Y-40728273D01*
X94733035Y-40680654D01*
X94542559Y-40633035D01*
X94399702Y-40633035D01*
X94209226Y-40680654D01*
X94113988Y-40728273D01*
X94018750Y-40823511D01*
X93971130Y-40966369D01*
X93971130Y-41061607D01*
X94018750Y-41204464D01*
X94066369Y-41252083D01*
X93971130Y-42156845D02*
X93971130Y-41680654D01*
X94447321Y-41633035D01*
X94399702Y-41680654D01*
X94352083Y-41775892D01*
X94352083Y-42013988D01*
X94399702Y-42109226D01*
X94447321Y-42156845D01*
X94542559Y-42204464D01*
X94780654Y-42204464D01*
X94875892Y-42156845D01*
X94923511Y-42109226D01*
X94971130Y-42013988D01*
X94971130Y-41775892D01*
X94923511Y-41680654D01*
X94875892Y-41633035D01*
X78746892Y-33155833D02*
X78794511Y-33108214D01*
X78842130Y-32965357D01*
X78842130Y-32870119D01*
X78794511Y-32727261D01*
X78699273Y-32632023D01*
X78604035Y-32584404D01*
X78413559Y-32536785D01*
X78270702Y-32536785D01*
X78080226Y-32584404D01*
X77984988Y-32632023D01*
X77889750Y-32727261D01*
X77842130Y-32870119D01*
X77842130Y-32965357D01*
X77889750Y-33108214D01*
X77937369Y-33155833D01*
X78175464Y-34012976D02*
X78842130Y-34012976D01*
X77794511Y-33774880D02*
X78508797Y-33536785D01*
X78508797Y-34155833D01*
X70730166Y-41506142D02*
X70777785Y-41553761D01*
X70920642Y-41601380D01*
X71015880Y-41601380D01*
X71158738Y-41553761D01*
X71253976Y-41458523D01*
X71301595Y-41363285D01*
X71349214Y-41172809D01*
X71349214Y-41029952D01*
X71301595Y-40839476D01*
X71253976Y-40744238D01*
X71158738Y-40649000D01*
X71015880Y-40601380D01*
X70920642Y-40601380D01*
X70777785Y-40649000D01*
X70730166Y-40696619D01*
X70396833Y-40601380D02*
X69777785Y-40601380D01*
X70111119Y-40982333D01*
X69968261Y-40982333D01*
X69873023Y-41029952D01*
X69825404Y-41077571D01*
X69777785Y-41172809D01*
X69777785Y-41410904D01*
X69825404Y-41506142D01*
X69873023Y-41553761D01*
X69968261Y-41601380D01*
X70253976Y-41601380D01*
X70349214Y-41553761D01*
X70396833Y-41506142D01*
X78209142Y-29345833D02*
X78256761Y-29298214D01*
X78304380Y-29155357D01*
X78304380Y-29060119D01*
X78256761Y-28917261D01*
X78161523Y-28822023D01*
X78066285Y-28774404D01*
X77875809Y-28726785D01*
X77732952Y-28726785D01*
X77542476Y-28774404D01*
X77447238Y-28822023D01*
X77352000Y-28917261D01*
X77304380Y-29060119D01*
X77304380Y-29155357D01*
X77352000Y-29298214D01*
X77399619Y-29345833D01*
X77399619Y-29726785D02*
X77352000Y-29774404D01*
X77304380Y-29869642D01*
X77304380Y-30107738D01*
X77352000Y-30202976D01*
X77399619Y-30250595D01*
X77494857Y-30298214D01*
X77590095Y-30298214D01*
X77732952Y-30250595D01*
X78304380Y-29679166D01*
X78304380Y-30298214D01*
X90907142Y-29853833D02*
X90954761Y-29806214D01*
X91002380Y-29663357D01*
X91002380Y-29568119D01*
X90954761Y-29425261D01*
X90859523Y-29330023D01*
X90764285Y-29282404D01*
X90573809Y-29234785D01*
X90430952Y-29234785D01*
X90240476Y-29282404D01*
X90145238Y-29330023D01*
X90050000Y-29425261D01*
X90002380Y-29568119D01*
X90002380Y-29663357D01*
X90050000Y-29806214D01*
X90097619Y-29853833D01*
X91002380Y-30806214D02*
X91002380Y-30234785D01*
X91002380Y-30520500D02*
X90002380Y-30520500D01*
X90145238Y-30425261D01*
X90240476Y-30330023D01*
X90288095Y-30234785D01*
%LPC*%
D12*
X126365000Y-28257500D03*
D13*
X123825000Y-33337500D03*
D12*
X120015000Y-30797500D03*
D14*
X122555000Y-38417500D03*
D15*
X125095000Y-38417500D03*
D16*
X118745000Y-33337500D03*
X128905000Y-33337500D03*
D17*
X85004000Y-30783000D03*
X82804000Y-30783000D03*
X82804000Y-29083000D03*
X85004000Y-29083000D03*
D18*
X63037500Y-30027000D03*
X62237500Y-30027000D03*
X61437500Y-30027000D03*
X60637500Y-30027000D03*
X59837500Y-30027000D03*
D19*
X57787500Y-30027000D03*
X65087500Y-30027000D03*
X65087500Y-25527000D03*
X57787500Y-25527000D03*
D20*
X79343750Y-50150000D03*
X80143750Y-50150000D03*
X80943750Y-50150000D03*
X81743750Y-50150000D03*
X82543750Y-50150000D03*
X83343750Y-50150000D03*
X84143750Y-50150000D03*
X84943750Y-50150000D03*
X85743750Y-50150000D03*
X86543750Y-50150000D03*
X87343750Y-50150000D03*
D21*
X89043750Y-48450000D03*
X89043750Y-47650000D03*
X89043750Y-46850000D03*
X89043750Y-46050000D03*
X89043750Y-45250000D03*
X89043750Y-44450000D03*
X89043750Y-43650000D03*
X89043750Y-42850000D03*
X89043750Y-42050000D03*
X89043750Y-41250000D03*
X89043750Y-40450000D03*
D20*
X87343750Y-38750000D03*
X86543750Y-38750000D03*
X85743750Y-38750000D03*
X84943750Y-38750000D03*
X84143750Y-38750000D03*
X83343750Y-38750000D03*
X82543750Y-38750000D03*
X81743750Y-38750000D03*
X80943750Y-38750000D03*
X80143750Y-38750000D03*
X79343750Y-38750000D03*
D21*
X77643750Y-40450000D03*
X77643750Y-41250000D03*
X77643750Y-42050000D03*
X77643750Y-42850000D03*
X77643750Y-43650000D03*
X77643750Y-44450000D03*
X77643750Y-45250000D03*
X77643750Y-46050000D03*
X77643750Y-46850000D03*
X77643750Y-47650000D03*
X77643750Y-48450000D03*
D22*
X57554000Y-53611000D03*
X63754000Y-49911000D03*
X57554000Y-49911000D03*
X63754000Y-53611000D03*
D23*
G36*
X93376891Y-47594047D02*
G01*
X93403028Y-47597924D01*
X93428659Y-47604344D01*
X93453538Y-47613245D01*
X93477424Y-47624543D01*
X93500087Y-47638127D01*
X93521310Y-47653867D01*
X93540889Y-47671611D01*
X93558633Y-47691190D01*
X93574373Y-47712413D01*
X93587957Y-47735076D01*
X93599255Y-47758962D01*
X93608156Y-47783841D01*
X93614576Y-47809472D01*
X93618453Y-47835609D01*
X93619750Y-47862000D01*
X93619750Y-48400500D01*
X93618453Y-48426891D01*
X93614576Y-48453028D01*
X93608156Y-48478659D01*
X93599255Y-48503538D01*
X93587957Y-48527424D01*
X93574373Y-48550087D01*
X93558633Y-48571310D01*
X93540889Y-48590889D01*
X93521310Y-48608633D01*
X93500087Y-48624373D01*
X93477424Y-48637957D01*
X93453538Y-48649255D01*
X93428659Y-48658156D01*
X93403028Y-48664576D01*
X93376891Y-48668453D01*
X93350500Y-48669750D01*
X92387000Y-48669750D01*
X92360609Y-48668453D01*
X92334472Y-48664576D01*
X92308841Y-48658156D01*
X92283962Y-48649255D01*
X92260076Y-48637957D01*
X92237413Y-48624373D01*
X92216190Y-48608633D01*
X92196611Y-48590889D01*
X92178867Y-48571310D01*
X92163127Y-48550087D01*
X92149543Y-48527424D01*
X92138245Y-48503538D01*
X92129344Y-48478659D01*
X92122924Y-48453028D01*
X92119047Y-48426891D01*
X92117750Y-48400500D01*
X92117750Y-47862000D01*
X92119047Y-47835609D01*
X92122924Y-47809472D01*
X92129344Y-47783841D01*
X92138245Y-47758962D01*
X92149543Y-47735076D01*
X92163127Y-47712413D01*
X92178867Y-47691190D01*
X92196611Y-47671611D01*
X92216190Y-47653867D01*
X92237413Y-47638127D01*
X92260076Y-47624543D01*
X92283962Y-47613245D01*
X92308841Y-47604344D01*
X92334472Y-47597924D01*
X92360609Y-47594047D01*
X92387000Y-47592750D01*
X93350500Y-47592750D01*
X93376891Y-47594047D01*
X93376891Y-47594047D01*
G37*
D24*
X92868750Y-48131250D03*
D23*
G36*
X93376891Y-49469047D02*
G01*
X93403028Y-49472924D01*
X93428659Y-49479344D01*
X93453538Y-49488245D01*
X93477424Y-49499543D01*
X93500087Y-49513127D01*
X93521310Y-49528867D01*
X93540889Y-49546611D01*
X93558633Y-49566190D01*
X93574373Y-49587413D01*
X93587957Y-49610076D01*
X93599255Y-49633962D01*
X93608156Y-49658841D01*
X93614576Y-49684472D01*
X93618453Y-49710609D01*
X93619750Y-49737000D01*
X93619750Y-50275500D01*
X93618453Y-50301891D01*
X93614576Y-50328028D01*
X93608156Y-50353659D01*
X93599255Y-50378538D01*
X93587957Y-50402424D01*
X93574373Y-50425087D01*
X93558633Y-50446310D01*
X93540889Y-50465889D01*
X93521310Y-50483633D01*
X93500087Y-50499373D01*
X93477424Y-50512957D01*
X93453538Y-50524255D01*
X93428659Y-50533156D01*
X93403028Y-50539576D01*
X93376891Y-50543453D01*
X93350500Y-50544750D01*
X92387000Y-50544750D01*
X92360609Y-50543453D01*
X92334472Y-50539576D01*
X92308841Y-50533156D01*
X92283962Y-50524255D01*
X92260076Y-50512957D01*
X92237413Y-50499373D01*
X92216190Y-50483633D01*
X92196611Y-50465889D01*
X92178867Y-50446310D01*
X92163127Y-50425087D01*
X92149543Y-50402424D01*
X92138245Y-50378538D01*
X92129344Y-50353659D01*
X92122924Y-50328028D01*
X92119047Y-50301891D01*
X92117750Y-50275500D01*
X92117750Y-49737000D01*
X92119047Y-49710609D01*
X92122924Y-49684472D01*
X92129344Y-49658841D01*
X92138245Y-49633962D01*
X92149543Y-49610076D01*
X92163127Y-49587413D01*
X92178867Y-49566190D01*
X92196611Y-49546611D01*
X92216190Y-49528867D01*
X92237413Y-49513127D01*
X92260076Y-49499543D01*
X92283962Y-49488245D01*
X92308841Y-49479344D01*
X92334472Y-49472924D01*
X92360609Y-49469047D01*
X92387000Y-49467750D01*
X93350500Y-49467750D01*
X93376891Y-49469047D01*
X93376891Y-49469047D01*
G37*
D24*
X92868750Y-50006250D03*
D23*
G36*
X60198141Y-33655797D02*
G01*
X60224278Y-33659674D01*
X60249909Y-33666094D01*
X60274788Y-33674995D01*
X60298674Y-33686293D01*
X60321337Y-33699877D01*
X60342560Y-33715617D01*
X60362139Y-33733361D01*
X60379883Y-33752940D01*
X60395623Y-33774163D01*
X60409207Y-33796826D01*
X60420505Y-33820712D01*
X60429406Y-33845591D01*
X60435826Y-33871222D01*
X60439703Y-33897359D01*
X60441000Y-33923750D01*
X60441000Y-34462250D01*
X60439703Y-34488641D01*
X60435826Y-34514778D01*
X60429406Y-34540409D01*
X60420505Y-34565288D01*
X60409207Y-34589174D01*
X60395623Y-34611837D01*
X60379883Y-34633060D01*
X60362139Y-34652639D01*
X60342560Y-34670383D01*
X60321337Y-34686123D01*
X60298674Y-34699707D01*
X60274788Y-34711005D01*
X60249909Y-34719906D01*
X60224278Y-34726326D01*
X60198141Y-34730203D01*
X60171750Y-34731500D01*
X59208250Y-34731500D01*
X59181859Y-34730203D01*
X59155722Y-34726326D01*
X59130091Y-34719906D01*
X59105212Y-34711005D01*
X59081326Y-34699707D01*
X59058663Y-34686123D01*
X59037440Y-34670383D01*
X59017861Y-34652639D01*
X59000117Y-34633060D01*
X58984377Y-34611837D01*
X58970793Y-34589174D01*
X58959495Y-34565288D01*
X58950594Y-34540409D01*
X58944174Y-34514778D01*
X58940297Y-34488641D01*
X58939000Y-34462250D01*
X58939000Y-33923750D01*
X58940297Y-33897359D01*
X58944174Y-33871222D01*
X58950594Y-33845591D01*
X58959495Y-33820712D01*
X58970793Y-33796826D01*
X58984377Y-33774163D01*
X59000117Y-33752940D01*
X59017861Y-33733361D01*
X59037440Y-33715617D01*
X59058663Y-33699877D01*
X59081326Y-33686293D01*
X59105212Y-33674995D01*
X59130091Y-33666094D01*
X59155722Y-33659674D01*
X59181859Y-33655797D01*
X59208250Y-33654500D01*
X60171750Y-33654500D01*
X60198141Y-33655797D01*
X60198141Y-33655797D01*
G37*
D24*
X59690000Y-34193000D03*
D23*
G36*
X60198141Y-35530797D02*
G01*
X60224278Y-35534674D01*
X60249909Y-35541094D01*
X60274788Y-35549995D01*
X60298674Y-35561293D01*
X60321337Y-35574877D01*
X60342560Y-35590617D01*
X60362139Y-35608361D01*
X60379883Y-35627940D01*
X60395623Y-35649163D01*
X60409207Y-35671826D01*
X60420505Y-35695712D01*
X60429406Y-35720591D01*
X60435826Y-35746222D01*
X60439703Y-35772359D01*
X60441000Y-35798750D01*
X60441000Y-36337250D01*
X60439703Y-36363641D01*
X60435826Y-36389778D01*
X60429406Y-36415409D01*
X60420505Y-36440288D01*
X60409207Y-36464174D01*
X60395623Y-36486837D01*
X60379883Y-36508060D01*
X60362139Y-36527639D01*
X60342560Y-36545383D01*
X60321337Y-36561123D01*
X60298674Y-36574707D01*
X60274788Y-36586005D01*
X60249909Y-36594906D01*
X60224278Y-36601326D01*
X60198141Y-36605203D01*
X60171750Y-36606500D01*
X59208250Y-36606500D01*
X59181859Y-36605203D01*
X59155722Y-36601326D01*
X59130091Y-36594906D01*
X59105212Y-36586005D01*
X59081326Y-36574707D01*
X59058663Y-36561123D01*
X59037440Y-36545383D01*
X59017861Y-36527639D01*
X59000117Y-36508060D01*
X58984377Y-36486837D01*
X58970793Y-36464174D01*
X58959495Y-36440288D01*
X58950594Y-36415409D01*
X58944174Y-36389778D01*
X58940297Y-36363641D01*
X58939000Y-36337250D01*
X58939000Y-35798750D01*
X58940297Y-35772359D01*
X58944174Y-35746222D01*
X58950594Y-35720591D01*
X58959495Y-35695712D01*
X58970793Y-35671826D01*
X58984377Y-35649163D01*
X59000117Y-35627940D01*
X59017861Y-35608361D01*
X59037440Y-35590617D01*
X59058663Y-35574877D01*
X59081326Y-35561293D01*
X59105212Y-35549995D01*
X59130091Y-35541094D01*
X59155722Y-35534674D01*
X59181859Y-35530797D01*
X59208250Y-35529500D01*
X60171750Y-35529500D01*
X60198141Y-35530797D01*
X60198141Y-35530797D01*
G37*
D24*
X59690000Y-36068000D03*
D23*
G36*
X62992141Y-33625797D02*
G01*
X63018278Y-33629674D01*
X63043909Y-33636094D01*
X63068788Y-33644995D01*
X63092674Y-33656293D01*
X63115337Y-33669877D01*
X63136560Y-33685617D01*
X63156139Y-33703361D01*
X63173883Y-33722940D01*
X63189623Y-33744163D01*
X63203207Y-33766826D01*
X63214505Y-33790712D01*
X63223406Y-33815591D01*
X63229826Y-33841222D01*
X63233703Y-33867359D01*
X63235000Y-33893750D01*
X63235000Y-34432250D01*
X63233703Y-34458641D01*
X63229826Y-34484778D01*
X63223406Y-34510409D01*
X63214505Y-34535288D01*
X63203207Y-34559174D01*
X63189623Y-34581837D01*
X63173883Y-34603060D01*
X63156139Y-34622639D01*
X63136560Y-34640383D01*
X63115337Y-34656123D01*
X63092674Y-34669707D01*
X63068788Y-34681005D01*
X63043909Y-34689906D01*
X63018278Y-34696326D01*
X62992141Y-34700203D01*
X62965750Y-34701500D01*
X62002250Y-34701500D01*
X61975859Y-34700203D01*
X61949722Y-34696326D01*
X61924091Y-34689906D01*
X61899212Y-34681005D01*
X61875326Y-34669707D01*
X61852663Y-34656123D01*
X61831440Y-34640383D01*
X61811861Y-34622639D01*
X61794117Y-34603060D01*
X61778377Y-34581837D01*
X61764793Y-34559174D01*
X61753495Y-34535288D01*
X61744594Y-34510409D01*
X61738174Y-34484778D01*
X61734297Y-34458641D01*
X61733000Y-34432250D01*
X61733000Y-33893750D01*
X61734297Y-33867359D01*
X61738174Y-33841222D01*
X61744594Y-33815591D01*
X61753495Y-33790712D01*
X61764793Y-33766826D01*
X61778377Y-33744163D01*
X61794117Y-33722940D01*
X61811861Y-33703361D01*
X61831440Y-33685617D01*
X61852663Y-33669877D01*
X61875326Y-33656293D01*
X61899212Y-33644995D01*
X61924091Y-33636094D01*
X61949722Y-33629674D01*
X61975859Y-33625797D01*
X62002250Y-33624500D01*
X62965750Y-33624500D01*
X62992141Y-33625797D01*
X62992141Y-33625797D01*
G37*
D24*
X62484000Y-34163000D03*
D23*
G36*
X62992141Y-35500797D02*
G01*
X63018278Y-35504674D01*
X63043909Y-35511094D01*
X63068788Y-35519995D01*
X63092674Y-35531293D01*
X63115337Y-35544877D01*
X63136560Y-35560617D01*
X63156139Y-35578361D01*
X63173883Y-35597940D01*
X63189623Y-35619163D01*
X63203207Y-35641826D01*
X63214505Y-35665712D01*
X63223406Y-35690591D01*
X63229826Y-35716222D01*
X63233703Y-35742359D01*
X63235000Y-35768750D01*
X63235000Y-36307250D01*
X63233703Y-36333641D01*
X63229826Y-36359778D01*
X63223406Y-36385409D01*
X63214505Y-36410288D01*
X63203207Y-36434174D01*
X63189623Y-36456837D01*
X63173883Y-36478060D01*
X63156139Y-36497639D01*
X63136560Y-36515383D01*
X63115337Y-36531123D01*
X63092674Y-36544707D01*
X63068788Y-36556005D01*
X63043909Y-36564906D01*
X63018278Y-36571326D01*
X62992141Y-36575203D01*
X62965750Y-36576500D01*
X62002250Y-36576500D01*
X61975859Y-36575203D01*
X61949722Y-36571326D01*
X61924091Y-36564906D01*
X61899212Y-36556005D01*
X61875326Y-36544707D01*
X61852663Y-36531123D01*
X61831440Y-36515383D01*
X61811861Y-36497639D01*
X61794117Y-36478060D01*
X61778377Y-36456837D01*
X61764793Y-36434174D01*
X61753495Y-36410288D01*
X61744594Y-36385409D01*
X61738174Y-36359778D01*
X61734297Y-36333641D01*
X61733000Y-36307250D01*
X61733000Y-35768750D01*
X61734297Y-35742359D01*
X61738174Y-35716222D01*
X61744594Y-35690591D01*
X61753495Y-35665712D01*
X61764793Y-35641826D01*
X61778377Y-35619163D01*
X61794117Y-35597940D01*
X61811861Y-35578361D01*
X61831440Y-35560617D01*
X61852663Y-35544877D01*
X61875326Y-35531293D01*
X61899212Y-35519995D01*
X61924091Y-35511094D01*
X61949722Y-35504674D01*
X61975859Y-35500797D01*
X62002250Y-35499500D01*
X62965750Y-35499500D01*
X62992141Y-35500797D01*
X62992141Y-35500797D01*
G37*
D24*
X62484000Y-36038000D03*
D23*
G36*
X74422141Y-31115797D02*
G01*
X74448278Y-31119674D01*
X74473909Y-31126094D01*
X74498788Y-31134995D01*
X74522674Y-31146293D01*
X74545337Y-31159877D01*
X74566560Y-31175617D01*
X74586139Y-31193361D01*
X74603883Y-31212940D01*
X74619623Y-31234163D01*
X74633207Y-31256826D01*
X74644505Y-31280712D01*
X74653406Y-31305591D01*
X74659826Y-31331222D01*
X74663703Y-31357359D01*
X74665000Y-31383750D01*
X74665000Y-31922250D01*
X74663703Y-31948641D01*
X74659826Y-31974778D01*
X74653406Y-32000409D01*
X74644505Y-32025288D01*
X74633207Y-32049174D01*
X74619623Y-32071837D01*
X74603883Y-32093060D01*
X74586139Y-32112639D01*
X74566560Y-32130383D01*
X74545337Y-32146123D01*
X74522674Y-32159707D01*
X74498788Y-32171005D01*
X74473909Y-32179906D01*
X74448278Y-32186326D01*
X74422141Y-32190203D01*
X74395750Y-32191500D01*
X73432250Y-32191500D01*
X73405859Y-32190203D01*
X73379722Y-32186326D01*
X73354091Y-32179906D01*
X73329212Y-32171005D01*
X73305326Y-32159707D01*
X73282663Y-32146123D01*
X73261440Y-32130383D01*
X73241861Y-32112639D01*
X73224117Y-32093060D01*
X73208377Y-32071837D01*
X73194793Y-32049174D01*
X73183495Y-32025288D01*
X73174594Y-32000409D01*
X73168174Y-31974778D01*
X73164297Y-31948641D01*
X73163000Y-31922250D01*
X73163000Y-31383750D01*
X73164297Y-31357359D01*
X73168174Y-31331222D01*
X73174594Y-31305591D01*
X73183495Y-31280712D01*
X73194793Y-31256826D01*
X73208377Y-31234163D01*
X73224117Y-31212940D01*
X73241861Y-31193361D01*
X73261440Y-31175617D01*
X73282663Y-31159877D01*
X73305326Y-31146293D01*
X73329212Y-31134995D01*
X73354091Y-31126094D01*
X73379722Y-31119674D01*
X73405859Y-31115797D01*
X73432250Y-31114500D01*
X74395750Y-31114500D01*
X74422141Y-31115797D01*
X74422141Y-31115797D01*
G37*
D24*
X73914000Y-31653000D03*
D23*
G36*
X74422141Y-32990797D02*
G01*
X74448278Y-32994674D01*
X74473909Y-33001094D01*
X74498788Y-33009995D01*
X74522674Y-33021293D01*
X74545337Y-33034877D01*
X74566560Y-33050617D01*
X74586139Y-33068361D01*
X74603883Y-33087940D01*
X74619623Y-33109163D01*
X74633207Y-33131826D01*
X74644505Y-33155712D01*
X74653406Y-33180591D01*
X74659826Y-33206222D01*
X74663703Y-33232359D01*
X74665000Y-33258750D01*
X74665000Y-33797250D01*
X74663703Y-33823641D01*
X74659826Y-33849778D01*
X74653406Y-33875409D01*
X74644505Y-33900288D01*
X74633207Y-33924174D01*
X74619623Y-33946837D01*
X74603883Y-33968060D01*
X74586139Y-33987639D01*
X74566560Y-34005383D01*
X74545337Y-34021123D01*
X74522674Y-34034707D01*
X74498788Y-34046005D01*
X74473909Y-34054906D01*
X74448278Y-34061326D01*
X74422141Y-34065203D01*
X74395750Y-34066500D01*
X73432250Y-34066500D01*
X73405859Y-34065203D01*
X73379722Y-34061326D01*
X73354091Y-34054906D01*
X73329212Y-34046005D01*
X73305326Y-34034707D01*
X73282663Y-34021123D01*
X73261440Y-34005383D01*
X73241861Y-33987639D01*
X73224117Y-33968060D01*
X73208377Y-33946837D01*
X73194793Y-33924174D01*
X73183495Y-33900288D01*
X73174594Y-33875409D01*
X73168174Y-33849778D01*
X73164297Y-33823641D01*
X73163000Y-33797250D01*
X73163000Y-33258750D01*
X73164297Y-33232359D01*
X73168174Y-33206222D01*
X73174594Y-33180591D01*
X73183495Y-33155712D01*
X73194793Y-33131826D01*
X73208377Y-33109163D01*
X73224117Y-33087940D01*
X73241861Y-33068361D01*
X73261440Y-33050617D01*
X73282663Y-33034877D01*
X73305326Y-33021293D01*
X73329212Y-33009995D01*
X73354091Y-33001094D01*
X73379722Y-32994674D01*
X73405859Y-32990797D01*
X73432250Y-32989500D01*
X74395750Y-32989500D01*
X74422141Y-32990797D01*
X74422141Y-32990797D01*
G37*
D24*
X73914000Y-33528000D03*
D12*
X126365000Y-47307500D03*
D13*
X123825000Y-52387500D03*
D12*
X120015000Y-49847500D03*
D14*
X122555000Y-57467500D03*
D15*
X125095000Y-57467500D03*
D16*
X118745000Y-52387500D03*
X128905000Y-52387500D03*
D12*
X107315000Y-47307500D03*
D13*
X104775000Y-52387500D03*
D12*
X100965000Y-49847500D03*
D14*
X103505000Y-57467500D03*
D15*
X106045000Y-57467500D03*
D16*
X99695000Y-52387500D03*
X109855000Y-52387500D03*
D12*
X107315000Y-28257500D03*
D13*
X104775000Y-33337500D03*
D12*
X100965000Y-30797500D03*
D14*
X103505000Y-38417500D03*
D15*
X106045000Y-38417500D03*
D16*
X99695000Y-33337500D03*
X109855000Y-33337500D03*
D23*
G36*
X53863354Y-39387802D02*
G01*
X53889602Y-39391696D01*
X53915343Y-39398143D01*
X53940328Y-39407083D01*
X53964316Y-39418428D01*
X53987076Y-39432071D01*
X54008390Y-39447878D01*
X54028052Y-39465698D01*
X54045872Y-39485360D01*
X54061679Y-39506674D01*
X54075322Y-39529434D01*
X54086667Y-39553422D01*
X54095607Y-39578407D01*
X54102054Y-39604148D01*
X54105948Y-39630396D01*
X54107250Y-39656900D01*
X54107250Y-40468100D01*
X54105948Y-40494604D01*
X54102054Y-40520852D01*
X54095607Y-40546593D01*
X54086667Y-40571578D01*
X54075322Y-40595566D01*
X54061679Y-40618326D01*
X54045872Y-40639640D01*
X54028052Y-40659302D01*
X54008390Y-40677122D01*
X53987076Y-40692929D01*
X53964316Y-40706572D01*
X53940328Y-40717917D01*
X53915343Y-40726857D01*
X53889602Y-40733304D01*
X53863354Y-40737198D01*
X53836850Y-40738500D01*
X52525650Y-40738500D01*
X52499146Y-40737198D01*
X52472898Y-40733304D01*
X52447157Y-40726857D01*
X52422172Y-40717917D01*
X52398184Y-40706572D01*
X52375424Y-40692929D01*
X52354110Y-40677122D01*
X52334448Y-40659302D01*
X52316628Y-40639640D01*
X52300821Y-40618326D01*
X52287178Y-40595566D01*
X52275833Y-40571578D01*
X52266893Y-40546593D01*
X52260446Y-40520852D01*
X52256552Y-40494604D01*
X52255250Y-40468100D01*
X52255250Y-39656900D01*
X52256552Y-39630396D01*
X52260446Y-39604148D01*
X52266893Y-39578407D01*
X52275833Y-39553422D01*
X52287178Y-39529434D01*
X52300821Y-39506674D01*
X52316628Y-39485360D01*
X52334448Y-39465698D01*
X52354110Y-39447878D01*
X52375424Y-39432071D01*
X52398184Y-39418428D01*
X52422172Y-39407083D01*
X52447157Y-39398143D01*
X52472898Y-39391696D01*
X52499146Y-39387802D01*
X52525650Y-39386500D01*
X53836850Y-39386500D01*
X53863354Y-39387802D01*
X53863354Y-39387802D01*
G37*
D25*
X53181250Y-40062500D03*
D23*
G36*
X53863354Y-42187802D02*
G01*
X53889602Y-42191696D01*
X53915343Y-42198143D01*
X53940328Y-42207083D01*
X53964316Y-42218428D01*
X53987076Y-42232071D01*
X54008390Y-42247878D01*
X54028052Y-42265698D01*
X54045872Y-42285360D01*
X54061679Y-42306674D01*
X54075322Y-42329434D01*
X54086667Y-42353422D01*
X54095607Y-42378407D01*
X54102054Y-42404148D01*
X54105948Y-42430396D01*
X54107250Y-42456900D01*
X54107250Y-43268100D01*
X54105948Y-43294604D01*
X54102054Y-43320852D01*
X54095607Y-43346593D01*
X54086667Y-43371578D01*
X54075322Y-43395566D01*
X54061679Y-43418326D01*
X54045872Y-43439640D01*
X54028052Y-43459302D01*
X54008390Y-43477122D01*
X53987076Y-43492929D01*
X53964316Y-43506572D01*
X53940328Y-43517917D01*
X53915343Y-43526857D01*
X53889602Y-43533304D01*
X53863354Y-43537198D01*
X53836850Y-43538500D01*
X52525650Y-43538500D01*
X52499146Y-43537198D01*
X52472898Y-43533304D01*
X52447157Y-43526857D01*
X52422172Y-43517917D01*
X52398184Y-43506572D01*
X52375424Y-43492929D01*
X52354110Y-43477122D01*
X52334448Y-43459302D01*
X52316628Y-43439640D01*
X52300821Y-43418326D01*
X52287178Y-43395566D01*
X52275833Y-43371578D01*
X52266893Y-43346593D01*
X52260446Y-43320852D01*
X52256552Y-43294604D01*
X52255250Y-43268100D01*
X52255250Y-42456900D01*
X52256552Y-42430396D01*
X52260446Y-42404148D01*
X52266893Y-42378407D01*
X52275833Y-42353422D01*
X52287178Y-42329434D01*
X52300821Y-42306674D01*
X52316628Y-42285360D01*
X52334448Y-42265698D01*
X52354110Y-42247878D01*
X52375424Y-42232071D01*
X52398184Y-42218428D01*
X52422172Y-42207083D01*
X52447157Y-42198143D01*
X52472898Y-42191696D01*
X52499146Y-42187802D01*
X52525650Y-42186500D01*
X53836850Y-42186500D01*
X53863354Y-42187802D01*
X53863354Y-42187802D01*
G37*
D25*
X53181250Y-42862500D03*
D26*
X131762500Y-50737500D03*
X131762500Y-54037500D03*
X112712500Y-50737500D03*
X112712500Y-54037500D03*
X131762500Y-31687500D03*
X131762500Y-34987500D03*
X112712500Y-31687500D03*
X112712500Y-34987500D03*
D23*
G36*
X71628141Y-50438297D02*
G01*
X71654278Y-50442174D01*
X71679909Y-50448594D01*
X71704788Y-50457495D01*
X71728674Y-50468793D01*
X71751337Y-50482377D01*
X71772560Y-50498117D01*
X71792139Y-50515861D01*
X71809883Y-50535440D01*
X71825623Y-50556663D01*
X71839207Y-50579326D01*
X71850505Y-50603212D01*
X71859406Y-50628091D01*
X71865826Y-50653722D01*
X71869703Y-50679859D01*
X71871000Y-50706250D01*
X71871000Y-51244750D01*
X71869703Y-51271141D01*
X71865826Y-51297278D01*
X71859406Y-51322909D01*
X71850505Y-51347788D01*
X71839207Y-51371674D01*
X71825623Y-51394337D01*
X71809883Y-51415560D01*
X71792139Y-51435139D01*
X71772560Y-51452883D01*
X71751337Y-51468623D01*
X71728674Y-51482207D01*
X71704788Y-51493505D01*
X71679909Y-51502406D01*
X71654278Y-51508826D01*
X71628141Y-51512703D01*
X71601750Y-51514000D01*
X70638250Y-51514000D01*
X70611859Y-51512703D01*
X70585722Y-51508826D01*
X70560091Y-51502406D01*
X70535212Y-51493505D01*
X70511326Y-51482207D01*
X70488663Y-51468623D01*
X70467440Y-51452883D01*
X70447861Y-51435139D01*
X70430117Y-51415560D01*
X70414377Y-51394337D01*
X70400793Y-51371674D01*
X70389495Y-51347788D01*
X70380594Y-51322909D01*
X70374174Y-51297278D01*
X70370297Y-51271141D01*
X70369000Y-51244750D01*
X70369000Y-50706250D01*
X70370297Y-50679859D01*
X70374174Y-50653722D01*
X70380594Y-50628091D01*
X70389495Y-50603212D01*
X70400793Y-50579326D01*
X70414377Y-50556663D01*
X70430117Y-50535440D01*
X70447861Y-50515861D01*
X70467440Y-50498117D01*
X70488663Y-50482377D01*
X70511326Y-50468793D01*
X70535212Y-50457495D01*
X70560091Y-50448594D01*
X70585722Y-50442174D01*
X70611859Y-50438297D01*
X70638250Y-50437000D01*
X71601750Y-50437000D01*
X71628141Y-50438297D01*
X71628141Y-50438297D01*
G37*
D24*
X71120000Y-50975500D03*
D23*
G36*
X71628141Y-48563297D02*
G01*
X71654278Y-48567174D01*
X71679909Y-48573594D01*
X71704788Y-48582495D01*
X71728674Y-48593793D01*
X71751337Y-48607377D01*
X71772560Y-48623117D01*
X71792139Y-48640861D01*
X71809883Y-48660440D01*
X71825623Y-48681663D01*
X71839207Y-48704326D01*
X71850505Y-48728212D01*
X71859406Y-48753091D01*
X71865826Y-48778722D01*
X71869703Y-48804859D01*
X71871000Y-48831250D01*
X71871000Y-49369750D01*
X71869703Y-49396141D01*
X71865826Y-49422278D01*
X71859406Y-49447909D01*
X71850505Y-49472788D01*
X71839207Y-49496674D01*
X71825623Y-49519337D01*
X71809883Y-49540560D01*
X71792139Y-49560139D01*
X71772560Y-49577883D01*
X71751337Y-49593623D01*
X71728674Y-49607207D01*
X71704788Y-49618505D01*
X71679909Y-49627406D01*
X71654278Y-49633826D01*
X71628141Y-49637703D01*
X71601750Y-49639000D01*
X70638250Y-49639000D01*
X70611859Y-49637703D01*
X70585722Y-49633826D01*
X70560091Y-49627406D01*
X70535212Y-49618505D01*
X70511326Y-49607207D01*
X70488663Y-49593623D01*
X70467440Y-49577883D01*
X70447861Y-49560139D01*
X70430117Y-49540560D01*
X70414377Y-49519337D01*
X70400793Y-49496674D01*
X70389495Y-49472788D01*
X70380594Y-49447909D01*
X70374174Y-49422278D01*
X70370297Y-49396141D01*
X70369000Y-49369750D01*
X70369000Y-48831250D01*
X70370297Y-48804859D01*
X70374174Y-48778722D01*
X70380594Y-48753091D01*
X70389495Y-48728212D01*
X70400793Y-48704326D01*
X70414377Y-48681663D01*
X70430117Y-48660440D01*
X70447861Y-48640861D01*
X70467440Y-48623117D01*
X70488663Y-48607377D01*
X70511326Y-48593793D01*
X70535212Y-48582495D01*
X70560091Y-48573594D01*
X70585722Y-48567174D01*
X70611859Y-48563297D01*
X70638250Y-48562000D01*
X71601750Y-48562000D01*
X71628141Y-48563297D01*
X71628141Y-48563297D01*
G37*
D24*
X71120000Y-49100500D03*
D23*
G36*
X87608141Y-52431547D02*
G01*
X87634278Y-52435424D01*
X87659909Y-52441844D01*
X87684788Y-52450745D01*
X87708674Y-52462043D01*
X87731337Y-52475627D01*
X87752560Y-52491367D01*
X87772139Y-52509111D01*
X87789883Y-52528690D01*
X87805623Y-52549913D01*
X87819207Y-52572576D01*
X87830505Y-52596462D01*
X87839406Y-52621341D01*
X87845826Y-52646972D01*
X87849703Y-52673109D01*
X87851000Y-52699500D01*
X87851000Y-53663000D01*
X87849703Y-53689391D01*
X87845826Y-53715528D01*
X87839406Y-53741159D01*
X87830505Y-53766038D01*
X87819207Y-53789924D01*
X87805623Y-53812587D01*
X87789883Y-53833810D01*
X87772139Y-53853389D01*
X87752560Y-53871133D01*
X87731337Y-53886873D01*
X87708674Y-53900457D01*
X87684788Y-53911755D01*
X87659909Y-53920656D01*
X87634278Y-53927076D01*
X87608141Y-53930953D01*
X87581750Y-53932250D01*
X87043250Y-53932250D01*
X87016859Y-53930953D01*
X86990722Y-53927076D01*
X86965091Y-53920656D01*
X86940212Y-53911755D01*
X86916326Y-53900457D01*
X86893663Y-53886873D01*
X86872440Y-53871133D01*
X86852861Y-53853389D01*
X86835117Y-53833810D01*
X86819377Y-53812587D01*
X86805793Y-53789924D01*
X86794495Y-53766038D01*
X86785594Y-53741159D01*
X86779174Y-53715528D01*
X86775297Y-53689391D01*
X86774000Y-53663000D01*
X86774000Y-52699500D01*
X86775297Y-52673109D01*
X86779174Y-52646972D01*
X86785594Y-52621341D01*
X86794495Y-52596462D01*
X86805793Y-52572576D01*
X86819377Y-52549913D01*
X86835117Y-52528690D01*
X86852861Y-52509111D01*
X86872440Y-52491367D01*
X86893663Y-52475627D01*
X86916326Y-52462043D01*
X86940212Y-52450745D01*
X86965091Y-52441844D01*
X86990722Y-52435424D01*
X87016859Y-52431547D01*
X87043250Y-52430250D01*
X87581750Y-52430250D01*
X87608141Y-52431547D01*
X87608141Y-52431547D01*
G37*
D24*
X87312500Y-53181250D03*
D23*
G36*
X89483141Y-52431547D02*
G01*
X89509278Y-52435424D01*
X89534909Y-52441844D01*
X89559788Y-52450745D01*
X89583674Y-52462043D01*
X89606337Y-52475627D01*
X89627560Y-52491367D01*
X89647139Y-52509111D01*
X89664883Y-52528690D01*
X89680623Y-52549913D01*
X89694207Y-52572576D01*
X89705505Y-52596462D01*
X89714406Y-52621341D01*
X89720826Y-52646972D01*
X89724703Y-52673109D01*
X89726000Y-52699500D01*
X89726000Y-53663000D01*
X89724703Y-53689391D01*
X89720826Y-53715528D01*
X89714406Y-53741159D01*
X89705505Y-53766038D01*
X89694207Y-53789924D01*
X89680623Y-53812587D01*
X89664883Y-53833810D01*
X89647139Y-53853389D01*
X89627560Y-53871133D01*
X89606337Y-53886873D01*
X89583674Y-53900457D01*
X89559788Y-53911755D01*
X89534909Y-53920656D01*
X89509278Y-53927076D01*
X89483141Y-53930953D01*
X89456750Y-53932250D01*
X88918250Y-53932250D01*
X88891859Y-53930953D01*
X88865722Y-53927076D01*
X88840091Y-53920656D01*
X88815212Y-53911755D01*
X88791326Y-53900457D01*
X88768663Y-53886873D01*
X88747440Y-53871133D01*
X88727861Y-53853389D01*
X88710117Y-53833810D01*
X88694377Y-53812587D01*
X88680793Y-53789924D01*
X88669495Y-53766038D01*
X88660594Y-53741159D01*
X88654174Y-53715528D01*
X88650297Y-53689391D01*
X88649000Y-53663000D01*
X88649000Y-52699500D01*
X88650297Y-52673109D01*
X88654174Y-52646972D01*
X88660594Y-52621341D01*
X88669495Y-52596462D01*
X88680793Y-52572576D01*
X88694377Y-52549913D01*
X88710117Y-52528690D01*
X88727861Y-52509111D01*
X88747440Y-52491367D01*
X88768663Y-52475627D01*
X88791326Y-52462043D01*
X88815212Y-52450745D01*
X88840091Y-52441844D01*
X88865722Y-52435424D01*
X88891859Y-52431547D01*
X88918250Y-52430250D01*
X89456750Y-52430250D01*
X89483141Y-52431547D01*
X89483141Y-52431547D01*
G37*
D24*
X89187500Y-53181250D03*
D23*
G36*
X93376891Y-39944047D02*
G01*
X93403028Y-39947924D01*
X93428659Y-39954344D01*
X93453538Y-39963245D01*
X93477424Y-39974543D01*
X93500087Y-39988127D01*
X93521310Y-40003867D01*
X93540889Y-40021611D01*
X93558633Y-40041190D01*
X93574373Y-40062413D01*
X93587957Y-40085076D01*
X93599255Y-40108962D01*
X93608156Y-40133841D01*
X93614576Y-40159472D01*
X93618453Y-40185609D01*
X93619750Y-40212000D01*
X93619750Y-40750500D01*
X93618453Y-40776891D01*
X93614576Y-40803028D01*
X93608156Y-40828659D01*
X93599255Y-40853538D01*
X93587957Y-40877424D01*
X93574373Y-40900087D01*
X93558633Y-40921310D01*
X93540889Y-40940889D01*
X93521310Y-40958633D01*
X93500087Y-40974373D01*
X93477424Y-40987957D01*
X93453538Y-40999255D01*
X93428659Y-41008156D01*
X93403028Y-41014576D01*
X93376891Y-41018453D01*
X93350500Y-41019750D01*
X92387000Y-41019750D01*
X92360609Y-41018453D01*
X92334472Y-41014576D01*
X92308841Y-41008156D01*
X92283962Y-40999255D01*
X92260076Y-40987957D01*
X92237413Y-40974373D01*
X92216190Y-40958633D01*
X92196611Y-40940889D01*
X92178867Y-40921310D01*
X92163127Y-40900087D01*
X92149543Y-40877424D01*
X92138245Y-40853538D01*
X92129344Y-40828659D01*
X92122924Y-40803028D01*
X92119047Y-40776891D01*
X92117750Y-40750500D01*
X92117750Y-40212000D01*
X92119047Y-40185609D01*
X92122924Y-40159472D01*
X92129344Y-40133841D01*
X92138245Y-40108962D01*
X92149543Y-40085076D01*
X92163127Y-40062413D01*
X92178867Y-40041190D01*
X92196611Y-40021611D01*
X92216190Y-40003867D01*
X92237413Y-39988127D01*
X92260076Y-39974543D01*
X92283962Y-39963245D01*
X92308841Y-39954344D01*
X92334472Y-39947924D01*
X92360609Y-39944047D01*
X92387000Y-39942750D01*
X93350500Y-39942750D01*
X93376891Y-39944047D01*
X93376891Y-39944047D01*
G37*
D24*
X92868750Y-40481250D03*
D23*
G36*
X93376891Y-41819047D02*
G01*
X93403028Y-41822924D01*
X93428659Y-41829344D01*
X93453538Y-41838245D01*
X93477424Y-41849543D01*
X93500087Y-41863127D01*
X93521310Y-41878867D01*
X93540889Y-41896611D01*
X93558633Y-41916190D01*
X93574373Y-41937413D01*
X93587957Y-41960076D01*
X93599255Y-41983962D01*
X93608156Y-42008841D01*
X93614576Y-42034472D01*
X93618453Y-42060609D01*
X93619750Y-42087000D01*
X93619750Y-42625500D01*
X93618453Y-42651891D01*
X93614576Y-42678028D01*
X93608156Y-42703659D01*
X93599255Y-42728538D01*
X93587957Y-42752424D01*
X93574373Y-42775087D01*
X93558633Y-42796310D01*
X93540889Y-42815889D01*
X93521310Y-42833633D01*
X93500087Y-42849373D01*
X93477424Y-42862957D01*
X93453538Y-42874255D01*
X93428659Y-42883156D01*
X93403028Y-42889576D01*
X93376891Y-42893453D01*
X93350500Y-42894750D01*
X92387000Y-42894750D01*
X92360609Y-42893453D01*
X92334472Y-42889576D01*
X92308841Y-42883156D01*
X92283962Y-42874255D01*
X92260076Y-42862957D01*
X92237413Y-42849373D01*
X92216190Y-42833633D01*
X92196611Y-42815889D01*
X92178867Y-42796310D01*
X92163127Y-42775087D01*
X92149543Y-42752424D01*
X92138245Y-42728538D01*
X92129344Y-42703659D01*
X92122924Y-42678028D01*
X92119047Y-42651891D01*
X92117750Y-42625500D01*
X92117750Y-42087000D01*
X92119047Y-42060609D01*
X92122924Y-42034472D01*
X92129344Y-42008841D01*
X92138245Y-41983962D01*
X92149543Y-41960076D01*
X92163127Y-41937413D01*
X92178867Y-41916190D01*
X92196611Y-41896611D01*
X92216190Y-41878867D01*
X92237413Y-41863127D01*
X92260076Y-41849543D01*
X92283962Y-41838245D01*
X92308841Y-41829344D01*
X92334472Y-41822924D01*
X92360609Y-41819047D01*
X92387000Y-41817750D01*
X93350500Y-41817750D01*
X93376891Y-41819047D01*
X93376891Y-41819047D01*
G37*
D24*
X92868750Y-42356250D03*
D23*
G36*
X77247891Y-33722797D02*
G01*
X77274028Y-33726674D01*
X77299659Y-33733094D01*
X77324538Y-33741995D01*
X77348424Y-33753293D01*
X77371087Y-33766877D01*
X77392310Y-33782617D01*
X77411889Y-33800361D01*
X77429633Y-33819940D01*
X77445373Y-33841163D01*
X77458957Y-33863826D01*
X77470255Y-33887712D01*
X77479156Y-33912591D01*
X77485576Y-33938222D01*
X77489453Y-33964359D01*
X77490750Y-33990750D01*
X77490750Y-34529250D01*
X77489453Y-34555641D01*
X77485576Y-34581778D01*
X77479156Y-34607409D01*
X77470255Y-34632288D01*
X77458957Y-34656174D01*
X77445373Y-34678837D01*
X77429633Y-34700060D01*
X77411889Y-34719639D01*
X77392310Y-34737383D01*
X77371087Y-34753123D01*
X77348424Y-34766707D01*
X77324538Y-34778005D01*
X77299659Y-34786906D01*
X77274028Y-34793326D01*
X77247891Y-34797203D01*
X77221500Y-34798500D01*
X76258000Y-34798500D01*
X76231609Y-34797203D01*
X76205472Y-34793326D01*
X76179841Y-34786906D01*
X76154962Y-34778005D01*
X76131076Y-34766707D01*
X76108413Y-34753123D01*
X76087190Y-34737383D01*
X76067611Y-34719639D01*
X76049867Y-34700060D01*
X76034127Y-34678837D01*
X76020543Y-34656174D01*
X76009245Y-34632288D01*
X76000344Y-34607409D01*
X75993924Y-34581778D01*
X75990047Y-34555641D01*
X75988750Y-34529250D01*
X75988750Y-33990750D01*
X75990047Y-33964359D01*
X75993924Y-33938222D01*
X76000344Y-33912591D01*
X76009245Y-33887712D01*
X76020543Y-33863826D01*
X76034127Y-33841163D01*
X76049867Y-33819940D01*
X76067611Y-33800361D01*
X76087190Y-33782617D01*
X76108413Y-33766877D01*
X76131076Y-33753293D01*
X76154962Y-33741995D01*
X76179841Y-33733094D01*
X76205472Y-33726674D01*
X76231609Y-33722797D01*
X76258000Y-33721500D01*
X77221500Y-33721500D01*
X77247891Y-33722797D01*
X77247891Y-33722797D01*
G37*
D24*
X76739750Y-34260000D03*
D23*
G36*
X77247891Y-31847797D02*
G01*
X77274028Y-31851674D01*
X77299659Y-31858094D01*
X77324538Y-31866995D01*
X77348424Y-31878293D01*
X77371087Y-31891877D01*
X77392310Y-31907617D01*
X77411889Y-31925361D01*
X77429633Y-31944940D01*
X77445373Y-31966163D01*
X77458957Y-31988826D01*
X77470255Y-32012712D01*
X77479156Y-32037591D01*
X77485576Y-32063222D01*
X77489453Y-32089359D01*
X77490750Y-32115750D01*
X77490750Y-32654250D01*
X77489453Y-32680641D01*
X77485576Y-32706778D01*
X77479156Y-32732409D01*
X77470255Y-32757288D01*
X77458957Y-32781174D01*
X77445373Y-32803837D01*
X77429633Y-32825060D01*
X77411889Y-32844639D01*
X77392310Y-32862383D01*
X77371087Y-32878123D01*
X77348424Y-32891707D01*
X77324538Y-32903005D01*
X77299659Y-32911906D01*
X77274028Y-32918326D01*
X77247891Y-32922203D01*
X77221500Y-32923500D01*
X76258000Y-32923500D01*
X76231609Y-32922203D01*
X76205472Y-32918326D01*
X76179841Y-32911906D01*
X76154962Y-32903005D01*
X76131076Y-32891707D01*
X76108413Y-32878123D01*
X76087190Y-32862383D01*
X76067611Y-32844639D01*
X76049867Y-32825060D01*
X76034127Y-32803837D01*
X76020543Y-32781174D01*
X76009245Y-32757288D01*
X76000344Y-32732409D01*
X75993924Y-32706778D01*
X75990047Y-32680641D01*
X75988750Y-32654250D01*
X75988750Y-32115750D01*
X75990047Y-32089359D01*
X75993924Y-32063222D01*
X76000344Y-32037591D01*
X76009245Y-32012712D01*
X76020543Y-31988826D01*
X76034127Y-31966163D01*
X76049867Y-31944940D01*
X76067611Y-31925361D01*
X76087190Y-31907617D01*
X76108413Y-31891877D01*
X76131076Y-31878293D01*
X76154962Y-31866995D01*
X76179841Y-31858094D01*
X76205472Y-31851674D01*
X76231609Y-31847797D01*
X76258000Y-31846500D01*
X77221500Y-31846500D01*
X77247891Y-31847797D01*
X77247891Y-31847797D01*
G37*
D24*
X76739750Y-32385000D03*
D23*
G36*
X69921641Y-42049297D02*
G01*
X69947778Y-42053174D01*
X69973409Y-42059594D01*
X69998288Y-42068495D01*
X70022174Y-42079793D01*
X70044837Y-42093377D01*
X70066060Y-42109117D01*
X70085639Y-42126861D01*
X70103383Y-42146440D01*
X70119123Y-42167663D01*
X70132707Y-42190326D01*
X70144005Y-42214212D01*
X70152906Y-42239091D01*
X70159326Y-42264722D01*
X70163203Y-42290859D01*
X70164500Y-42317250D01*
X70164500Y-43280750D01*
X70163203Y-43307141D01*
X70159326Y-43333278D01*
X70152906Y-43358909D01*
X70144005Y-43383788D01*
X70132707Y-43407674D01*
X70119123Y-43430337D01*
X70103383Y-43451560D01*
X70085639Y-43471139D01*
X70066060Y-43488883D01*
X70044837Y-43504623D01*
X70022174Y-43518207D01*
X69998288Y-43529505D01*
X69973409Y-43538406D01*
X69947778Y-43544826D01*
X69921641Y-43548703D01*
X69895250Y-43550000D01*
X69356750Y-43550000D01*
X69330359Y-43548703D01*
X69304222Y-43544826D01*
X69278591Y-43538406D01*
X69253712Y-43529505D01*
X69229826Y-43518207D01*
X69207163Y-43504623D01*
X69185940Y-43488883D01*
X69166361Y-43471139D01*
X69148617Y-43451560D01*
X69132877Y-43430337D01*
X69119293Y-43407674D01*
X69107995Y-43383788D01*
X69099094Y-43358909D01*
X69092674Y-43333278D01*
X69088797Y-43307141D01*
X69087500Y-43280750D01*
X69087500Y-42317250D01*
X69088797Y-42290859D01*
X69092674Y-42264722D01*
X69099094Y-42239091D01*
X69107995Y-42214212D01*
X69119293Y-42190326D01*
X69132877Y-42167663D01*
X69148617Y-42146440D01*
X69166361Y-42126861D01*
X69185940Y-42109117D01*
X69207163Y-42093377D01*
X69229826Y-42079793D01*
X69253712Y-42068495D01*
X69278591Y-42059594D01*
X69304222Y-42053174D01*
X69330359Y-42049297D01*
X69356750Y-42048000D01*
X69895250Y-42048000D01*
X69921641Y-42049297D01*
X69921641Y-42049297D01*
G37*
D24*
X69626000Y-42799000D03*
D23*
G36*
X71796641Y-42049297D02*
G01*
X71822778Y-42053174D01*
X71848409Y-42059594D01*
X71873288Y-42068495D01*
X71897174Y-42079793D01*
X71919837Y-42093377D01*
X71941060Y-42109117D01*
X71960639Y-42126861D01*
X71978383Y-42146440D01*
X71994123Y-42167663D01*
X72007707Y-42190326D01*
X72019005Y-42214212D01*
X72027906Y-42239091D01*
X72034326Y-42264722D01*
X72038203Y-42290859D01*
X72039500Y-42317250D01*
X72039500Y-43280750D01*
X72038203Y-43307141D01*
X72034326Y-43333278D01*
X72027906Y-43358909D01*
X72019005Y-43383788D01*
X72007707Y-43407674D01*
X71994123Y-43430337D01*
X71978383Y-43451560D01*
X71960639Y-43471139D01*
X71941060Y-43488883D01*
X71919837Y-43504623D01*
X71897174Y-43518207D01*
X71873288Y-43529505D01*
X71848409Y-43538406D01*
X71822778Y-43544826D01*
X71796641Y-43548703D01*
X71770250Y-43550000D01*
X71231750Y-43550000D01*
X71205359Y-43548703D01*
X71179222Y-43544826D01*
X71153591Y-43538406D01*
X71128712Y-43529505D01*
X71104826Y-43518207D01*
X71082163Y-43504623D01*
X71060940Y-43488883D01*
X71041361Y-43471139D01*
X71023617Y-43451560D01*
X71007877Y-43430337D01*
X70994293Y-43407674D01*
X70982995Y-43383788D01*
X70974094Y-43358909D01*
X70967674Y-43333278D01*
X70963797Y-43307141D01*
X70962500Y-43280750D01*
X70962500Y-42317250D01*
X70963797Y-42290859D01*
X70967674Y-42264722D01*
X70974094Y-42239091D01*
X70982995Y-42214212D01*
X70994293Y-42190326D01*
X71007877Y-42167663D01*
X71023617Y-42146440D01*
X71041361Y-42126861D01*
X71060940Y-42109117D01*
X71082163Y-42093377D01*
X71104826Y-42079793D01*
X71128712Y-42068495D01*
X71153591Y-42059594D01*
X71179222Y-42053174D01*
X71205359Y-42049297D01*
X71231750Y-42048000D01*
X71770250Y-42048000D01*
X71796641Y-42049297D01*
X71796641Y-42049297D01*
G37*
D24*
X71501000Y-42799000D03*
D23*
G36*
X80010141Y-28037797D02*
G01*
X80036278Y-28041674D01*
X80061909Y-28048094D01*
X80086788Y-28056995D01*
X80110674Y-28068293D01*
X80133337Y-28081877D01*
X80154560Y-28097617D01*
X80174139Y-28115361D01*
X80191883Y-28134940D01*
X80207623Y-28156163D01*
X80221207Y-28178826D01*
X80232505Y-28202712D01*
X80241406Y-28227591D01*
X80247826Y-28253222D01*
X80251703Y-28279359D01*
X80253000Y-28305750D01*
X80253000Y-28844250D01*
X80251703Y-28870641D01*
X80247826Y-28896778D01*
X80241406Y-28922409D01*
X80232505Y-28947288D01*
X80221207Y-28971174D01*
X80207623Y-28993837D01*
X80191883Y-29015060D01*
X80174139Y-29034639D01*
X80154560Y-29052383D01*
X80133337Y-29068123D01*
X80110674Y-29081707D01*
X80086788Y-29093005D01*
X80061909Y-29101906D01*
X80036278Y-29108326D01*
X80010141Y-29112203D01*
X79983750Y-29113500D01*
X79020250Y-29113500D01*
X78993859Y-29112203D01*
X78967722Y-29108326D01*
X78942091Y-29101906D01*
X78917212Y-29093005D01*
X78893326Y-29081707D01*
X78870663Y-29068123D01*
X78849440Y-29052383D01*
X78829861Y-29034639D01*
X78812117Y-29015060D01*
X78796377Y-28993837D01*
X78782793Y-28971174D01*
X78771495Y-28947288D01*
X78762594Y-28922409D01*
X78756174Y-28896778D01*
X78752297Y-28870641D01*
X78751000Y-28844250D01*
X78751000Y-28305750D01*
X78752297Y-28279359D01*
X78756174Y-28253222D01*
X78762594Y-28227591D01*
X78771495Y-28202712D01*
X78782793Y-28178826D01*
X78796377Y-28156163D01*
X78812117Y-28134940D01*
X78829861Y-28115361D01*
X78849440Y-28097617D01*
X78870663Y-28081877D01*
X78893326Y-28068293D01*
X78917212Y-28056995D01*
X78942091Y-28048094D01*
X78967722Y-28041674D01*
X78993859Y-28037797D01*
X79020250Y-28036500D01*
X79983750Y-28036500D01*
X80010141Y-28037797D01*
X80010141Y-28037797D01*
G37*
D24*
X79502000Y-28575000D03*
D23*
G36*
X80010141Y-29912797D02*
G01*
X80036278Y-29916674D01*
X80061909Y-29923094D01*
X80086788Y-29931995D01*
X80110674Y-29943293D01*
X80133337Y-29956877D01*
X80154560Y-29972617D01*
X80174139Y-29990361D01*
X80191883Y-30009940D01*
X80207623Y-30031163D01*
X80221207Y-30053826D01*
X80232505Y-30077712D01*
X80241406Y-30102591D01*
X80247826Y-30128222D01*
X80251703Y-30154359D01*
X80253000Y-30180750D01*
X80253000Y-30719250D01*
X80251703Y-30745641D01*
X80247826Y-30771778D01*
X80241406Y-30797409D01*
X80232505Y-30822288D01*
X80221207Y-30846174D01*
X80207623Y-30868837D01*
X80191883Y-30890060D01*
X80174139Y-30909639D01*
X80154560Y-30927383D01*
X80133337Y-30943123D01*
X80110674Y-30956707D01*
X80086788Y-30968005D01*
X80061909Y-30976906D01*
X80036278Y-30983326D01*
X80010141Y-30987203D01*
X79983750Y-30988500D01*
X79020250Y-30988500D01*
X78993859Y-30987203D01*
X78967722Y-30983326D01*
X78942091Y-30976906D01*
X78917212Y-30968005D01*
X78893326Y-30956707D01*
X78870663Y-30943123D01*
X78849440Y-30927383D01*
X78829861Y-30909639D01*
X78812117Y-30890060D01*
X78796377Y-30868837D01*
X78782793Y-30846174D01*
X78771495Y-30822288D01*
X78762594Y-30797409D01*
X78756174Y-30771778D01*
X78752297Y-30745641D01*
X78751000Y-30719250D01*
X78751000Y-30180750D01*
X78752297Y-30154359D01*
X78756174Y-30128222D01*
X78762594Y-30102591D01*
X78771495Y-30077712D01*
X78782793Y-30053826D01*
X78796377Y-30031163D01*
X78812117Y-30009940D01*
X78829861Y-29990361D01*
X78849440Y-29972617D01*
X78870663Y-29956877D01*
X78893326Y-29943293D01*
X78917212Y-29931995D01*
X78942091Y-29923094D01*
X78967722Y-29916674D01*
X78993859Y-29912797D01*
X79020250Y-29911500D01*
X79983750Y-29911500D01*
X80010141Y-29912797D01*
X80010141Y-29912797D01*
G37*
D24*
X79502000Y-30450000D03*
D23*
G36*
X89408141Y-30420797D02*
G01*
X89434278Y-30424674D01*
X89459909Y-30431094D01*
X89484788Y-30439995D01*
X89508674Y-30451293D01*
X89531337Y-30464877D01*
X89552560Y-30480617D01*
X89572139Y-30498361D01*
X89589883Y-30517940D01*
X89605623Y-30539163D01*
X89619207Y-30561826D01*
X89630505Y-30585712D01*
X89639406Y-30610591D01*
X89645826Y-30636222D01*
X89649703Y-30662359D01*
X89651000Y-30688750D01*
X89651000Y-31227250D01*
X89649703Y-31253641D01*
X89645826Y-31279778D01*
X89639406Y-31305409D01*
X89630505Y-31330288D01*
X89619207Y-31354174D01*
X89605623Y-31376837D01*
X89589883Y-31398060D01*
X89572139Y-31417639D01*
X89552560Y-31435383D01*
X89531337Y-31451123D01*
X89508674Y-31464707D01*
X89484788Y-31476005D01*
X89459909Y-31484906D01*
X89434278Y-31491326D01*
X89408141Y-31495203D01*
X89381750Y-31496500D01*
X88418250Y-31496500D01*
X88391859Y-31495203D01*
X88365722Y-31491326D01*
X88340091Y-31484906D01*
X88315212Y-31476005D01*
X88291326Y-31464707D01*
X88268663Y-31451123D01*
X88247440Y-31435383D01*
X88227861Y-31417639D01*
X88210117Y-31398060D01*
X88194377Y-31376837D01*
X88180793Y-31354174D01*
X88169495Y-31330288D01*
X88160594Y-31305409D01*
X88154174Y-31279778D01*
X88150297Y-31253641D01*
X88149000Y-31227250D01*
X88149000Y-30688750D01*
X88150297Y-30662359D01*
X88154174Y-30636222D01*
X88160594Y-30610591D01*
X88169495Y-30585712D01*
X88180793Y-30561826D01*
X88194377Y-30539163D01*
X88210117Y-30517940D01*
X88227861Y-30498361D01*
X88247440Y-30480617D01*
X88268663Y-30464877D01*
X88291326Y-30451293D01*
X88315212Y-30439995D01*
X88340091Y-30431094D01*
X88365722Y-30424674D01*
X88391859Y-30420797D01*
X88418250Y-30419500D01*
X89381750Y-30419500D01*
X89408141Y-30420797D01*
X89408141Y-30420797D01*
G37*
D24*
X88900000Y-30958000D03*
D23*
G36*
X89408141Y-28545797D02*
G01*
X89434278Y-28549674D01*
X89459909Y-28556094D01*
X89484788Y-28564995D01*
X89508674Y-28576293D01*
X89531337Y-28589877D01*
X89552560Y-28605617D01*
X89572139Y-28623361D01*
X89589883Y-28642940D01*
X89605623Y-28664163D01*
X89619207Y-28686826D01*
X89630505Y-28710712D01*
X89639406Y-28735591D01*
X89645826Y-28761222D01*
X89649703Y-28787359D01*
X89651000Y-28813750D01*
X89651000Y-29352250D01*
X89649703Y-29378641D01*
X89645826Y-29404778D01*
X89639406Y-29430409D01*
X89630505Y-29455288D01*
X89619207Y-29479174D01*
X89605623Y-29501837D01*
X89589883Y-29523060D01*
X89572139Y-29542639D01*
X89552560Y-29560383D01*
X89531337Y-29576123D01*
X89508674Y-29589707D01*
X89484788Y-29601005D01*
X89459909Y-29609906D01*
X89434278Y-29616326D01*
X89408141Y-29620203D01*
X89381750Y-29621500D01*
X88418250Y-29621500D01*
X88391859Y-29620203D01*
X88365722Y-29616326D01*
X88340091Y-29609906D01*
X88315212Y-29601005D01*
X88291326Y-29589707D01*
X88268663Y-29576123D01*
X88247440Y-29560383D01*
X88227861Y-29542639D01*
X88210117Y-29523060D01*
X88194377Y-29501837D01*
X88180793Y-29479174D01*
X88169495Y-29455288D01*
X88160594Y-29430409D01*
X88154174Y-29404778D01*
X88150297Y-29378641D01*
X88149000Y-29352250D01*
X88149000Y-28813750D01*
X88150297Y-28787359D01*
X88154174Y-28761222D01*
X88160594Y-28735591D01*
X88169495Y-28710712D01*
X88180793Y-28686826D01*
X88194377Y-28664163D01*
X88210117Y-28642940D01*
X88227861Y-28623361D01*
X88247440Y-28605617D01*
X88268663Y-28589877D01*
X88291326Y-28576293D01*
X88315212Y-28564995D01*
X88340091Y-28556094D01*
X88365722Y-28549674D01*
X88391859Y-28545797D01*
X88418250Y-28544500D01*
X89381750Y-28544500D01*
X89408141Y-28545797D01*
X89408141Y-28545797D01*
G37*
D24*
X88900000Y-29083000D03*
M02*
