G04 #@! TF.GenerationSoftware,KiCad,Pcbnew,(5.1.4)-1*
G04 #@! TF.CreationDate,2024-07-18T00:41:49-04:00*
G04 #@! TF.ProjectId,ai03-pcb-guide,61693033-2d70-4636-922d-67756964652e,rev?*
G04 #@! TF.SameCoordinates,Original*
G04 #@! TF.FileFunction,Soldermask,Bot*
G04 #@! TF.FilePolarity,Negative*
%FSLAX46Y46*%
G04 Gerber Fmt 4.6, Leading zero omitted, Abs format (unit mm)*
G04 Created by KiCad (PCBNEW (5.1.4)-1) date 2024-07-18 00:41:49*
%MOMM*%
%LPD*%
G04 APERTURE LIST*
%ADD10C,0.100000*%
G04 APERTURE END LIST*
D10*
G36*
X107048500Y-58471000D02*
G01*
X105041500Y-58471000D01*
X105041500Y-56464000D01*
X107048500Y-56464000D01*
X107048500Y-58471000D01*
X107048500Y-58471000D01*
G37*
G36*
X122681425Y-56469488D02*
G01*
X122847710Y-56502563D01*
X123030336Y-56578209D01*
X123194694Y-56688030D01*
X123334470Y-56827806D01*
X123444291Y-56992164D01*
X123519937Y-57174790D01*
X123558500Y-57368664D01*
X123558500Y-57566336D01*
X123519937Y-57760210D01*
X123444291Y-57942836D01*
X123334470Y-58107194D01*
X123194694Y-58246970D01*
X123030336Y-58356791D01*
X122847710Y-58432437D01*
X122681425Y-58465512D01*
X122653837Y-58471000D01*
X122456163Y-58471000D01*
X122428575Y-58465512D01*
X122262290Y-58432437D01*
X122079664Y-58356791D01*
X121915306Y-58246970D01*
X121775530Y-58107194D01*
X121665709Y-57942836D01*
X121590063Y-57760210D01*
X121551500Y-57566336D01*
X121551500Y-57368664D01*
X121590063Y-57174790D01*
X121665709Y-56992164D01*
X121775530Y-56827806D01*
X121915306Y-56688030D01*
X122079664Y-56578209D01*
X122262290Y-56502563D01*
X122428575Y-56469488D01*
X122456163Y-56464000D01*
X122653837Y-56464000D01*
X122681425Y-56469488D01*
X122681425Y-56469488D01*
G37*
G36*
X126098500Y-58471000D02*
G01*
X124091500Y-58471000D01*
X124091500Y-56464000D01*
X126098500Y-56464000D01*
X126098500Y-58471000D01*
X126098500Y-58471000D01*
G37*
G36*
X103631425Y-56469488D02*
G01*
X103797710Y-56502563D01*
X103980336Y-56578209D01*
X104144694Y-56688030D01*
X104284470Y-56827806D01*
X104394291Y-56992164D01*
X104469937Y-57174790D01*
X104508500Y-57368664D01*
X104508500Y-57566336D01*
X104469937Y-57760210D01*
X104394291Y-57942836D01*
X104284470Y-58107194D01*
X104144694Y-58246970D01*
X103980336Y-58356791D01*
X103797710Y-58432437D01*
X103631425Y-58465512D01*
X103603837Y-58471000D01*
X103406163Y-58471000D01*
X103378575Y-58465512D01*
X103212290Y-58432437D01*
X103029664Y-58356791D01*
X102865306Y-58246970D01*
X102725530Y-58107194D01*
X102615709Y-57942836D01*
X102540063Y-57760210D01*
X102501500Y-57566336D01*
X102501500Y-57368664D01*
X102540063Y-57174790D01*
X102615709Y-56992164D01*
X102725530Y-56827806D01*
X102865306Y-56688030D01*
X103029664Y-56578209D01*
X103212290Y-56502563D01*
X103378575Y-56469488D01*
X103406163Y-56464000D01*
X103603837Y-56464000D01*
X103631425Y-56469488D01*
X103631425Y-56469488D01*
G37*
G36*
X132413500Y-54538500D02*
G01*
X131111500Y-54538500D01*
X131111500Y-53536500D01*
X132413500Y-53536500D01*
X132413500Y-54538500D01*
X132413500Y-54538500D01*
G37*
G36*
X113363500Y-54538500D02*
G01*
X112061500Y-54538500D01*
X112061500Y-53536500D01*
X113363500Y-53536500D01*
X113363500Y-54538500D01*
X113363500Y-54538500D01*
G37*
G36*
X124421474Y-50421184D02*
G01*
X124634456Y-50509404D01*
X124793623Y-50575333D01*
X125128548Y-50799123D01*
X125413377Y-51083952D01*
X125637167Y-51418877D01*
X125669562Y-51497086D01*
X125791316Y-51791026D01*
X125869900Y-52186094D01*
X125869900Y-52588906D01*
X125791316Y-52983974D01*
X125740451Y-53106772D01*
X125637167Y-53356123D01*
X125413377Y-53691048D01*
X125128548Y-53975877D01*
X124793623Y-54199667D01*
X124763848Y-54212000D01*
X124421474Y-54353816D01*
X124026406Y-54432400D01*
X123623594Y-54432400D01*
X123228526Y-54353816D01*
X122886152Y-54212000D01*
X122856377Y-54199667D01*
X122521452Y-53975877D01*
X122236623Y-53691048D01*
X122012833Y-53356123D01*
X121909549Y-53106772D01*
X121858684Y-52983974D01*
X121780100Y-52588906D01*
X121780100Y-52186094D01*
X121858684Y-51791026D01*
X121980438Y-51497086D01*
X122012833Y-51418877D01*
X122236623Y-51083952D01*
X122521452Y-50799123D01*
X122856377Y-50575333D01*
X123015544Y-50509404D01*
X123228526Y-50421184D01*
X123623594Y-50342600D01*
X124026406Y-50342600D01*
X124421474Y-50421184D01*
X124421474Y-50421184D01*
G37*
G36*
X105371474Y-50421184D02*
G01*
X105584456Y-50509404D01*
X105743623Y-50575333D01*
X106078548Y-50799123D01*
X106363377Y-51083952D01*
X106587167Y-51418877D01*
X106619562Y-51497086D01*
X106741316Y-51791026D01*
X106819900Y-52186094D01*
X106819900Y-52588906D01*
X106741316Y-52983974D01*
X106690451Y-53106772D01*
X106587167Y-53356123D01*
X106363377Y-53691048D01*
X106078548Y-53975877D01*
X105743623Y-54199667D01*
X105713848Y-54212000D01*
X105371474Y-54353816D01*
X104976406Y-54432400D01*
X104573594Y-54432400D01*
X104178526Y-54353816D01*
X103836152Y-54212000D01*
X103806377Y-54199667D01*
X103471452Y-53975877D01*
X103186623Y-53691048D01*
X102962833Y-53356123D01*
X102859549Y-53106772D01*
X102808684Y-52983974D01*
X102730100Y-52588906D01*
X102730100Y-52186094D01*
X102808684Y-51791026D01*
X102930438Y-51497086D01*
X102962833Y-51418877D01*
X103186623Y-51083952D01*
X103471452Y-50799123D01*
X103806377Y-50575333D01*
X103965544Y-50509404D01*
X104178526Y-50421184D01*
X104573594Y-50342600D01*
X104976406Y-50342600D01*
X105371474Y-50421184D01*
X105371474Y-50421184D01*
G37*
G36*
X58505000Y-54212000D02*
G01*
X56603000Y-54212000D01*
X56603000Y-53010000D01*
X58505000Y-53010000D01*
X58505000Y-54212000D01*
X58505000Y-54212000D01*
G37*
G36*
X64705000Y-54212000D02*
G01*
X62803000Y-54212000D01*
X62803000Y-53010000D01*
X64705000Y-53010000D01*
X64705000Y-54212000D01*
X64705000Y-54212000D01*
G37*
G36*
X89559468Y-52434815D02*
G01*
X89598138Y-52446546D01*
X89633777Y-52465596D01*
X89665017Y-52491233D01*
X89690654Y-52522473D01*
X89709704Y-52558112D01*
X89721435Y-52596782D01*
X89726000Y-52643138D01*
X89726000Y-53719362D01*
X89721435Y-53765718D01*
X89709704Y-53804388D01*
X89690654Y-53840027D01*
X89665017Y-53871267D01*
X89633777Y-53896904D01*
X89598138Y-53915954D01*
X89559468Y-53927685D01*
X89513112Y-53932250D01*
X88861888Y-53932250D01*
X88815532Y-53927685D01*
X88776862Y-53915954D01*
X88741223Y-53896904D01*
X88709983Y-53871267D01*
X88684346Y-53840027D01*
X88665296Y-53804388D01*
X88653565Y-53765718D01*
X88649000Y-53719362D01*
X88649000Y-52643138D01*
X88653565Y-52596782D01*
X88665296Y-52558112D01*
X88684346Y-52522473D01*
X88709983Y-52491233D01*
X88741223Y-52465596D01*
X88776862Y-52446546D01*
X88815532Y-52434815D01*
X88861888Y-52430250D01*
X89513112Y-52430250D01*
X89559468Y-52434815D01*
X89559468Y-52434815D01*
G37*
G36*
X87684468Y-52434815D02*
G01*
X87723138Y-52446546D01*
X87758777Y-52465596D01*
X87790017Y-52491233D01*
X87815654Y-52522473D01*
X87834704Y-52558112D01*
X87846435Y-52596782D01*
X87851000Y-52643138D01*
X87851000Y-53719362D01*
X87846435Y-53765718D01*
X87834704Y-53804388D01*
X87815654Y-53840027D01*
X87790017Y-53871267D01*
X87758777Y-53896904D01*
X87723138Y-53915954D01*
X87684468Y-53927685D01*
X87638112Y-53932250D01*
X86986888Y-53932250D01*
X86940532Y-53927685D01*
X86901862Y-53915954D01*
X86866223Y-53896904D01*
X86834983Y-53871267D01*
X86809346Y-53840027D01*
X86790296Y-53804388D01*
X86778565Y-53765718D01*
X86774000Y-53719362D01*
X86774000Y-52643138D01*
X86778565Y-52596782D01*
X86790296Y-52558112D01*
X86809346Y-52522473D01*
X86834983Y-52491233D01*
X86866223Y-52465596D01*
X86901862Y-52446546D01*
X86940532Y-52434815D01*
X86986888Y-52430250D01*
X87638112Y-52430250D01*
X87684468Y-52434815D01*
X87684468Y-52434815D01*
G37*
G36*
X129175104Y-51497085D02*
G01*
X129343626Y-51566889D01*
X129495291Y-51668228D01*
X129624272Y-51797209D01*
X129725611Y-51948874D01*
X129795415Y-52117396D01*
X129831000Y-52296297D01*
X129831000Y-52478703D01*
X129795415Y-52657604D01*
X129725611Y-52826126D01*
X129624272Y-52977791D01*
X129495291Y-53106772D01*
X129343626Y-53208111D01*
X129175104Y-53277915D01*
X128996203Y-53313500D01*
X128813797Y-53313500D01*
X128634896Y-53277915D01*
X128466374Y-53208111D01*
X128314709Y-53106772D01*
X128185728Y-52977791D01*
X128084389Y-52826126D01*
X128014585Y-52657604D01*
X127979000Y-52478703D01*
X127979000Y-52296297D01*
X128014585Y-52117396D01*
X128084389Y-51948874D01*
X128185728Y-51797209D01*
X128314709Y-51668228D01*
X128466374Y-51566889D01*
X128634896Y-51497085D01*
X128813797Y-51461500D01*
X128996203Y-51461500D01*
X129175104Y-51497085D01*
X129175104Y-51497085D01*
G37*
G36*
X119015104Y-51497085D02*
G01*
X119183626Y-51566889D01*
X119335291Y-51668228D01*
X119464272Y-51797209D01*
X119565611Y-51948874D01*
X119635415Y-52117396D01*
X119671000Y-52296297D01*
X119671000Y-52478703D01*
X119635415Y-52657604D01*
X119565611Y-52826126D01*
X119464272Y-52977791D01*
X119335291Y-53106772D01*
X119183626Y-53208111D01*
X119015104Y-53277915D01*
X118836203Y-53313500D01*
X118653797Y-53313500D01*
X118474896Y-53277915D01*
X118306374Y-53208111D01*
X118154709Y-53106772D01*
X118025728Y-52977791D01*
X117924389Y-52826126D01*
X117854585Y-52657604D01*
X117819000Y-52478703D01*
X117819000Y-52296297D01*
X117854585Y-52117396D01*
X117924389Y-51948874D01*
X118025728Y-51797209D01*
X118154709Y-51668228D01*
X118306374Y-51566889D01*
X118474896Y-51497085D01*
X118653797Y-51461500D01*
X118836203Y-51461500D01*
X119015104Y-51497085D01*
X119015104Y-51497085D01*
G37*
G36*
X110125104Y-51497085D02*
G01*
X110293626Y-51566889D01*
X110445291Y-51668228D01*
X110574272Y-51797209D01*
X110675611Y-51948874D01*
X110745415Y-52117396D01*
X110781000Y-52296297D01*
X110781000Y-52478703D01*
X110745415Y-52657604D01*
X110675611Y-52826126D01*
X110574272Y-52977791D01*
X110445291Y-53106772D01*
X110293626Y-53208111D01*
X110125104Y-53277915D01*
X109946203Y-53313500D01*
X109763797Y-53313500D01*
X109584896Y-53277915D01*
X109416374Y-53208111D01*
X109264709Y-53106772D01*
X109135728Y-52977791D01*
X109034389Y-52826126D01*
X108964585Y-52657604D01*
X108929000Y-52478703D01*
X108929000Y-52296297D01*
X108964585Y-52117396D01*
X109034389Y-51948874D01*
X109135728Y-51797209D01*
X109264709Y-51668228D01*
X109416374Y-51566889D01*
X109584896Y-51497085D01*
X109763797Y-51461500D01*
X109946203Y-51461500D01*
X110125104Y-51497085D01*
X110125104Y-51497085D01*
G37*
G36*
X99965104Y-51497085D02*
G01*
X100133626Y-51566889D01*
X100285291Y-51668228D01*
X100414272Y-51797209D01*
X100515611Y-51948874D01*
X100585415Y-52117396D01*
X100621000Y-52296297D01*
X100621000Y-52478703D01*
X100585415Y-52657604D01*
X100515611Y-52826126D01*
X100414272Y-52977791D01*
X100285291Y-53106772D01*
X100133626Y-53208111D01*
X99965104Y-53277915D01*
X99786203Y-53313500D01*
X99603797Y-53313500D01*
X99424896Y-53277915D01*
X99256374Y-53208111D01*
X99104709Y-53106772D01*
X98975728Y-52977791D01*
X98874389Y-52826126D01*
X98804585Y-52657604D01*
X98769000Y-52478703D01*
X98769000Y-52296297D01*
X98804585Y-52117396D01*
X98874389Y-51948874D01*
X98975728Y-51797209D01*
X99104709Y-51668228D01*
X99256374Y-51566889D01*
X99424896Y-51497085D01*
X99603797Y-51461500D01*
X99786203Y-51461500D01*
X99965104Y-51497085D01*
X99965104Y-51497085D01*
G37*
G36*
X71704468Y-50441565D02*
G01*
X71743138Y-50453296D01*
X71778777Y-50472346D01*
X71810017Y-50497983D01*
X71835654Y-50529223D01*
X71854704Y-50564862D01*
X71866435Y-50603532D01*
X71871000Y-50649888D01*
X71871000Y-51301112D01*
X71866435Y-51347468D01*
X71854704Y-51386138D01*
X71835654Y-51421777D01*
X71810017Y-51453017D01*
X71778777Y-51478654D01*
X71743138Y-51497704D01*
X71704468Y-51509435D01*
X71658112Y-51514000D01*
X70581888Y-51514000D01*
X70535532Y-51509435D01*
X70496862Y-51497704D01*
X70461223Y-51478654D01*
X70429983Y-51453017D01*
X70404346Y-51421777D01*
X70385296Y-51386138D01*
X70373565Y-51347468D01*
X70369000Y-51301112D01*
X70369000Y-50649888D01*
X70373565Y-50603532D01*
X70385296Y-50564862D01*
X70404346Y-50529223D01*
X70429983Y-50497983D01*
X70461223Y-50472346D01*
X70496862Y-50453296D01*
X70535532Y-50441565D01*
X70581888Y-50437000D01*
X71658112Y-50437000D01*
X71704468Y-50441565D01*
X71704468Y-50441565D01*
G37*
G36*
X113363500Y-51238500D02*
G01*
X112061500Y-51238500D01*
X112061500Y-50236500D01*
X113363500Y-50236500D01*
X113363500Y-51238500D01*
X113363500Y-51238500D01*
G37*
G36*
X132413500Y-51238500D02*
G01*
X131111500Y-51238500D01*
X131111500Y-50236500D01*
X132413500Y-50236500D01*
X132413500Y-51238500D01*
X132413500Y-51238500D01*
G37*
G36*
X120181919Y-48681663D02*
G01*
X120358027Y-48716693D01*
X120572045Y-48805342D01*
X120572046Y-48805343D01*
X120764654Y-48934039D01*
X120928461Y-49097846D01*
X121014258Y-49226251D01*
X121057158Y-49290455D01*
X121145807Y-49504473D01*
X121191000Y-49731674D01*
X121191000Y-49963326D01*
X121145807Y-50190527D01*
X121057158Y-50404545D01*
X121021778Y-50457495D01*
X120928461Y-50597154D01*
X120764654Y-50760961D01*
X120707540Y-50799123D01*
X120572045Y-50889658D01*
X120358027Y-50978307D01*
X120206560Y-51008436D01*
X120130827Y-51023500D01*
X119899173Y-51023500D01*
X119823440Y-51008436D01*
X119671973Y-50978307D01*
X119457955Y-50889658D01*
X119322460Y-50799123D01*
X119265346Y-50760961D01*
X119101539Y-50597154D01*
X119008222Y-50457495D01*
X118972842Y-50404545D01*
X118884193Y-50190527D01*
X118839000Y-49963326D01*
X118839000Y-49731674D01*
X118884193Y-49504473D01*
X118972842Y-49290455D01*
X119015742Y-49226251D01*
X119101539Y-49097846D01*
X119265346Y-48934039D01*
X119457954Y-48805343D01*
X119457955Y-48805342D01*
X119671973Y-48716693D01*
X119848081Y-48681663D01*
X119899173Y-48671500D01*
X120130827Y-48671500D01*
X120181919Y-48681663D01*
X120181919Y-48681663D01*
G37*
G36*
X101131919Y-48681663D02*
G01*
X101308027Y-48716693D01*
X101522045Y-48805342D01*
X101522046Y-48805343D01*
X101714654Y-48934039D01*
X101878461Y-49097846D01*
X101964258Y-49226251D01*
X102007158Y-49290455D01*
X102095807Y-49504473D01*
X102141000Y-49731674D01*
X102141000Y-49963326D01*
X102095807Y-50190527D01*
X102007158Y-50404545D01*
X101971778Y-50457495D01*
X101878461Y-50597154D01*
X101714654Y-50760961D01*
X101657540Y-50799123D01*
X101522045Y-50889658D01*
X101308027Y-50978307D01*
X101156560Y-51008436D01*
X101080827Y-51023500D01*
X100849173Y-51023500D01*
X100773440Y-51008436D01*
X100621973Y-50978307D01*
X100407955Y-50889658D01*
X100272460Y-50799123D01*
X100215346Y-50760961D01*
X100051539Y-50597154D01*
X99958222Y-50457495D01*
X99922842Y-50404545D01*
X99834193Y-50190527D01*
X99789000Y-49963326D01*
X99789000Y-49731674D01*
X99834193Y-49504473D01*
X99922842Y-49290455D01*
X99965742Y-49226251D01*
X100051539Y-49097846D01*
X100215346Y-48934039D01*
X100407954Y-48805343D01*
X100407955Y-48805342D01*
X100621973Y-48716693D01*
X100798081Y-48681663D01*
X100849173Y-48671500D01*
X101080827Y-48671500D01*
X101131919Y-48681663D01*
X101131919Y-48681663D01*
G37*
G36*
X87669750Y-50951000D02*
G01*
X79017750Y-50951000D01*
X79017750Y-49349000D01*
X87669750Y-49349000D01*
X87669750Y-50951000D01*
X87669750Y-50951000D01*
G37*
G36*
X93453218Y-49472315D02*
G01*
X93491888Y-49484046D01*
X93527527Y-49503096D01*
X93558767Y-49528733D01*
X93584404Y-49559973D01*
X93603454Y-49595612D01*
X93615185Y-49634282D01*
X93619750Y-49680638D01*
X93619750Y-50331862D01*
X93615185Y-50378218D01*
X93603454Y-50416888D01*
X93584404Y-50452527D01*
X93558767Y-50483767D01*
X93527527Y-50509404D01*
X93491888Y-50528454D01*
X93453218Y-50540185D01*
X93406862Y-50544750D01*
X92330638Y-50544750D01*
X92284282Y-50540185D01*
X92245612Y-50528454D01*
X92209973Y-50509404D01*
X92178733Y-50483767D01*
X92153096Y-50452527D01*
X92134046Y-50416888D01*
X92122315Y-50378218D01*
X92117750Y-50331862D01*
X92117750Y-49680638D01*
X92122315Y-49634282D01*
X92134046Y-49595612D01*
X92153096Y-49559973D01*
X92178733Y-49528733D01*
X92209973Y-49503096D01*
X92245612Y-49484046D01*
X92284282Y-49472315D01*
X92330638Y-49467750D01*
X93406862Y-49467750D01*
X93453218Y-49472315D01*
X93453218Y-49472315D01*
G37*
G36*
X58505000Y-50512000D02*
G01*
X56603000Y-50512000D01*
X56603000Y-49310000D01*
X58505000Y-49310000D01*
X58505000Y-50512000D01*
X58505000Y-50512000D01*
G37*
G36*
X64705000Y-50512000D02*
G01*
X62803000Y-50512000D01*
X62803000Y-49310000D01*
X64705000Y-49310000D01*
X64705000Y-50512000D01*
X64705000Y-50512000D01*
G37*
G36*
X71704468Y-48566565D02*
G01*
X71743138Y-48578296D01*
X71778777Y-48597346D01*
X71810017Y-48622983D01*
X71835654Y-48654223D01*
X71854704Y-48689862D01*
X71866435Y-48728532D01*
X71871000Y-48774888D01*
X71871000Y-49426112D01*
X71866435Y-49472468D01*
X71854704Y-49511138D01*
X71835654Y-49546777D01*
X71810017Y-49578017D01*
X71778777Y-49603654D01*
X71743138Y-49622704D01*
X71704468Y-49634435D01*
X71658112Y-49639000D01*
X70581888Y-49639000D01*
X70535532Y-49634435D01*
X70496862Y-49622704D01*
X70461223Y-49603654D01*
X70429983Y-49578017D01*
X70404346Y-49546777D01*
X70385296Y-49511138D01*
X70373565Y-49472468D01*
X70369000Y-49426112D01*
X70369000Y-48774888D01*
X70373565Y-48728532D01*
X70385296Y-48689862D01*
X70404346Y-48654223D01*
X70429983Y-48622983D01*
X70461223Y-48597346D01*
X70496862Y-48578296D01*
X70535532Y-48566565D01*
X70581888Y-48562000D01*
X71658112Y-48562000D01*
X71704468Y-48566565D01*
X71704468Y-48566565D01*
G37*
G36*
X78444750Y-48776000D02*
G01*
X76842750Y-48776000D01*
X76842750Y-40124000D01*
X78444750Y-40124000D01*
X78444750Y-48776000D01*
X78444750Y-48776000D01*
G37*
G36*
X89844750Y-48776000D02*
G01*
X88242750Y-48776000D01*
X88242750Y-40124000D01*
X89844750Y-40124000D01*
X89844750Y-48776000D01*
X89844750Y-48776000D01*
G37*
G36*
X93453218Y-47597315D02*
G01*
X93491888Y-47609046D01*
X93527527Y-47628096D01*
X93558767Y-47653733D01*
X93584404Y-47684973D01*
X93603454Y-47720612D01*
X93615185Y-47759282D01*
X93619750Y-47805638D01*
X93619750Y-48456862D01*
X93615185Y-48503218D01*
X93603454Y-48541888D01*
X93584404Y-48577527D01*
X93558767Y-48608767D01*
X93527527Y-48634404D01*
X93491888Y-48653454D01*
X93453218Y-48665185D01*
X93406862Y-48669750D01*
X92330638Y-48669750D01*
X92284282Y-48665185D01*
X92245612Y-48653454D01*
X92209973Y-48634404D01*
X92178733Y-48608767D01*
X92153096Y-48577527D01*
X92134046Y-48541888D01*
X92122315Y-48503218D01*
X92117750Y-48456862D01*
X92117750Y-47805638D01*
X92122315Y-47759282D01*
X92134046Y-47720612D01*
X92153096Y-47684973D01*
X92178733Y-47653733D01*
X92209973Y-47628096D01*
X92245612Y-47609046D01*
X92284282Y-47597315D01*
X92330638Y-47592750D01*
X93406862Y-47592750D01*
X93453218Y-47597315D01*
X93453218Y-47597315D01*
G37*
G36*
X126556560Y-46146564D02*
G01*
X126708027Y-46176693D01*
X126922045Y-46265342D01*
X126922046Y-46265343D01*
X127114654Y-46394039D01*
X127278461Y-46557846D01*
X127364258Y-46686251D01*
X127407158Y-46750455D01*
X127495807Y-46964473D01*
X127541000Y-47191674D01*
X127541000Y-47423326D01*
X127495807Y-47650527D01*
X127407158Y-47864545D01*
X127407157Y-47864546D01*
X127278461Y-48057154D01*
X127114654Y-48220961D01*
X126986249Y-48306758D01*
X126922045Y-48349658D01*
X126708027Y-48438307D01*
X126556560Y-48468436D01*
X126480827Y-48483500D01*
X126249173Y-48483500D01*
X126173440Y-48468436D01*
X126021973Y-48438307D01*
X125807955Y-48349658D01*
X125743751Y-48306758D01*
X125615346Y-48220961D01*
X125451539Y-48057154D01*
X125322843Y-47864546D01*
X125322842Y-47864545D01*
X125234193Y-47650527D01*
X125189000Y-47423326D01*
X125189000Y-47191674D01*
X125234193Y-46964473D01*
X125322842Y-46750455D01*
X125365742Y-46686251D01*
X125451539Y-46557846D01*
X125615346Y-46394039D01*
X125807954Y-46265343D01*
X125807955Y-46265342D01*
X126021973Y-46176693D01*
X126173440Y-46146564D01*
X126249173Y-46131500D01*
X126480827Y-46131500D01*
X126556560Y-46146564D01*
X126556560Y-46146564D01*
G37*
G36*
X107506560Y-46146564D02*
G01*
X107658027Y-46176693D01*
X107872045Y-46265342D01*
X107872046Y-46265343D01*
X108064654Y-46394039D01*
X108228461Y-46557846D01*
X108314258Y-46686251D01*
X108357158Y-46750455D01*
X108445807Y-46964473D01*
X108491000Y-47191674D01*
X108491000Y-47423326D01*
X108445807Y-47650527D01*
X108357158Y-47864545D01*
X108357157Y-47864546D01*
X108228461Y-48057154D01*
X108064654Y-48220961D01*
X107936249Y-48306758D01*
X107872045Y-48349658D01*
X107658027Y-48438307D01*
X107506560Y-48468436D01*
X107430827Y-48483500D01*
X107199173Y-48483500D01*
X107123440Y-48468436D01*
X106971973Y-48438307D01*
X106757955Y-48349658D01*
X106693751Y-48306758D01*
X106565346Y-48220961D01*
X106401539Y-48057154D01*
X106272843Y-47864546D01*
X106272842Y-47864545D01*
X106184193Y-47650527D01*
X106139000Y-47423326D01*
X106139000Y-47191674D01*
X106184193Y-46964473D01*
X106272842Y-46750455D01*
X106315742Y-46686251D01*
X106401539Y-46557846D01*
X106565346Y-46394039D01*
X106757954Y-46265343D01*
X106757955Y-46265342D01*
X106971973Y-46176693D01*
X107123440Y-46146564D01*
X107199173Y-46131500D01*
X107430827Y-46131500D01*
X107506560Y-46146564D01*
X107506560Y-46146564D01*
G37*
G36*
X71872968Y-42052565D02*
G01*
X71911638Y-42064296D01*
X71947277Y-42083346D01*
X71978517Y-42108983D01*
X72004154Y-42140223D01*
X72023204Y-42175862D01*
X72034935Y-42214532D01*
X72039500Y-42260888D01*
X72039500Y-43337112D01*
X72034935Y-43383468D01*
X72023204Y-43422138D01*
X72004154Y-43457777D01*
X71978517Y-43489017D01*
X71947277Y-43514654D01*
X71911638Y-43533704D01*
X71872968Y-43545435D01*
X71826612Y-43550000D01*
X71175388Y-43550000D01*
X71129032Y-43545435D01*
X71090362Y-43533704D01*
X71054723Y-43514654D01*
X71023483Y-43489017D01*
X70997846Y-43457777D01*
X70978796Y-43422138D01*
X70967065Y-43383468D01*
X70962500Y-43337112D01*
X70962500Y-42260888D01*
X70967065Y-42214532D01*
X70978796Y-42175862D01*
X70997846Y-42140223D01*
X71023483Y-42108983D01*
X71054723Y-42083346D01*
X71090362Y-42064296D01*
X71129032Y-42052565D01*
X71175388Y-42048000D01*
X71826612Y-42048000D01*
X71872968Y-42052565D01*
X71872968Y-42052565D01*
G37*
G36*
X69997968Y-42052565D02*
G01*
X70036638Y-42064296D01*
X70072277Y-42083346D01*
X70103517Y-42108983D01*
X70129154Y-42140223D01*
X70148204Y-42175862D01*
X70159935Y-42214532D01*
X70164500Y-42260888D01*
X70164500Y-43337112D01*
X70159935Y-43383468D01*
X70148204Y-43422138D01*
X70129154Y-43457777D01*
X70103517Y-43489017D01*
X70072277Y-43514654D01*
X70036638Y-43533704D01*
X69997968Y-43545435D01*
X69951612Y-43550000D01*
X69300388Y-43550000D01*
X69254032Y-43545435D01*
X69215362Y-43533704D01*
X69179723Y-43514654D01*
X69148483Y-43489017D01*
X69122846Y-43457777D01*
X69103796Y-43422138D01*
X69092065Y-43383468D01*
X69087500Y-43337112D01*
X69087500Y-42260888D01*
X69092065Y-42214532D01*
X69103796Y-42175862D01*
X69122846Y-42140223D01*
X69148483Y-42108983D01*
X69179723Y-42083346D01*
X69215362Y-42064296D01*
X69254032Y-42052565D01*
X69300388Y-42048000D01*
X69951612Y-42048000D01*
X69997968Y-42052565D01*
X69997968Y-42052565D01*
G37*
G36*
X53949854Y-42190847D02*
G01*
X53986394Y-42201932D01*
X54020071Y-42219933D01*
X54049591Y-42244159D01*
X54073817Y-42273679D01*
X54091818Y-42307356D01*
X54102903Y-42343896D01*
X54107250Y-42388038D01*
X54107250Y-43336962D01*
X54102903Y-43381104D01*
X54091818Y-43417644D01*
X54073817Y-43451321D01*
X54049591Y-43480841D01*
X54020071Y-43505067D01*
X53986394Y-43523068D01*
X53949854Y-43534153D01*
X53905712Y-43538500D01*
X52456788Y-43538500D01*
X52412646Y-43534153D01*
X52376106Y-43523068D01*
X52342429Y-43505067D01*
X52312909Y-43480841D01*
X52288683Y-43451321D01*
X52270682Y-43417644D01*
X52259597Y-43381104D01*
X52255250Y-43336962D01*
X52255250Y-42388038D01*
X52259597Y-42343896D01*
X52270682Y-42307356D01*
X52288683Y-42273679D01*
X52312909Y-42244159D01*
X52342429Y-42219933D01*
X52376106Y-42201932D01*
X52412646Y-42190847D01*
X52456788Y-42186500D01*
X53905712Y-42186500D01*
X53949854Y-42190847D01*
X53949854Y-42190847D01*
G37*
G36*
X93453218Y-41822315D02*
G01*
X93491888Y-41834046D01*
X93527527Y-41853096D01*
X93558767Y-41878733D01*
X93584404Y-41909973D01*
X93603454Y-41945612D01*
X93615185Y-41984282D01*
X93619750Y-42030638D01*
X93619750Y-42681862D01*
X93615185Y-42728218D01*
X93603454Y-42766888D01*
X93584404Y-42802527D01*
X93558767Y-42833767D01*
X93527527Y-42859404D01*
X93491888Y-42878454D01*
X93453218Y-42890185D01*
X93406862Y-42894750D01*
X92330638Y-42894750D01*
X92284282Y-42890185D01*
X92245612Y-42878454D01*
X92209973Y-42859404D01*
X92178733Y-42833767D01*
X92153096Y-42802527D01*
X92134046Y-42766888D01*
X92122315Y-42728218D01*
X92117750Y-42681862D01*
X92117750Y-42030638D01*
X92122315Y-41984282D01*
X92134046Y-41945612D01*
X92153096Y-41909973D01*
X92178733Y-41878733D01*
X92209973Y-41853096D01*
X92245612Y-41834046D01*
X92284282Y-41822315D01*
X92330638Y-41817750D01*
X93406862Y-41817750D01*
X93453218Y-41822315D01*
X93453218Y-41822315D01*
G37*
G36*
X93453218Y-39947315D02*
G01*
X93491888Y-39959046D01*
X93527527Y-39978096D01*
X93558767Y-40003733D01*
X93584404Y-40034973D01*
X93603454Y-40070612D01*
X93615185Y-40109282D01*
X93619750Y-40155638D01*
X93619750Y-40806862D01*
X93615185Y-40853218D01*
X93603454Y-40891888D01*
X93584404Y-40927527D01*
X93558767Y-40958767D01*
X93527527Y-40984404D01*
X93491888Y-41003454D01*
X93453218Y-41015185D01*
X93406862Y-41019750D01*
X92330638Y-41019750D01*
X92284282Y-41015185D01*
X92245612Y-41003454D01*
X92209973Y-40984404D01*
X92178733Y-40958767D01*
X92153096Y-40927527D01*
X92134046Y-40891888D01*
X92122315Y-40853218D01*
X92117750Y-40806862D01*
X92117750Y-40155638D01*
X92122315Y-40109282D01*
X92134046Y-40070612D01*
X92153096Y-40034973D01*
X92178733Y-40003733D01*
X92209973Y-39978096D01*
X92245612Y-39959046D01*
X92284282Y-39947315D01*
X92330638Y-39942750D01*
X93406862Y-39942750D01*
X93453218Y-39947315D01*
X93453218Y-39947315D01*
G37*
G36*
X53949854Y-39390847D02*
G01*
X53986394Y-39401932D01*
X54020071Y-39419933D01*
X54049591Y-39444159D01*
X54073817Y-39473679D01*
X54091818Y-39507356D01*
X54102903Y-39543896D01*
X54107250Y-39588038D01*
X54107250Y-40536962D01*
X54102903Y-40581104D01*
X54091818Y-40617644D01*
X54073817Y-40651321D01*
X54049591Y-40680841D01*
X54020071Y-40705067D01*
X53986394Y-40723068D01*
X53949854Y-40734153D01*
X53905712Y-40738500D01*
X52456788Y-40738500D01*
X52412646Y-40734153D01*
X52376106Y-40723068D01*
X52342429Y-40705067D01*
X52312909Y-40680841D01*
X52288683Y-40651321D01*
X52270682Y-40617644D01*
X52259597Y-40581104D01*
X52255250Y-40536962D01*
X52255250Y-39588038D01*
X52259597Y-39543896D01*
X52270682Y-39507356D01*
X52288683Y-39473679D01*
X52312909Y-39444159D01*
X52342429Y-39419933D01*
X52376106Y-39401932D01*
X52412646Y-39390847D01*
X52456788Y-39386500D01*
X53905712Y-39386500D01*
X53949854Y-39390847D01*
X53949854Y-39390847D01*
G37*
G36*
X87669750Y-39551000D02*
G01*
X79017750Y-39551000D01*
X79017750Y-37949000D01*
X87669750Y-37949000D01*
X87669750Y-39551000D01*
X87669750Y-39551000D01*
G37*
G36*
X103631425Y-37419488D02*
G01*
X103797710Y-37452563D01*
X103980336Y-37528209D01*
X104144694Y-37638030D01*
X104284470Y-37777806D01*
X104394291Y-37942164D01*
X104469937Y-38124790D01*
X104508500Y-38318664D01*
X104508500Y-38516336D01*
X104469937Y-38710210D01*
X104394291Y-38892836D01*
X104284470Y-39057194D01*
X104144694Y-39196970D01*
X103980336Y-39306791D01*
X103797710Y-39382437D01*
X103631425Y-39415512D01*
X103603837Y-39421000D01*
X103406163Y-39421000D01*
X103378575Y-39415512D01*
X103212290Y-39382437D01*
X103029664Y-39306791D01*
X102865306Y-39196970D01*
X102725530Y-39057194D01*
X102615709Y-38892836D01*
X102540063Y-38710210D01*
X102501500Y-38516336D01*
X102501500Y-38318664D01*
X102540063Y-38124790D01*
X102615709Y-37942164D01*
X102725530Y-37777806D01*
X102865306Y-37638030D01*
X103029664Y-37528209D01*
X103212290Y-37452563D01*
X103378575Y-37419488D01*
X103406163Y-37414000D01*
X103603837Y-37414000D01*
X103631425Y-37419488D01*
X103631425Y-37419488D01*
G37*
G36*
X126098500Y-39421000D02*
G01*
X124091500Y-39421000D01*
X124091500Y-37414000D01*
X126098500Y-37414000D01*
X126098500Y-39421000D01*
X126098500Y-39421000D01*
G37*
G36*
X107048500Y-39421000D02*
G01*
X105041500Y-39421000D01*
X105041500Y-37414000D01*
X107048500Y-37414000D01*
X107048500Y-39421000D01*
X107048500Y-39421000D01*
G37*
G36*
X122681425Y-37419488D02*
G01*
X122847710Y-37452563D01*
X123030336Y-37528209D01*
X123194694Y-37638030D01*
X123334470Y-37777806D01*
X123444291Y-37942164D01*
X123519937Y-38124790D01*
X123558500Y-38318664D01*
X123558500Y-38516336D01*
X123519937Y-38710210D01*
X123444291Y-38892836D01*
X123334470Y-39057194D01*
X123194694Y-39196970D01*
X123030336Y-39306791D01*
X122847710Y-39382437D01*
X122681425Y-39415512D01*
X122653837Y-39421000D01*
X122456163Y-39421000D01*
X122428575Y-39415512D01*
X122262290Y-39382437D01*
X122079664Y-39306791D01*
X121915306Y-39196970D01*
X121775530Y-39057194D01*
X121665709Y-38892836D01*
X121590063Y-38710210D01*
X121551500Y-38516336D01*
X121551500Y-38318664D01*
X121590063Y-38124790D01*
X121665709Y-37942164D01*
X121775530Y-37777806D01*
X121915306Y-37638030D01*
X122079664Y-37528209D01*
X122262290Y-37452563D01*
X122428575Y-37419488D01*
X122456163Y-37414000D01*
X122653837Y-37414000D01*
X122681425Y-37419488D01*
X122681425Y-37419488D01*
G37*
G36*
X60274468Y-35534065D02*
G01*
X60313138Y-35545796D01*
X60348777Y-35564846D01*
X60380017Y-35590483D01*
X60405654Y-35621723D01*
X60424704Y-35657362D01*
X60436435Y-35696032D01*
X60441000Y-35742388D01*
X60441000Y-36393612D01*
X60436435Y-36439968D01*
X60424704Y-36478638D01*
X60405654Y-36514277D01*
X60380017Y-36545517D01*
X60348777Y-36571154D01*
X60313138Y-36590204D01*
X60274468Y-36601935D01*
X60228112Y-36606500D01*
X59151888Y-36606500D01*
X59105532Y-36601935D01*
X59066862Y-36590204D01*
X59031223Y-36571154D01*
X58999983Y-36545517D01*
X58974346Y-36514277D01*
X58955296Y-36478638D01*
X58943565Y-36439968D01*
X58939000Y-36393612D01*
X58939000Y-35742388D01*
X58943565Y-35696032D01*
X58955296Y-35657362D01*
X58974346Y-35621723D01*
X58999983Y-35590483D01*
X59031223Y-35564846D01*
X59066862Y-35545796D01*
X59105532Y-35534065D01*
X59151888Y-35529500D01*
X60228112Y-35529500D01*
X60274468Y-35534065D01*
X60274468Y-35534065D01*
G37*
G36*
X63068468Y-35504065D02*
G01*
X63107138Y-35515796D01*
X63142777Y-35534846D01*
X63174017Y-35560483D01*
X63199654Y-35591723D01*
X63218704Y-35627362D01*
X63230435Y-35666032D01*
X63235000Y-35712388D01*
X63235000Y-36363612D01*
X63230435Y-36409968D01*
X63218704Y-36448638D01*
X63199654Y-36484277D01*
X63174017Y-36515517D01*
X63142777Y-36541154D01*
X63107138Y-36560204D01*
X63068468Y-36571935D01*
X63022112Y-36576500D01*
X61945888Y-36576500D01*
X61899532Y-36571935D01*
X61860862Y-36560204D01*
X61825223Y-36541154D01*
X61793983Y-36515517D01*
X61768346Y-36484277D01*
X61749296Y-36448638D01*
X61737565Y-36409968D01*
X61733000Y-36363612D01*
X61733000Y-35712388D01*
X61737565Y-35666032D01*
X61749296Y-35627362D01*
X61768346Y-35591723D01*
X61793983Y-35560483D01*
X61825223Y-35534846D01*
X61860862Y-35515796D01*
X61899532Y-35504065D01*
X61945888Y-35499500D01*
X63022112Y-35499500D01*
X63068468Y-35504065D01*
X63068468Y-35504065D01*
G37*
G36*
X113363500Y-35488500D02*
G01*
X112061500Y-35488500D01*
X112061500Y-34486500D01*
X113363500Y-34486500D01*
X113363500Y-35488500D01*
X113363500Y-35488500D01*
G37*
G36*
X132413500Y-35488500D02*
G01*
X131111500Y-35488500D01*
X131111500Y-34486500D01*
X132413500Y-34486500D01*
X132413500Y-35488500D01*
X132413500Y-35488500D01*
G37*
G36*
X105371474Y-31371184D02*
G01*
X105588680Y-31461154D01*
X105743623Y-31525333D01*
X106078548Y-31749123D01*
X106363377Y-32033952D01*
X106587167Y-32368877D01*
X106619562Y-32447086D01*
X106741316Y-32741026D01*
X106819900Y-33136094D01*
X106819900Y-33538906D01*
X106741316Y-33933974D01*
X106686422Y-34066500D01*
X106587167Y-34306123D01*
X106363377Y-34641048D01*
X106078548Y-34925877D01*
X105743623Y-35149667D01*
X105589474Y-35213517D01*
X105371474Y-35303816D01*
X104976406Y-35382400D01*
X104573594Y-35382400D01*
X104178526Y-35303816D01*
X103960526Y-35213517D01*
X103806377Y-35149667D01*
X103471452Y-34925877D01*
X103186623Y-34641048D01*
X102962833Y-34306123D01*
X102863578Y-34066500D01*
X102808684Y-33933974D01*
X102730100Y-33538906D01*
X102730100Y-33136094D01*
X102808684Y-32741026D01*
X102930438Y-32447086D01*
X102962833Y-32368877D01*
X103186623Y-32033952D01*
X103471452Y-31749123D01*
X103806377Y-31525333D01*
X103961320Y-31461154D01*
X104178526Y-31371184D01*
X104573594Y-31292600D01*
X104976406Y-31292600D01*
X105371474Y-31371184D01*
X105371474Y-31371184D01*
G37*
G36*
X124421474Y-31371184D02*
G01*
X124638680Y-31461154D01*
X124793623Y-31525333D01*
X125128548Y-31749123D01*
X125413377Y-32033952D01*
X125637167Y-32368877D01*
X125669562Y-32447086D01*
X125791316Y-32741026D01*
X125869900Y-33136094D01*
X125869900Y-33538906D01*
X125791316Y-33933974D01*
X125736422Y-34066500D01*
X125637167Y-34306123D01*
X125413377Y-34641048D01*
X125128548Y-34925877D01*
X124793623Y-35149667D01*
X124639474Y-35213517D01*
X124421474Y-35303816D01*
X124026406Y-35382400D01*
X123623594Y-35382400D01*
X123228526Y-35303816D01*
X123010526Y-35213517D01*
X122856377Y-35149667D01*
X122521452Y-34925877D01*
X122236623Y-34641048D01*
X122012833Y-34306123D01*
X121913578Y-34066500D01*
X121858684Y-33933974D01*
X121780100Y-33538906D01*
X121780100Y-33136094D01*
X121858684Y-32741026D01*
X121980438Y-32447086D01*
X122012833Y-32368877D01*
X122236623Y-32033952D01*
X122521452Y-31749123D01*
X122856377Y-31525333D01*
X123011320Y-31461154D01*
X123228526Y-31371184D01*
X123623594Y-31292600D01*
X124026406Y-31292600D01*
X124421474Y-31371184D01*
X124421474Y-31371184D01*
G37*
G36*
X77324218Y-33726065D02*
G01*
X77362888Y-33737796D01*
X77398527Y-33756846D01*
X77429767Y-33782483D01*
X77455404Y-33813723D01*
X77474454Y-33849362D01*
X77486185Y-33888032D01*
X77490750Y-33934388D01*
X77490750Y-34585612D01*
X77486185Y-34631968D01*
X77474454Y-34670638D01*
X77455404Y-34706277D01*
X77429767Y-34737517D01*
X77398527Y-34763154D01*
X77362888Y-34782204D01*
X77324218Y-34793935D01*
X77277862Y-34798500D01*
X76201638Y-34798500D01*
X76155282Y-34793935D01*
X76116612Y-34782204D01*
X76080973Y-34763154D01*
X76049733Y-34737517D01*
X76024096Y-34706277D01*
X76005046Y-34670638D01*
X75993315Y-34631968D01*
X75988750Y-34585612D01*
X75988750Y-33934388D01*
X75993315Y-33888032D01*
X76005046Y-33849362D01*
X76024096Y-33813723D01*
X76049733Y-33782483D01*
X76080973Y-33756846D01*
X76116612Y-33737796D01*
X76155282Y-33726065D01*
X76201638Y-33721500D01*
X77277862Y-33721500D01*
X77324218Y-33726065D01*
X77324218Y-33726065D01*
G37*
G36*
X60274468Y-33659065D02*
G01*
X60313138Y-33670796D01*
X60348777Y-33689846D01*
X60380017Y-33715483D01*
X60405654Y-33746723D01*
X60424704Y-33782362D01*
X60436435Y-33821032D01*
X60441000Y-33867388D01*
X60441000Y-34518612D01*
X60436435Y-34564968D01*
X60424704Y-34603638D01*
X60405654Y-34639277D01*
X60380017Y-34670517D01*
X60348777Y-34696154D01*
X60313138Y-34715204D01*
X60274468Y-34726935D01*
X60228112Y-34731500D01*
X59151888Y-34731500D01*
X59105532Y-34726935D01*
X59066862Y-34715204D01*
X59031223Y-34696154D01*
X58999983Y-34670517D01*
X58974346Y-34639277D01*
X58955296Y-34603638D01*
X58943565Y-34564968D01*
X58939000Y-34518612D01*
X58939000Y-33867388D01*
X58943565Y-33821032D01*
X58955296Y-33782362D01*
X58974346Y-33746723D01*
X58999983Y-33715483D01*
X59031223Y-33689846D01*
X59066862Y-33670796D01*
X59105532Y-33659065D01*
X59151888Y-33654500D01*
X60228112Y-33654500D01*
X60274468Y-33659065D01*
X60274468Y-33659065D01*
G37*
G36*
X63068468Y-33629065D02*
G01*
X63107138Y-33640796D01*
X63142777Y-33659846D01*
X63174017Y-33685483D01*
X63199654Y-33716723D01*
X63218704Y-33752362D01*
X63230435Y-33791032D01*
X63235000Y-33837388D01*
X63235000Y-34488612D01*
X63230435Y-34534968D01*
X63218704Y-34573638D01*
X63199654Y-34609277D01*
X63174017Y-34640517D01*
X63142777Y-34666154D01*
X63107138Y-34685204D01*
X63068468Y-34696935D01*
X63022112Y-34701500D01*
X61945888Y-34701500D01*
X61899532Y-34696935D01*
X61860862Y-34685204D01*
X61825223Y-34666154D01*
X61793983Y-34640517D01*
X61768346Y-34609277D01*
X61749296Y-34573638D01*
X61737565Y-34534968D01*
X61733000Y-34488612D01*
X61733000Y-33837388D01*
X61737565Y-33791032D01*
X61749296Y-33752362D01*
X61768346Y-33716723D01*
X61793983Y-33685483D01*
X61825223Y-33659846D01*
X61860862Y-33640796D01*
X61899532Y-33629065D01*
X61945888Y-33624500D01*
X63022112Y-33624500D01*
X63068468Y-33629065D01*
X63068468Y-33629065D01*
G37*
G36*
X110125104Y-32447085D02*
G01*
X110293626Y-32516889D01*
X110445291Y-32618228D01*
X110574272Y-32747209D01*
X110675611Y-32898874D01*
X110745415Y-33067396D01*
X110781000Y-33246297D01*
X110781000Y-33428703D01*
X110745415Y-33607604D01*
X110675611Y-33776126D01*
X110574272Y-33927791D01*
X110445291Y-34056772D01*
X110293626Y-34158111D01*
X110125104Y-34227915D01*
X109946203Y-34263500D01*
X109763797Y-34263500D01*
X109584896Y-34227915D01*
X109416374Y-34158111D01*
X109264709Y-34056772D01*
X109135728Y-33927791D01*
X109034389Y-33776126D01*
X108964585Y-33607604D01*
X108929000Y-33428703D01*
X108929000Y-33246297D01*
X108964585Y-33067396D01*
X109034389Y-32898874D01*
X109135728Y-32747209D01*
X109264709Y-32618228D01*
X109416374Y-32516889D01*
X109584896Y-32447085D01*
X109763797Y-32411500D01*
X109946203Y-32411500D01*
X110125104Y-32447085D01*
X110125104Y-32447085D01*
G37*
G36*
X99965104Y-32447085D02*
G01*
X100133626Y-32516889D01*
X100285291Y-32618228D01*
X100414272Y-32747209D01*
X100515611Y-32898874D01*
X100585415Y-33067396D01*
X100621000Y-33246297D01*
X100621000Y-33428703D01*
X100585415Y-33607604D01*
X100515611Y-33776126D01*
X100414272Y-33927791D01*
X100285291Y-34056772D01*
X100133626Y-34158111D01*
X99965104Y-34227915D01*
X99786203Y-34263500D01*
X99603797Y-34263500D01*
X99424896Y-34227915D01*
X99256374Y-34158111D01*
X99104709Y-34056772D01*
X98975728Y-33927791D01*
X98874389Y-33776126D01*
X98804585Y-33607604D01*
X98769000Y-33428703D01*
X98769000Y-33246297D01*
X98804585Y-33067396D01*
X98874389Y-32898874D01*
X98975728Y-32747209D01*
X99104709Y-32618228D01*
X99256374Y-32516889D01*
X99424896Y-32447085D01*
X99603797Y-32411500D01*
X99786203Y-32411500D01*
X99965104Y-32447085D01*
X99965104Y-32447085D01*
G37*
G36*
X119015104Y-32447085D02*
G01*
X119183626Y-32516889D01*
X119335291Y-32618228D01*
X119464272Y-32747209D01*
X119565611Y-32898874D01*
X119635415Y-33067396D01*
X119671000Y-33246297D01*
X119671000Y-33428703D01*
X119635415Y-33607604D01*
X119565611Y-33776126D01*
X119464272Y-33927791D01*
X119335291Y-34056772D01*
X119183626Y-34158111D01*
X119015104Y-34227915D01*
X118836203Y-34263500D01*
X118653797Y-34263500D01*
X118474896Y-34227915D01*
X118306374Y-34158111D01*
X118154709Y-34056772D01*
X118025728Y-33927791D01*
X117924389Y-33776126D01*
X117854585Y-33607604D01*
X117819000Y-33428703D01*
X117819000Y-33246297D01*
X117854585Y-33067396D01*
X117924389Y-32898874D01*
X118025728Y-32747209D01*
X118154709Y-32618228D01*
X118306374Y-32516889D01*
X118474896Y-32447085D01*
X118653797Y-32411500D01*
X118836203Y-32411500D01*
X119015104Y-32447085D01*
X119015104Y-32447085D01*
G37*
G36*
X129175104Y-32447085D02*
G01*
X129343626Y-32516889D01*
X129495291Y-32618228D01*
X129624272Y-32747209D01*
X129725611Y-32898874D01*
X129795415Y-33067396D01*
X129831000Y-33246297D01*
X129831000Y-33428703D01*
X129795415Y-33607604D01*
X129725611Y-33776126D01*
X129624272Y-33927791D01*
X129495291Y-34056772D01*
X129343626Y-34158111D01*
X129175104Y-34227915D01*
X128996203Y-34263500D01*
X128813797Y-34263500D01*
X128634896Y-34227915D01*
X128466374Y-34158111D01*
X128314709Y-34056772D01*
X128185728Y-33927791D01*
X128084389Y-33776126D01*
X128014585Y-33607604D01*
X127979000Y-33428703D01*
X127979000Y-33246297D01*
X128014585Y-33067396D01*
X128084389Y-32898874D01*
X128185728Y-32747209D01*
X128314709Y-32618228D01*
X128466374Y-32516889D01*
X128634896Y-32447085D01*
X128813797Y-32411500D01*
X128996203Y-32411500D01*
X129175104Y-32447085D01*
X129175104Y-32447085D01*
G37*
G36*
X74498468Y-32994065D02*
G01*
X74537138Y-33005796D01*
X74572777Y-33024846D01*
X74604017Y-33050483D01*
X74629654Y-33081723D01*
X74648704Y-33117362D01*
X74660435Y-33156032D01*
X74665000Y-33202388D01*
X74665000Y-33853612D01*
X74660435Y-33899968D01*
X74648704Y-33938638D01*
X74629654Y-33974277D01*
X74604017Y-34005517D01*
X74572777Y-34031154D01*
X74537138Y-34050204D01*
X74498468Y-34061935D01*
X74452112Y-34066500D01*
X73375888Y-34066500D01*
X73329532Y-34061935D01*
X73290862Y-34050204D01*
X73255223Y-34031154D01*
X73223983Y-34005517D01*
X73198346Y-33974277D01*
X73179296Y-33938638D01*
X73167565Y-33899968D01*
X73163000Y-33853612D01*
X73163000Y-33202388D01*
X73167565Y-33156032D01*
X73179296Y-33117362D01*
X73198346Y-33081723D01*
X73223983Y-33050483D01*
X73255223Y-33024846D01*
X73290862Y-33005796D01*
X73329532Y-32994065D01*
X73375888Y-32989500D01*
X74452112Y-32989500D01*
X74498468Y-32994065D01*
X74498468Y-32994065D01*
G37*
G36*
X77324218Y-31851065D02*
G01*
X77362888Y-31862796D01*
X77398527Y-31881846D01*
X77429767Y-31907483D01*
X77455404Y-31938723D01*
X77474454Y-31974362D01*
X77486185Y-32013032D01*
X77490750Y-32059388D01*
X77490750Y-32710612D01*
X77486185Y-32756968D01*
X77474454Y-32795638D01*
X77455404Y-32831277D01*
X77429767Y-32862517D01*
X77398527Y-32888154D01*
X77362888Y-32907204D01*
X77324218Y-32918935D01*
X77277862Y-32923500D01*
X76201638Y-32923500D01*
X76155282Y-32918935D01*
X76116612Y-32907204D01*
X76080973Y-32888154D01*
X76049733Y-32862517D01*
X76024096Y-32831277D01*
X76005046Y-32795638D01*
X75993315Y-32756968D01*
X75988750Y-32710612D01*
X75988750Y-32059388D01*
X75993315Y-32013032D01*
X76005046Y-31974362D01*
X76024096Y-31938723D01*
X76049733Y-31907483D01*
X76080973Y-31881846D01*
X76116612Y-31862796D01*
X76155282Y-31851065D01*
X76201638Y-31846500D01*
X77277862Y-31846500D01*
X77324218Y-31851065D01*
X77324218Y-31851065D01*
G37*
G36*
X74498468Y-31119065D02*
G01*
X74537138Y-31130796D01*
X74572777Y-31149846D01*
X74604017Y-31175483D01*
X74629654Y-31206723D01*
X74648704Y-31242362D01*
X74660435Y-31281032D01*
X74665000Y-31327388D01*
X74665000Y-31978612D01*
X74660435Y-32024968D01*
X74648704Y-32063638D01*
X74629654Y-32099277D01*
X74604017Y-32130517D01*
X74572777Y-32156154D01*
X74537138Y-32175204D01*
X74498468Y-32186935D01*
X74452112Y-32191500D01*
X73375888Y-32191500D01*
X73329532Y-32186935D01*
X73290862Y-32175204D01*
X73255223Y-32156154D01*
X73223983Y-32130517D01*
X73198346Y-32099277D01*
X73179296Y-32063638D01*
X73167565Y-32024968D01*
X73163000Y-31978612D01*
X73163000Y-31327388D01*
X73167565Y-31281032D01*
X73179296Y-31242362D01*
X73198346Y-31206723D01*
X73223983Y-31175483D01*
X73255223Y-31149846D01*
X73290862Y-31130796D01*
X73329532Y-31119065D01*
X73375888Y-31114500D01*
X74452112Y-31114500D01*
X74498468Y-31119065D01*
X74498468Y-31119065D01*
G37*
G36*
X113363500Y-32188500D02*
G01*
X112061500Y-32188500D01*
X112061500Y-31186500D01*
X113363500Y-31186500D01*
X113363500Y-32188500D01*
X113363500Y-32188500D01*
G37*
G36*
X132413500Y-32188500D02*
G01*
X131111500Y-32188500D01*
X131111500Y-31186500D01*
X132413500Y-31186500D01*
X132413500Y-32188500D01*
X132413500Y-32188500D01*
G37*
G36*
X120206560Y-29636564D02*
G01*
X120358027Y-29666693D01*
X120572045Y-29755342D01*
X120572046Y-29755343D01*
X120764654Y-29884039D01*
X120928461Y-30047846D01*
X121014258Y-30176251D01*
X121057158Y-30240455D01*
X121145807Y-30454473D01*
X121162653Y-30539163D01*
X121191000Y-30681673D01*
X121191000Y-30913327D01*
X121177076Y-30983326D01*
X121145807Y-31140527D01*
X121057158Y-31354545D01*
X121047741Y-31368638D01*
X120928461Y-31547154D01*
X120764654Y-31710961D01*
X120707540Y-31749123D01*
X120572045Y-31839658D01*
X120358027Y-31928307D01*
X120206560Y-31958436D01*
X120130827Y-31973500D01*
X119899173Y-31973500D01*
X119823440Y-31958436D01*
X119671973Y-31928307D01*
X119457955Y-31839658D01*
X119322460Y-31749123D01*
X119265346Y-31710961D01*
X119101539Y-31547154D01*
X118982259Y-31368638D01*
X118972842Y-31354545D01*
X118884193Y-31140527D01*
X118852924Y-30983326D01*
X118839000Y-30913327D01*
X118839000Y-30681673D01*
X118867347Y-30539163D01*
X118884193Y-30454473D01*
X118972842Y-30240455D01*
X119015742Y-30176251D01*
X119101539Y-30047846D01*
X119265346Y-29884039D01*
X119457954Y-29755343D01*
X119457955Y-29755342D01*
X119671973Y-29666693D01*
X119823440Y-29636564D01*
X119899173Y-29621500D01*
X120130827Y-29621500D01*
X120206560Y-29636564D01*
X120206560Y-29636564D01*
G37*
G36*
X101156560Y-29636564D02*
G01*
X101308027Y-29666693D01*
X101522045Y-29755342D01*
X101522046Y-29755343D01*
X101714654Y-29884039D01*
X101878461Y-30047846D01*
X101964258Y-30176251D01*
X102007158Y-30240455D01*
X102095807Y-30454473D01*
X102112653Y-30539163D01*
X102141000Y-30681673D01*
X102141000Y-30913327D01*
X102127076Y-30983326D01*
X102095807Y-31140527D01*
X102007158Y-31354545D01*
X101997741Y-31368638D01*
X101878461Y-31547154D01*
X101714654Y-31710961D01*
X101657540Y-31749123D01*
X101522045Y-31839658D01*
X101308027Y-31928307D01*
X101156560Y-31958436D01*
X101080827Y-31973500D01*
X100849173Y-31973500D01*
X100773440Y-31958436D01*
X100621973Y-31928307D01*
X100407955Y-31839658D01*
X100272460Y-31749123D01*
X100215346Y-31710961D01*
X100051539Y-31547154D01*
X99932259Y-31368638D01*
X99922842Y-31354545D01*
X99834193Y-31140527D01*
X99802924Y-30983326D01*
X99789000Y-30913327D01*
X99789000Y-30681673D01*
X99817347Y-30539163D01*
X99834193Y-30454473D01*
X99922842Y-30240455D01*
X99965742Y-30176251D01*
X100051539Y-30047846D01*
X100215346Y-29884039D01*
X100407954Y-29755343D01*
X100407955Y-29755342D01*
X100621973Y-29666693D01*
X100773440Y-29636564D01*
X100849173Y-29621500D01*
X101080827Y-29621500D01*
X101156560Y-29636564D01*
X101156560Y-29636564D01*
G37*
G36*
X89484468Y-30424065D02*
G01*
X89523138Y-30435796D01*
X89558777Y-30454846D01*
X89590017Y-30480483D01*
X89615654Y-30511723D01*
X89634704Y-30547362D01*
X89646435Y-30586032D01*
X89651000Y-30632388D01*
X89651000Y-31283612D01*
X89646435Y-31329968D01*
X89634704Y-31368638D01*
X89615654Y-31404277D01*
X89590017Y-31435517D01*
X89558777Y-31461154D01*
X89523138Y-31480204D01*
X89484468Y-31491935D01*
X89438112Y-31496500D01*
X88361888Y-31496500D01*
X88315532Y-31491935D01*
X88276862Y-31480204D01*
X88241223Y-31461154D01*
X88209983Y-31435517D01*
X88184346Y-31404277D01*
X88165296Y-31368638D01*
X88153565Y-31329968D01*
X88149000Y-31283612D01*
X88149000Y-30632388D01*
X88153565Y-30586032D01*
X88165296Y-30547362D01*
X88184346Y-30511723D01*
X88209983Y-30480483D01*
X88241223Y-30454846D01*
X88276862Y-30435796D01*
X88315532Y-30424065D01*
X88361888Y-30419500D01*
X89438112Y-30419500D01*
X89484468Y-30424065D01*
X89484468Y-30424065D01*
G37*
G36*
X85755000Y-31434000D02*
G01*
X84253000Y-31434000D01*
X84253000Y-30132000D01*
X85755000Y-30132000D01*
X85755000Y-31434000D01*
X85755000Y-31434000D01*
G37*
G36*
X83555000Y-31434000D02*
G01*
X82053000Y-31434000D01*
X82053000Y-30132000D01*
X83555000Y-30132000D01*
X83555000Y-31434000D01*
X83555000Y-31434000D01*
G37*
G36*
X65264127Y-28639037D02*
G01*
X65433966Y-28690557D01*
X65590491Y-28774222D01*
X65626229Y-28803552D01*
X65727686Y-28886814D01*
X65808788Y-28985638D01*
X65840278Y-29024009D01*
X65923943Y-29180534D01*
X65975463Y-29350373D01*
X65975463Y-29350375D01*
X65988500Y-29482740D01*
X65988500Y-30571260D01*
X65987045Y-30586032D01*
X65975463Y-30703627D01*
X65923943Y-30873466D01*
X65840278Y-31029991D01*
X65810948Y-31065729D01*
X65727686Y-31167186D01*
X65590489Y-31279779D01*
X65494246Y-31331222D01*
X65433965Y-31363443D01*
X65264126Y-31414963D01*
X65087500Y-31432359D01*
X64910873Y-31414963D01*
X64741034Y-31363443D01*
X64584509Y-31279778D01*
X64528927Y-31234163D01*
X64447314Y-31167186D01*
X64334721Y-31029989D01*
X64251058Y-30873467D01*
X64251057Y-30873465D01*
X64199537Y-30703626D01*
X64186500Y-30571257D01*
X64186501Y-29482742D01*
X64199538Y-29350373D01*
X64251058Y-29180534D01*
X64334723Y-29024009D01*
X64366213Y-28985638D01*
X64447315Y-28886814D01*
X64548772Y-28803552D01*
X64584510Y-28774222D01*
X64741035Y-28690557D01*
X64910874Y-28639037D01*
X65087500Y-28621641D01*
X65264127Y-28639037D01*
X65264127Y-28639037D01*
G37*
G36*
X57964127Y-28639037D02*
G01*
X58133966Y-28690557D01*
X58290491Y-28774222D01*
X58326229Y-28803552D01*
X58427686Y-28886814D01*
X58508788Y-28985638D01*
X58540278Y-29024009D01*
X58623943Y-29180534D01*
X58675463Y-29350373D01*
X58675463Y-29350375D01*
X58688500Y-29482740D01*
X58688500Y-30571260D01*
X58687045Y-30586032D01*
X58675463Y-30703627D01*
X58623943Y-30873466D01*
X58540278Y-31029991D01*
X58510948Y-31065729D01*
X58427686Y-31167186D01*
X58290489Y-31279779D01*
X58194246Y-31331222D01*
X58133965Y-31363443D01*
X57964126Y-31414963D01*
X57787500Y-31432359D01*
X57610873Y-31414963D01*
X57441034Y-31363443D01*
X57284509Y-31279778D01*
X57228927Y-31234163D01*
X57147314Y-31167186D01*
X57034721Y-31029989D01*
X56951058Y-30873467D01*
X56951057Y-30873465D01*
X56899537Y-30703626D01*
X56886500Y-30571257D01*
X56886501Y-29482742D01*
X56899538Y-29350373D01*
X56951058Y-29180534D01*
X57034723Y-29024009D01*
X57066213Y-28985638D01*
X57147315Y-28886814D01*
X57248772Y-28803552D01*
X57284510Y-28774222D01*
X57441035Y-28690557D01*
X57610874Y-28639037D01*
X57787500Y-28621641D01*
X57964127Y-28639037D01*
X57964127Y-28639037D01*
G37*
G36*
X63338500Y-31203000D02*
G01*
X59536500Y-31203000D01*
X59536500Y-28851000D01*
X63338500Y-28851000D01*
X63338500Y-31203000D01*
X63338500Y-31203000D01*
G37*
G36*
X80086468Y-29916065D02*
G01*
X80125138Y-29927796D01*
X80160777Y-29946846D01*
X80192017Y-29972483D01*
X80217654Y-30003723D01*
X80236704Y-30039362D01*
X80248435Y-30078032D01*
X80253000Y-30124388D01*
X80253000Y-30775612D01*
X80248435Y-30821968D01*
X80236704Y-30860638D01*
X80217654Y-30896277D01*
X80192017Y-30927517D01*
X80160777Y-30953154D01*
X80125138Y-30972204D01*
X80086468Y-30983935D01*
X80040112Y-30988500D01*
X78963888Y-30988500D01*
X78917532Y-30983935D01*
X78878862Y-30972204D01*
X78843223Y-30953154D01*
X78811983Y-30927517D01*
X78786346Y-30896277D01*
X78767296Y-30860638D01*
X78755565Y-30821968D01*
X78751000Y-30775612D01*
X78751000Y-30124388D01*
X78755565Y-30078032D01*
X78767296Y-30039362D01*
X78786346Y-30003723D01*
X78811983Y-29972483D01*
X78843223Y-29946846D01*
X78878862Y-29927796D01*
X78917532Y-29916065D01*
X78963888Y-29911500D01*
X80040112Y-29911500D01*
X80086468Y-29916065D01*
X80086468Y-29916065D01*
G37*
G36*
X85755000Y-29734000D02*
G01*
X84253000Y-29734000D01*
X84253000Y-28432000D01*
X85755000Y-28432000D01*
X85755000Y-29734000D01*
X85755000Y-29734000D01*
G37*
G36*
X83555000Y-29734000D02*
G01*
X82053000Y-29734000D01*
X82053000Y-28432000D01*
X83555000Y-28432000D01*
X83555000Y-29734000D01*
X83555000Y-29734000D01*
G37*
G36*
X89484468Y-28549065D02*
G01*
X89523138Y-28560796D01*
X89558777Y-28579846D01*
X89590017Y-28605483D01*
X89615654Y-28636723D01*
X89634704Y-28672362D01*
X89646435Y-28711032D01*
X89651000Y-28757388D01*
X89651000Y-29408612D01*
X89646435Y-29454968D01*
X89634704Y-29493638D01*
X89615654Y-29529277D01*
X89590017Y-29560517D01*
X89558777Y-29586154D01*
X89523138Y-29605204D01*
X89484468Y-29616935D01*
X89438112Y-29621500D01*
X88361888Y-29621500D01*
X88315532Y-29616935D01*
X88276862Y-29605204D01*
X88241223Y-29586154D01*
X88209983Y-29560517D01*
X88184346Y-29529277D01*
X88165296Y-29493638D01*
X88153565Y-29454968D01*
X88149000Y-29408612D01*
X88149000Y-28757388D01*
X88153565Y-28711032D01*
X88165296Y-28672362D01*
X88184346Y-28636723D01*
X88209983Y-28605483D01*
X88241223Y-28579846D01*
X88276862Y-28560796D01*
X88315532Y-28549065D01*
X88361888Y-28544500D01*
X89438112Y-28544500D01*
X89484468Y-28549065D01*
X89484468Y-28549065D01*
G37*
G36*
X126556560Y-27096564D02*
G01*
X126708027Y-27126693D01*
X126922045Y-27215342D01*
X126922046Y-27215343D01*
X127114654Y-27344039D01*
X127278461Y-27507846D01*
X127364258Y-27636251D01*
X127407158Y-27700455D01*
X127495807Y-27914473D01*
X127541000Y-28141674D01*
X127541000Y-28373326D01*
X127495807Y-28600527D01*
X127407158Y-28814545D01*
X127407157Y-28814546D01*
X127278461Y-29007154D01*
X127114654Y-29170961D01*
X126986249Y-29256758D01*
X126922045Y-29299658D01*
X126708027Y-29388307D01*
X126556560Y-29418436D01*
X126480827Y-29433500D01*
X126249173Y-29433500D01*
X126173440Y-29418436D01*
X126021973Y-29388307D01*
X125807955Y-29299658D01*
X125743751Y-29256758D01*
X125615346Y-29170961D01*
X125451539Y-29007154D01*
X125322843Y-28814546D01*
X125322842Y-28814545D01*
X125234193Y-28600527D01*
X125189000Y-28373326D01*
X125189000Y-28141674D01*
X125234193Y-27914473D01*
X125322842Y-27700455D01*
X125365742Y-27636251D01*
X125451539Y-27507846D01*
X125615346Y-27344039D01*
X125807954Y-27215343D01*
X125807955Y-27215342D01*
X126021973Y-27126693D01*
X126173440Y-27096564D01*
X126249173Y-27081500D01*
X126480827Y-27081500D01*
X126556560Y-27096564D01*
X126556560Y-27096564D01*
G37*
G36*
X107506560Y-27096564D02*
G01*
X107658027Y-27126693D01*
X107872045Y-27215342D01*
X107872046Y-27215343D01*
X108064654Y-27344039D01*
X108228461Y-27507846D01*
X108314258Y-27636251D01*
X108357158Y-27700455D01*
X108445807Y-27914473D01*
X108491000Y-28141674D01*
X108491000Y-28373326D01*
X108445807Y-28600527D01*
X108357158Y-28814545D01*
X108357157Y-28814546D01*
X108228461Y-29007154D01*
X108064654Y-29170961D01*
X107936249Y-29256758D01*
X107872045Y-29299658D01*
X107658027Y-29388307D01*
X107506560Y-29418436D01*
X107430827Y-29433500D01*
X107199173Y-29433500D01*
X107123440Y-29418436D01*
X106971973Y-29388307D01*
X106757955Y-29299658D01*
X106693751Y-29256758D01*
X106565346Y-29170961D01*
X106401539Y-29007154D01*
X106272843Y-28814546D01*
X106272842Y-28814545D01*
X106184193Y-28600527D01*
X106139000Y-28373326D01*
X106139000Y-28141674D01*
X106184193Y-27914473D01*
X106272842Y-27700455D01*
X106315742Y-27636251D01*
X106401539Y-27507846D01*
X106565346Y-27344039D01*
X106757954Y-27215343D01*
X106757955Y-27215342D01*
X106971973Y-27126693D01*
X107123440Y-27096564D01*
X107199173Y-27081500D01*
X107430827Y-27081500D01*
X107506560Y-27096564D01*
X107506560Y-27096564D01*
G37*
G36*
X80086468Y-28041065D02*
G01*
X80125138Y-28052796D01*
X80160777Y-28071846D01*
X80192017Y-28097483D01*
X80217654Y-28128723D01*
X80236704Y-28164362D01*
X80248435Y-28203032D01*
X80253000Y-28249388D01*
X80253000Y-28900612D01*
X80248435Y-28946968D01*
X80236704Y-28985638D01*
X80217654Y-29021277D01*
X80192017Y-29052517D01*
X80160777Y-29078154D01*
X80125138Y-29097204D01*
X80086468Y-29108935D01*
X80040112Y-29113500D01*
X78963888Y-29113500D01*
X78917532Y-29108935D01*
X78878862Y-29097204D01*
X78843223Y-29078154D01*
X78811983Y-29052517D01*
X78786346Y-29021277D01*
X78767296Y-28985638D01*
X78755565Y-28946968D01*
X78751000Y-28900612D01*
X78751000Y-28249388D01*
X78755565Y-28203032D01*
X78767296Y-28164362D01*
X78786346Y-28128723D01*
X78811983Y-28097483D01*
X78843223Y-28071846D01*
X78878862Y-28052796D01*
X78917532Y-28041065D01*
X78963888Y-28036500D01*
X80040112Y-28036500D01*
X80086468Y-28041065D01*
X80086468Y-28041065D01*
G37*
G36*
X57964127Y-24139037D02*
G01*
X58133966Y-24190557D01*
X58290491Y-24274222D01*
X58326229Y-24303552D01*
X58427686Y-24386814D01*
X58510948Y-24488271D01*
X58540278Y-24524009D01*
X58623943Y-24680534D01*
X58675463Y-24850373D01*
X58688500Y-24982742D01*
X58688500Y-26071258D01*
X58675463Y-26203627D01*
X58623943Y-26373466D01*
X58540278Y-26529991D01*
X58510948Y-26565729D01*
X58427686Y-26667186D01*
X58290489Y-26779779D01*
X58133967Y-26863442D01*
X58133965Y-26863443D01*
X57964126Y-26914963D01*
X57787500Y-26932359D01*
X57610873Y-26914963D01*
X57441034Y-26863443D01*
X57284509Y-26779778D01*
X57248771Y-26750448D01*
X57147314Y-26667186D01*
X57034721Y-26529989D01*
X56951058Y-26373467D01*
X56951057Y-26373465D01*
X56899537Y-26203626D01*
X56886500Y-26071257D01*
X56886501Y-24982742D01*
X56899538Y-24850373D01*
X56951058Y-24680534D01*
X57034723Y-24524009D01*
X57064053Y-24488271D01*
X57147315Y-24386814D01*
X57248772Y-24303552D01*
X57284510Y-24274222D01*
X57441035Y-24190557D01*
X57610874Y-24139037D01*
X57787500Y-24121641D01*
X57964127Y-24139037D01*
X57964127Y-24139037D01*
G37*
G36*
X65264127Y-24139037D02*
G01*
X65433966Y-24190557D01*
X65590491Y-24274222D01*
X65626229Y-24303552D01*
X65727686Y-24386814D01*
X65810948Y-24488271D01*
X65840278Y-24524009D01*
X65923943Y-24680534D01*
X65975463Y-24850373D01*
X65988500Y-24982742D01*
X65988500Y-26071258D01*
X65975463Y-26203627D01*
X65923943Y-26373466D01*
X65840278Y-26529991D01*
X65810948Y-26565729D01*
X65727686Y-26667186D01*
X65590489Y-26779779D01*
X65433967Y-26863442D01*
X65433965Y-26863443D01*
X65264126Y-26914963D01*
X65087500Y-26932359D01*
X64910873Y-26914963D01*
X64741034Y-26863443D01*
X64584509Y-26779778D01*
X64548771Y-26750448D01*
X64447314Y-26667186D01*
X64334721Y-26529989D01*
X64251058Y-26373467D01*
X64251057Y-26373465D01*
X64199537Y-26203626D01*
X64186500Y-26071257D01*
X64186501Y-24982742D01*
X64199538Y-24850373D01*
X64251058Y-24680534D01*
X64334723Y-24524009D01*
X64364053Y-24488271D01*
X64447315Y-24386814D01*
X64548772Y-24303552D01*
X64584510Y-24274222D01*
X64741035Y-24190557D01*
X64910874Y-24139037D01*
X65087500Y-24121641D01*
X65264127Y-24139037D01*
X65264127Y-24139037D01*
G37*
M02*
