G04 #@! TF.GenerationSoftware,KiCad,Pcbnew,(5.1.4)-1*
G04 #@! TF.CreationDate,2024-07-18T00:41:49-04:00*
G04 #@! TF.ProjectId,ai03-pcb-guide,61693033-2d70-4636-922d-67756964652e,rev?*
G04 #@! TF.SameCoordinates,Original*
G04 #@! TF.FileFunction,Soldermask,Top*
G04 #@! TF.FilePolarity,Negative*
%FSLAX46Y46*%
G04 Gerber Fmt 4.6, Leading zero omitted, Abs format (unit mm)*
G04 Created by KiCad (PCBNEW (5.1.4)-1) date 2024-07-18 00:41:49*
%MOMM*%
%LPD*%
G04 APERTURE LIST*
%ADD10C,0.150000*%
%ADD11C,0.100000*%
G04 APERTURE END LIST*
D10*
X50603062Y-57999380D02*
X51174491Y-57999380D01*
X50763776Y-58999380D02*
X50888776Y-57999380D01*
X51370919Y-58332714D02*
X51525681Y-58999380D01*
X51847110Y-58332714D02*
X51525681Y-58999380D01*
X51400681Y-59237476D01*
X51347110Y-59285095D01*
X51245919Y-59332714D01*
X52144729Y-58999380D02*
X52269729Y-57999380D01*
X52716157Y-58999380D02*
X52359014Y-58427952D01*
X52841157Y-57999380D02*
X52198300Y-58570809D01*
X53531633Y-58951761D02*
X53430443Y-58999380D01*
X53239967Y-58999380D01*
X53150681Y-58951761D01*
X53114967Y-58856523D01*
X53162586Y-58475571D01*
X53222110Y-58380333D01*
X53323300Y-58332714D01*
X53513776Y-58332714D01*
X53603062Y-58380333D01*
X53638776Y-58475571D01*
X53626872Y-58570809D01*
X53138776Y-58666047D01*
X53989967Y-58332714D02*
X54144729Y-58999380D01*
X54466157Y-58332714D02*
X54144729Y-58999380D01*
X54019729Y-59237476D01*
X53966157Y-59285095D01*
X53864967Y-59332714D01*
X54722110Y-58951761D02*
X54811395Y-58999380D01*
X55001872Y-58999380D01*
X55103062Y-58951761D01*
X55162586Y-58856523D01*
X55168538Y-58808904D01*
X55132824Y-58713666D01*
X55043538Y-58666047D01*
X54900681Y-58666047D01*
X54811395Y-58618428D01*
X54775681Y-58523190D01*
X54781633Y-58475571D01*
X54841157Y-58380333D01*
X54942348Y-58332714D01*
X55085205Y-58332714D01*
X55174491Y-58380333D01*
D11*
G36*
X105371474Y-50421184D02*
G01*
X105589474Y-50511483D01*
X105743623Y-50575333D01*
X106078548Y-50799123D01*
X106363377Y-51083952D01*
X106587167Y-51418877D01*
X106619562Y-51497086D01*
X106741316Y-51791026D01*
X106819900Y-52186094D01*
X106819900Y-52588906D01*
X106741316Y-52983974D01*
X106690451Y-53106772D01*
X106587167Y-53356123D01*
X106363377Y-53691048D01*
X106078548Y-53975877D01*
X105743623Y-54199667D01*
X105589474Y-54263517D01*
X105371474Y-54353816D01*
X104976406Y-54432400D01*
X104573594Y-54432400D01*
X104178526Y-54353816D01*
X103960526Y-54263517D01*
X103806377Y-54199667D01*
X103471452Y-53975877D01*
X103186623Y-53691048D01*
X102962833Y-53356123D01*
X102859549Y-53106772D01*
X102808684Y-52983974D01*
X102730100Y-52588906D01*
X102730100Y-52186094D01*
X102808684Y-51791026D01*
X102930438Y-51497086D01*
X102962833Y-51418877D01*
X103186623Y-51083952D01*
X103471452Y-50799123D01*
X103806377Y-50575333D01*
X103960526Y-50511483D01*
X104178526Y-50421184D01*
X104573594Y-50342600D01*
X104976406Y-50342600D01*
X105371474Y-50421184D01*
X105371474Y-50421184D01*
G37*
G36*
X124421474Y-50421184D02*
G01*
X124639474Y-50511483D01*
X124793623Y-50575333D01*
X125128548Y-50799123D01*
X125413377Y-51083952D01*
X125637167Y-51418877D01*
X125669562Y-51497086D01*
X125791316Y-51791026D01*
X125869900Y-52186094D01*
X125869900Y-52588906D01*
X125791316Y-52983974D01*
X125740451Y-53106772D01*
X125637167Y-53356123D01*
X125413377Y-53691048D01*
X125128548Y-53975877D01*
X124793623Y-54199667D01*
X124639474Y-54263517D01*
X124421474Y-54353816D01*
X124026406Y-54432400D01*
X123623594Y-54432400D01*
X123228526Y-54353816D01*
X123010526Y-54263517D01*
X122856377Y-54199667D01*
X122521452Y-53975877D01*
X122236623Y-53691048D01*
X122012833Y-53356123D01*
X121909549Y-53106772D01*
X121858684Y-52983974D01*
X121780100Y-52588906D01*
X121780100Y-52186094D01*
X121858684Y-51791026D01*
X121980438Y-51497086D01*
X122012833Y-51418877D01*
X122236623Y-51083952D01*
X122521452Y-50799123D01*
X122856377Y-50575333D01*
X123010526Y-50511483D01*
X123228526Y-50421184D01*
X123623594Y-50342600D01*
X124026406Y-50342600D01*
X124421474Y-50421184D01*
X124421474Y-50421184D01*
G37*
G36*
X129175104Y-51497085D02*
G01*
X129343626Y-51566889D01*
X129495291Y-51668228D01*
X129624272Y-51797209D01*
X129725611Y-51948874D01*
X129795415Y-52117396D01*
X129831000Y-52296297D01*
X129831000Y-52478703D01*
X129795415Y-52657604D01*
X129725611Y-52826126D01*
X129624272Y-52977791D01*
X129495291Y-53106772D01*
X129343626Y-53208111D01*
X129175104Y-53277915D01*
X128996203Y-53313500D01*
X128813797Y-53313500D01*
X128634896Y-53277915D01*
X128466374Y-53208111D01*
X128314709Y-53106772D01*
X128185728Y-52977791D01*
X128084389Y-52826126D01*
X128014585Y-52657604D01*
X127979000Y-52478703D01*
X127979000Y-52296297D01*
X128014585Y-52117396D01*
X128084389Y-51948874D01*
X128185728Y-51797209D01*
X128314709Y-51668228D01*
X128466374Y-51566889D01*
X128634896Y-51497085D01*
X128813797Y-51461500D01*
X128996203Y-51461500D01*
X129175104Y-51497085D01*
X129175104Y-51497085D01*
G37*
G36*
X119015104Y-51497085D02*
G01*
X119183626Y-51566889D01*
X119335291Y-51668228D01*
X119464272Y-51797209D01*
X119565611Y-51948874D01*
X119635415Y-52117396D01*
X119671000Y-52296297D01*
X119671000Y-52478703D01*
X119635415Y-52657604D01*
X119565611Y-52826126D01*
X119464272Y-52977791D01*
X119335291Y-53106772D01*
X119183626Y-53208111D01*
X119015104Y-53277915D01*
X118836203Y-53313500D01*
X118653797Y-53313500D01*
X118474896Y-53277915D01*
X118306374Y-53208111D01*
X118154709Y-53106772D01*
X118025728Y-52977791D01*
X117924389Y-52826126D01*
X117854585Y-52657604D01*
X117819000Y-52478703D01*
X117819000Y-52296297D01*
X117854585Y-52117396D01*
X117924389Y-51948874D01*
X118025728Y-51797209D01*
X118154709Y-51668228D01*
X118306374Y-51566889D01*
X118474896Y-51497085D01*
X118653797Y-51461500D01*
X118836203Y-51461500D01*
X119015104Y-51497085D01*
X119015104Y-51497085D01*
G37*
G36*
X110125104Y-51497085D02*
G01*
X110293626Y-51566889D01*
X110445291Y-51668228D01*
X110574272Y-51797209D01*
X110675611Y-51948874D01*
X110745415Y-52117396D01*
X110781000Y-52296297D01*
X110781000Y-52478703D01*
X110745415Y-52657604D01*
X110675611Y-52826126D01*
X110574272Y-52977791D01*
X110445291Y-53106772D01*
X110293626Y-53208111D01*
X110125104Y-53277915D01*
X109946203Y-53313500D01*
X109763797Y-53313500D01*
X109584896Y-53277915D01*
X109416374Y-53208111D01*
X109264709Y-53106772D01*
X109135728Y-52977791D01*
X109034389Y-52826126D01*
X108964585Y-52657604D01*
X108929000Y-52478703D01*
X108929000Y-52296297D01*
X108964585Y-52117396D01*
X109034389Y-51948874D01*
X109135728Y-51797209D01*
X109264709Y-51668228D01*
X109416374Y-51566889D01*
X109584896Y-51497085D01*
X109763797Y-51461500D01*
X109946203Y-51461500D01*
X110125104Y-51497085D01*
X110125104Y-51497085D01*
G37*
G36*
X99965104Y-51497085D02*
G01*
X100133626Y-51566889D01*
X100285291Y-51668228D01*
X100414272Y-51797209D01*
X100515611Y-51948874D01*
X100585415Y-52117396D01*
X100621000Y-52296297D01*
X100621000Y-52478703D01*
X100585415Y-52657604D01*
X100515611Y-52826126D01*
X100414272Y-52977791D01*
X100285291Y-53106772D01*
X100133626Y-53208111D01*
X99965104Y-53277915D01*
X99786203Y-53313500D01*
X99603797Y-53313500D01*
X99424896Y-53277915D01*
X99256374Y-53208111D01*
X99104709Y-53106772D01*
X98975728Y-52977791D01*
X98874389Y-52826126D01*
X98804585Y-52657604D01*
X98769000Y-52478703D01*
X98769000Y-52296297D01*
X98804585Y-52117396D01*
X98874389Y-51948874D01*
X98975728Y-51797209D01*
X99104709Y-51668228D01*
X99256374Y-51566889D01*
X99424896Y-51497085D01*
X99603797Y-51461500D01*
X99786203Y-51461500D01*
X99965104Y-51497085D01*
X99965104Y-51497085D01*
G37*
G36*
X124421474Y-31371184D02*
G01*
X124569163Y-31432359D01*
X124793623Y-31525333D01*
X125128548Y-31749123D01*
X125413377Y-32033952D01*
X125637167Y-32368877D01*
X125669562Y-32447086D01*
X125791316Y-32741026D01*
X125869900Y-33136094D01*
X125869900Y-33538906D01*
X125791316Y-33933974D01*
X125740451Y-34056772D01*
X125637167Y-34306123D01*
X125413377Y-34641048D01*
X125128548Y-34925877D01*
X124793623Y-35149667D01*
X124639474Y-35213517D01*
X124421474Y-35303816D01*
X124026406Y-35382400D01*
X123623594Y-35382400D01*
X123228526Y-35303816D01*
X123010526Y-35213517D01*
X122856377Y-35149667D01*
X122521452Y-34925877D01*
X122236623Y-34641048D01*
X122012833Y-34306123D01*
X121909549Y-34056772D01*
X121858684Y-33933974D01*
X121780100Y-33538906D01*
X121780100Y-33136094D01*
X121858684Y-32741026D01*
X121980438Y-32447086D01*
X122012833Y-32368877D01*
X122236623Y-32033952D01*
X122521452Y-31749123D01*
X122856377Y-31525333D01*
X123080837Y-31432359D01*
X123228526Y-31371184D01*
X123623594Y-31292600D01*
X124026406Y-31292600D01*
X124421474Y-31371184D01*
X124421474Y-31371184D01*
G37*
G36*
X105371474Y-31371184D02*
G01*
X105519163Y-31432359D01*
X105743623Y-31525333D01*
X106078548Y-31749123D01*
X106363377Y-32033952D01*
X106587167Y-32368877D01*
X106619562Y-32447086D01*
X106741316Y-32741026D01*
X106819900Y-33136094D01*
X106819900Y-33538906D01*
X106741316Y-33933974D01*
X106690451Y-34056772D01*
X106587167Y-34306123D01*
X106363377Y-34641048D01*
X106078548Y-34925877D01*
X105743623Y-35149667D01*
X105589474Y-35213517D01*
X105371474Y-35303816D01*
X104976406Y-35382400D01*
X104573594Y-35382400D01*
X104178526Y-35303816D01*
X103960526Y-35213517D01*
X103806377Y-35149667D01*
X103471452Y-34925877D01*
X103186623Y-34641048D01*
X102962833Y-34306123D01*
X102859549Y-34056772D01*
X102808684Y-33933974D01*
X102730100Y-33538906D01*
X102730100Y-33136094D01*
X102808684Y-32741026D01*
X102930438Y-32447086D01*
X102962833Y-32368877D01*
X103186623Y-32033952D01*
X103471452Y-31749123D01*
X103806377Y-31525333D01*
X104030837Y-31432359D01*
X104178526Y-31371184D01*
X104573594Y-31292600D01*
X104976406Y-31292600D01*
X105371474Y-31371184D01*
X105371474Y-31371184D01*
G37*
G36*
X110125104Y-32447085D02*
G01*
X110293626Y-32516889D01*
X110445291Y-32618228D01*
X110574272Y-32747209D01*
X110675611Y-32898874D01*
X110745415Y-33067396D01*
X110781000Y-33246297D01*
X110781000Y-33428703D01*
X110745415Y-33607604D01*
X110675611Y-33776126D01*
X110574272Y-33927791D01*
X110445291Y-34056772D01*
X110293626Y-34158111D01*
X110125104Y-34227915D01*
X109946203Y-34263500D01*
X109763797Y-34263500D01*
X109584896Y-34227915D01*
X109416374Y-34158111D01*
X109264709Y-34056772D01*
X109135728Y-33927791D01*
X109034389Y-33776126D01*
X108964585Y-33607604D01*
X108929000Y-33428703D01*
X108929000Y-33246297D01*
X108964585Y-33067396D01*
X109034389Y-32898874D01*
X109135728Y-32747209D01*
X109264709Y-32618228D01*
X109416374Y-32516889D01*
X109584896Y-32447085D01*
X109763797Y-32411500D01*
X109946203Y-32411500D01*
X110125104Y-32447085D01*
X110125104Y-32447085D01*
G37*
G36*
X99965104Y-32447085D02*
G01*
X100133626Y-32516889D01*
X100285291Y-32618228D01*
X100414272Y-32747209D01*
X100515611Y-32898874D01*
X100585415Y-33067396D01*
X100621000Y-33246297D01*
X100621000Y-33428703D01*
X100585415Y-33607604D01*
X100515611Y-33776126D01*
X100414272Y-33927791D01*
X100285291Y-34056772D01*
X100133626Y-34158111D01*
X99965104Y-34227915D01*
X99786203Y-34263500D01*
X99603797Y-34263500D01*
X99424896Y-34227915D01*
X99256374Y-34158111D01*
X99104709Y-34056772D01*
X98975728Y-33927791D01*
X98874389Y-33776126D01*
X98804585Y-33607604D01*
X98769000Y-33428703D01*
X98769000Y-33246297D01*
X98804585Y-33067396D01*
X98874389Y-32898874D01*
X98975728Y-32747209D01*
X99104709Y-32618228D01*
X99256374Y-32516889D01*
X99424896Y-32447085D01*
X99603797Y-32411500D01*
X99786203Y-32411500D01*
X99965104Y-32447085D01*
X99965104Y-32447085D01*
G37*
G36*
X119015104Y-32447085D02*
G01*
X119183626Y-32516889D01*
X119335291Y-32618228D01*
X119464272Y-32747209D01*
X119565611Y-32898874D01*
X119635415Y-33067396D01*
X119671000Y-33246297D01*
X119671000Y-33428703D01*
X119635415Y-33607604D01*
X119565611Y-33776126D01*
X119464272Y-33927791D01*
X119335291Y-34056772D01*
X119183626Y-34158111D01*
X119015104Y-34227915D01*
X118836203Y-34263500D01*
X118653797Y-34263500D01*
X118474896Y-34227915D01*
X118306374Y-34158111D01*
X118154709Y-34056772D01*
X118025728Y-33927791D01*
X117924389Y-33776126D01*
X117854585Y-33607604D01*
X117819000Y-33428703D01*
X117819000Y-33246297D01*
X117854585Y-33067396D01*
X117924389Y-32898874D01*
X118025728Y-32747209D01*
X118154709Y-32618228D01*
X118306374Y-32516889D01*
X118474896Y-32447085D01*
X118653797Y-32411500D01*
X118836203Y-32411500D01*
X119015104Y-32447085D01*
X119015104Y-32447085D01*
G37*
G36*
X129175104Y-32447085D02*
G01*
X129343626Y-32516889D01*
X129495291Y-32618228D01*
X129624272Y-32747209D01*
X129725611Y-32898874D01*
X129795415Y-33067396D01*
X129831000Y-33246297D01*
X129831000Y-33428703D01*
X129795415Y-33607604D01*
X129725611Y-33776126D01*
X129624272Y-33927791D01*
X129495291Y-34056772D01*
X129343626Y-34158111D01*
X129175104Y-34227915D01*
X128996203Y-34263500D01*
X128813797Y-34263500D01*
X128634896Y-34227915D01*
X128466374Y-34158111D01*
X128314709Y-34056772D01*
X128185728Y-33927791D01*
X128084389Y-33776126D01*
X128014585Y-33607604D01*
X127979000Y-33428703D01*
X127979000Y-33246297D01*
X128014585Y-33067396D01*
X128084389Y-32898874D01*
X128185728Y-32747209D01*
X128314709Y-32618228D01*
X128466374Y-32516889D01*
X128634896Y-32447085D01*
X128813797Y-32411500D01*
X128996203Y-32411500D01*
X129175104Y-32447085D01*
X129175104Y-32447085D01*
G37*
G36*
X57964127Y-28639037D02*
G01*
X58133966Y-28690557D01*
X58290491Y-28774222D01*
X58326229Y-28803552D01*
X58427686Y-28886814D01*
X58510948Y-28988271D01*
X58540278Y-29024009D01*
X58623943Y-29180534D01*
X58675463Y-29350373D01*
X58688500Y-29482742D01*
X58688500Y-30571258D01*
X58675463Y-30703627D01*
X58623943Y-30873466D01*
X58540278Y-31029991D01*
X58510948Y-31065729D01*
X58427686Y-31167186D01*
X58290489Y-31279779D01*
X58133967Y-31363442D01*
X58133965Y-31363443D01*
X57964126Y-31414963D01*
X57787500Y-31432359D01*
X57610873Y-31414963D01*
X57441034Y-31363443D01*
X57284509Y-31279778D01*
X57248771Y-31250448D01*
X57147314Y-31167186D01*
X57034721Y-31029989D01*
X56951058Y-30873467D01*
X56951057Y-30873465D01*
X56899537Y-30703626D01*
X56886500Y-30571257D01*
X56886501Y-29482742D01*
X56899538Y-29350373D01*
X56951058Y-29180534D01*
X57034723Y-29024009D01*
X57064053Y-28988271D01*
X57147315Y-28886814D01*
X57248772Y-28803552D01*
X57284510Y-28774222D01*
X57441035Y-28690557D01*
X57610874Y-28639037D01*
X57787500Y-28621641D01*
X57964127Y-28639037D01*
X57964127Y-28639037D01*
G37*
G36*
X65264127Y-28639037D02*
G01*
X65433966Y-28690557D01*
X65590491Y-28774222D01*
X65626229Y-28803552D01*
X65727686Y-28886814D01*
X65810948Y-28988271D01*
X65840278Y-29024009D01*
X65923943Y-29180534D01*
X65975463Y-29350373D01*
X65988500Y-29482742D01*
X65988500Y-30571258D01*
X65975463Y-30703627D01*
X65923943Y-30873466D01*
X65840278Y-31029991D01*
X65810948Y-31065729D01*
X65727686Y-31167186D01*
X65590489Y-31279779D01*
X65433967Y-31363442D01*
X65433965Y-31363443D01*
X65264126Y-31414963D01*
X65087500Y-31432359D01*
X64910873Y-31414963D01*
X64741034Y-31363443D01*
X64584509Y-31279778D01*
X64548771Y-31250448D01*
X64447314Y-31167186D01*
X64334721Y-31029989D01*
X64251058Y-30873467D01*
X64251057Y-30873465D01*
X64199537Y-30703626D01*
X64186500Y-30571257D01*
X64186501Y-29482742D01*
X64199538Y-29350373D01*
X64251058Y-29180534D01*
X64334723Y-29024009D01*
X64364053Y-28988271D01*
X64447315Y-28886814D01*
X64548772Y-28803552D01*
X64584510Y-28774222D01*
X64741035Y-28690557D01*
X64910874Y-28639037D01*
X65087500Y-28621641D01*
X65264127Y-28639037D01*
X65264127Y-28639037D01*
G37*
G36*
X57964127Y-24139037D02*
G01*
X58133966Y-24190557D01*
X58290491Y-24274222D01*
X58326229Y-24303552D01*
X58427686Y-24386814D01*
X58510948Y-24488271D01*
X58540278Y-24524009D01*
X58623943Y-24680534D01*
X58675463Y-24850373D01*
X58688500Y-24982742D01*
X58688500Y-26071258D01*
X58675463Y-26203627D01*
X58623943Y-26373466D01*
X58540278Y-26529991D01*
X58510948Y-26565729D01*
X58427686Y-26667186D01*
X58290489Y-26779779D01*
X58133967Y-26863442D01*
X58133965Y-26863443D01*
X57964126Y-26914963D01*
X57787500Y-26932359D01*
X57610873Y-26914963D01*
X57441034Y-26863443D01*
X57284509Y-26779778D01*
X57248771Y-26750448D01*
X57147314Y-26667186D01*
X57034721Y-26529989D01*
X56951058Y-26373467D01*
X56951057Y-26373465D01*
X56899537Y-26203626D01*
X56886500Y-26071257D01*
X56886501Y-24982742D01*
X56899538Y-24850373D01*
X56951058Y-24680534D01*
X57034723Y-24524009D01*
X57064053Y-24488271D01*
X57147315Y-24386814D01*
X57248772Y-24303552D01*
X57284510Y-24274222D01*
X57441035Y-24190557D01*
X57610874Y-24139037D01*
X57787500Y-24121641D01*
X57964127Y-24139037D01*
X57964127Y-24139037D01*
G37*
G36*
X65264127Y-24139037D02*
G01*
X65433966Y-24190557D01*
X65590491Y-24274222D01*
X65626229Y-24303552D01*
X65727686Y-24386814D01*
X65810948Y-24488271D01*
X65840278Y-24524009D01*
X65923943Y-24680534D01*
X65975463Y-24850373D01*
X65988500Y-24982742D01*
X65988500Y-26071258D01*
X65975463Y-26203627D01*
X65923943Y-26373466D01*
X65840278Y-26529991D01*
X65810948Y-26565729D01*
X65727686Y-26667186D01*
X65590489Y-26779779D01*
X65433967Y-26863442D01*
X65433965Y-26863443D01*
X65264126Y-26914963D01*
X65087500Y-26932359D01*
X64910873Y-26914963D01*
X64741034Y-26863443D01*
X64584509Y-26779778D01*
X64548771Y-26750448D01*
X64447314Y-26667186D01*
X64334721Y-26529989D01*
X64251058Y-26373467D01*
X64251057Y-26373465D01*
X64199537Y-26203626D01*
X64186500Y-26071257D01*
X64186501Y-24982742D01*
X64199538Y-24850373D01*
X64251058Y-24680534D01*
X64334723Y-24524009D01*
X64364053Y-24488271D01*
X64447315Y-24386814D01*
X64548772Y-24303552D01*
X64584510Y-24274222D01*
X64741035Y-24190557D01*
X64910874Y-24139037D01*
X65087500Y-24121641D01*
X65264127Y-24139037D01*
X65264127Y-24139037D01*
G37*
M02*
